<?xml version="1.0" encoding="utf-8" standalone="no"?>
<!DOCTYPE svg PUBLIC "-//W3C//DTD SVG 1.1//EN"
  "http://www.w3.org/Graphics/SVG/1.1/DTD/svg11.dtd">
<svg xmlns:xlink="http://www.w3.org/1999/xlink" width="716.87952pt" height="366.47976pt" viewBox="0 0 716.87952 366.47976" xmlns="http://www.w3.org/2000/svg" version="1.1">
 <metadata>
  <rdf:RDF xmlns:dc="http://purl.org/dc/elements/1.1/" xmlns:cc="http://creativecommons.org/ns#" xmlns:rdf="http://www.w3.org/1999/02/22-rdf-syntax-ns#">
   <cc:Work>
    <dc:type rdf:resource="http://purl.org/dc/dcmitype/StillImage"/>
    <dc:date>2025-06-11T14:56:16.979621</dc:date>
    <dc:format>image/svg+xml</dc:format>
    <dc:creator>
     <cc:Agent>
      <dc:title>Matplotlib v3.9.2, https://matplotlib.org/</dc:title>
     </cc:Agent>
    </dc:creator>
   </cc:Work>
  </rdf:RDF>
 </metadata>
 <defs>
  <style type="text/css">*{stroke-linejoin: round; stroke-linecap: butt}</style>
 </defs>
 <g id="figure_1">
  <g id="patch_1">
   <path d="M 0 366.47976 
L 716.87952 366.47976 
L 716.87952 0 
L 0 0 
z
" style="fill: #ffffff"/>
  </g>
  <g id="axes_1">
   <g id="patch_2">
    <path d="M 80.78 151.391635 
L 702.71452 151.391635 
L 702.71452 47.04024 
L 80.78 47.04024 
z
" style="fill: #ffffff"/>
   </g>
   <g id="matplotlib.axis_1">
    <g id="xtick_1">
     <g id="line2d_1">
      <defs>
       <path id="m1883cea6ec" d="M 0 0 
L 0 3.5 
" style="stroke: #000000; stroke-width: 0.8"/>
      </defs>
      <g>
       <use xlink:href="#m1883cea6ec" x="118.096071" y="151.391635" style="stroke: #000000; stroke-width: 0.8"/>
      </g>
     </g>
     <g id="text_1">
      <!-- −200 -->
      <g transform="translate(90.628884 173.58851) scale(0.2 -0.2)">
       <defs>
        <path id="DejaVuSans-2212" d="M 678 2272 
L 4684 2272 
L 4684 1741 
L 678 1741 
L 678 2272 
z
" transform="scale(0.015625)"/>
        <path id="DejaVuSans-32" d="M 1228 531 
L 3431 531 
L 3431 0 
L 469 0 
L 469 531 
Q 828 903 1448 1529 
Q 2069 2156 2228 2338 
Q 2531 2678 2651 2914 
Q 2772 3150 2772 3378 
Q 2772 3750 2511 3984 
Q 2250 4219 1831 4219 
Q 1534 4219 1204 4116 
Q 875 4013 500 3803 
L 500 4441 
Q 881 4594 1212 4672 
Q 1544 4750 1819 4750 
Q 2544 4750 2975 4387 
Q 3406 4025 3406 3419 
Q 3406 3131 3298 2873 
Q 3191 2616 2906 2266 
Q 2828 2175 2409 1742 
Q 1991 1309 1228 531 
z
" transform="scale(0.015625)"/>
        <path id="DejaVuSans-30" d="M 2034 4250 
Q 1547 4250 1301 3770 
Q 1056 3291 1056 2328 
Q 1056 1369 1301 889 
Q 1547 409 2034 409 
Q 2525 409 2770 889 
Q 3016 1369 3016 2328 
Q 3016 3291 2770 3770 
Q 2525 4250 2034 4250 
z
M 2034 4750 
Q 2819 4750 3233 4129 
Q 3647 3509 3647 2328 
Q 3647 1150 3233 529 
Q 2819 -91 2034 -91 
Q 1250 -91 836 529 
Q 422 1150 422 2328 
Q 422 3509 836 4129 
Q 1250 4750 2034 4750 
z
" transform="scale(0.015625)"/>
       </defs>
       <use xlink:href="#DejaVuSans-2212"/>
       <use xlink:href="#DejaVuSans-32" x="83.789062"/>
       <use xlink:href="#DejaVuSans-30" x="147.412109"/>
       <use xlink:href="#DejaVuSans-30" x="211.035156"/>
      </g>
     </g>
    </g>
    <g id="xtick_2">
     <g id="line2d_2">
      <g>
       <use xlink:href="#m1883cea6ec" x="242.482975" y="151.391635" style="stroke: #000000; stroke-width: 0.8"/>
      </g>
     </g>
     <g id="text_2">
      <!-- −100 -->
      <g transform="translate(215.015788 173.58851) scale(0.2 -0.2)">
       <defs>
        <path id="DejaVuSans-31" d="M 794 531 
L 1825 531 
L 1825 4091 
L 703 3866 
L 703 4441 
L 1819 4666 
L 2450 4666 
L 2450 531 
L 3481 531 
L 3481 0 
L 794 0 
L 794 531 
z
" transform="scale(0.015625)"/>
       </defs>
       <use xlink:href="#DejaVuSans-2212"/>
       <use xlink:href="#DejaVuSans-31" x="83.789062"/>
       <use xlink:href="#DejaVuSans-30" x="147.412109"/>
       <use xlink:href="#DejaVuSans-30" x="211.035156"/>
      </g>
     </g>
    </g>
    <g id="xtick_3">
     <g id="line2d_3">
      <g>
       <use xlink:href="#m1883cea6ec" x="366.869879" y="151.391635" style="stroke: #000000; stroke-width: 0.8"/>
      </g>
     </g>
     <g id="text_3">
      <!-- 0 -->
      <g transform="translate(360.507379 173.58851) scale(0.2 -0.2)">
       <use xlink:href="#DejaVuSans-30"/>
      </g>
     </g>
    </g>
    <g id="xtick_4">
     <g id="line2d_4">
      <g>
       <use xlink:href="#m1883cea6ec" x="491.256783" y="151.391635" style="stroke: #000000; stroke-width: 0.8"/>
      </g>
     </g>
     <g id="text_4">
      <!-- 100 -->
      <g transform="translate(472.169283 173.58851) scale(0.2 -0.2)">
       <use xlink:href="#DejaVuSans-31"/>
       <use xlink:href="#DejaVuSans-30" x="63.623047"/>
       <use xlink:href="#DejaVuSans-30" x="127.246094"/>
      </g>
     </g>
    </g>
    <g id="xtick_5">
     <g id="line2d_5">
      <g>
       <use xlink:href="#m1883cea6ec" x="615.643687" y="151.391635" style="stroke: #000000; stroke-width: 0.8"/>
      </g>
     </g>
     <g id="text_5">
      <!-- 200 -->
      <g transform="translate(596.556187 173.58851) scale(0.2 -0.2)">
       <use xlink:href="#DejaVuSans-32"/>
       <use xlink:href="#DejaVuSans-30" x="63.623047"/>
       <use xlink:href="#DejaVuSans-30" x="127.246094"/>
      </g>
     </g>
    </g>
    <g id="text_6">
     <!-- $x$ (a.u.) -->
     <g transform="translate(352.36726 198.464447) scale(0.22 -0.22)">
      <defs>
       <path id="DejaVuSans-Oblique-78" d="M 3841 3500 
L 2234 1784 
L 3219 0 
L 2559 0 
L 1819 1388 
L 531 0 
L -166 0 
L 1556 1844 
L 641 3500 
L 1300 3500 
L 1972 2234 
L 3144 3500 
L 3841 3500 
z
" transform="scale(0.015625)"/>
       <path id="DejaVuSans-20" transform="scale(0.015625)"/>
       <path id="DejaVuSans-28" d="M 1984 4856 
Q 1566 4138 1362 3434 
Q 1159 2731 1159 2009 
Q 1159 1288 1364 580 
Q 1569 -128 1984 -844 
L 1484 -844 
Q 1016 -109 783 600 
Q 550 1309 550 2009 
Q 550 2706 781 3412 
Q 1013 4119 1484 4856 
L 1984 4856 
z
" transform="scale(0.015625)"/>
       <path id="DejaVuSans-61" d="M 2194 1759 
Q 1497 1759 1228 1600 
Q 959 1441 959 1056 
Q 959 750 1161 570 
Q 1363 391 1709 391 
Q 2188 391 2477 730 
Q 2766 1069 2766 1631 
L 2766 1759 
L 2194 1759 
z
M 3341 1997 
L 3341 0 
L 2766 0 
L 2766 531 
Q 2569 213 2275 61 
Q 1981 -91 1556 -91 
Q 1019 -91 701 211 
Q 384 513 384 1019 
Q 384 1609 779 1909 
Q 1175 2209 1959 2209 
L 2766 2209 
L 2766 2266 
Q 2766 2663 2505 2880 
Q 2244 3097 1772 3097 
Q 1472 3097 1187 3025 
Q 903 2953 641 2809 
L 641 3341 
Q 956 3463 1253 3523 
Q 1550 3584 1831 3584 
Q 2591 3584 2966 3190 
Q 3341 2797 3341 1997 
z
" transform="scale(0.015625)"/>
       <path id="DejaVuSans-2e" d="M 684 794 
L 1344 794 
L 1344 0 
L 684 0 
L 684 794 
z
" transform="scale(0.015625)"/>
       <path id="DejaVuSans-75" d="M 544 1381 
L 544 3500 
L 1119 3500 
L 1119 1403 
Q 1119 906 1312 657 
Q 1506 409 1894 409 
Q 2359 409 2629 706 
Q 2900 1003 2900 1516 
L 2900 3500 
L 3475 3500 
L 3475 0 
L 2900 0 
L 2900 538 
Q 2691 219 2414 64 
Q 2138 -91 1772 -91 
Q 1169 -91 856 284 
Q 544 659 544 1381 
z
M 1991 3584 
L 1991 3584 
z
" transform="scale(0.015625)"/>
       <path id="DejaVuSans-29" d="M 513 4856 
L 1013 4856 
Q 1481 4119 1714 3412 
Q 1947 2706 1947 2009 
Q 1947 1309 1714 600 
Q 1481 -109 1013 -844 
L 513 -844 
Q 928 -128 1133 580 
Q 1338 1288 1338 2009 
Q 1338 2731 1133 3434 
Q 928 4138 513 4856 
z
" transform="scale(0.015625)"/>
      </defs>
      <use xlink:href="#DejaVuSans-Oblique-78" transform="translate(0 0.125)"/>
      <use xlink:href="#DejaVuSans-20" transform="translate(59.179688 0.125)"/>
      <use xlink:href="#DejaVuSans-28" transform="translate(90.966797 0.125)"/>
      <use xlink:href="#DejaVuSans-61" transform="translate(129.980469 0.125)"/>
      <use xlink:href="#DejaVuSans-2e" transform="translate(191.259766 0.125)"/>
      <use xlink:href="#DejaVuSans-75" transform="translate(223.046875 0.125)"/>
      <use xlink:href="#DejaVuSans-2e" transform="translate(286.425781 0.125)"/>
      <use xlink:href="#DejaVuSans-29" transform="translate(318.212891 0.125)"/>
     </g>
    </g>
   </g>
   <g id="matplotlib.axis_2">
    <g id="ytick_1">
     <g id="line2d_6">
      <defs>
       <path id="m954b73a182" d="M 0 0 
L -3.5 0 
" style="stroke: #000000; stroke-width: 0.8"/>
      </defs>
      <g>
       <use xlink:href="#m954b73a182" x="80.78" y="151.391635" style="stroke: #000000; stroke-width: 0.8"/>
      </g>
     </g>
     <g id="text_7">
      <!-- $\mathdefault{10^{-7}}$ -->
      <g transform="translate(26.78 158.990072) scale(0.2 -0.2)">
       <defs>
        <path id="DejaVuSans-37" d="M 525 4666 
L 3525 4666 
L 3525 4397 
L 1831 0 
L 1172 0 
L 2766 4134 
L 525 4134 
L 525 4666 
z
" transform="scale(0.015625)"/>
       </defs>
       <use xlink:href="#DejaVuSans-31" transform="translate(0 0.684375)"/>
       <use xlink:href="#DejaVuSans-30" transform="translate(63.623047 0.684375)"/>
       <use xlink:href="#DejaVuSans-2212" transform="translate(128.203125 38.965625) scale(0.7)"/>
       <use xlink:href="#DejaVuSans-37" transform="translate(186.855469 38.965625) scale(0.7)"/>
      </g>
     </g>
    </g>
    <g id="ytick_2">
     <g id="line2d_7">
      <g>
       <use xlink:href="#m954b73a182" x="80.78" y="108.51355" style="stroke: #000000; stroke-width: 0.8"/>
      </g>
     </g>
     <g id="text_8">
      <!-- $\mathdefault{10^{-4}}$ -->
      <g transform="translate(26.78 116.111987) scale(0.2 -0.2)">
       <defs>
        <path id="DejaVuSans-34" d="M 2419 4116 
L 825 1625 
L 2419 1625 
L 2419 4116 
z
M 2253 4666 
L 3047 4666 
L 3047 1625 
L 3713 1625 
L 3713 1100 
L 3047 1100 
L 3047 0 
L 2419 0 
L 2419 1100 
L 313 1100 
L 313 1709 
L 2253 4666 
z
" transform="scale(0.015625)"/>
       </defs>
       <use xlink:href="#DejaVuSans-31" transform="translate(0 0.684375)"/>
       <use xlink:href="#DejaVuSans-30" transform="translate(63.623047 0.684375)"/>
       <use xlink:href="#DejaVuSans-2212" transform="translate(128.203125 38.965625) scale(0.7)"/>
       <use xlink:href="#DejaVuSans-34" transform="translate(186.855469 38.965625) scale(0.7)"/>
      </g>
     </g>
    </g>
    <g id="ytick_3">
     <g id="line2d_8">
      <g>
       <use xlink:href="#m954b73a182" x="80.78" y="65.635465" style="stroke: #000000; stroke-width: 0.8"/>
      </g>
     </g>
     <g id="text_9">
      <!-- $\mathdefault{10^{-1}}$ -->
      <g transform="translate(26.78 73.233902) scale(0.2 -0.2)">
       <use xlink:href="#DejaVuSans-31" transform="translate(0 0.684375)"/>
       <use xlink:href="#DejaVuSans-30" transform="translate(63.623047 0.684375)"/>
       <use xlink:href="#DejaVuSans-2212" transform="translate(128.203125 38.965625) scale(0.7)"/>
       <use xlink:href="#DejaVuSans-31" transform="translate(186.855469 38.965625) scale(0.7)"/>
      </g>
     </g>
    </g>
    <g id="text_10">
     <!-- $\rho(x,t=t_f)$ -->
     <g transform="translate(18.16 152.125937) rotate(-90) scale(0.22 -0.22)">
      <defs>
       <path id="DejaVuSans-Oblique-3c1" d="M 1203 2875 
Q 1453 3194 1981 3475 
Q 2188 3584 2756 3584 
Q 3394 3584 3694 3078 
Q 3994 2572 3834 1747 
Q 3672 922 3175 415 
Q 2678 -91 2041 -91 
Q 1656 -91 1409 63 
Q 1163 213 1044 525 
L 681 -1331 
L 103 -1331 
L 697 1716 
Q 838 2438 1203 2875 
z
M 3238 1747 
Q 3359 2381 3169 2744 
Q 2978 3103 2522 3103 
Q 2066 3103 1734 2744 
Q 1403 2381 1281 1747 
Q 1156 1113 1347 750 
Q 1538 391 1994 391 
Q 2450 391 2781 750 
Q 3113 1113 3238 1747 
z
" transform="scale(0.015625)"/>
       <path id="DejaVuSans-2c" d="M 750 794 
L 1409 794 
L 1409 256 
L 897 -744 
L 494 -744 
L 750 256 
L 750 794 
z
" transform="scale(0.015625)"/>
       <path id="DejaVuSans-Oblique-74" d="M 2706 3500 
L 2619 3053 
L 1472 3053 
L 1100 1153 
Q 1081 1047 1072 975 
Q 1063 903 1063 863 
Q 1063 663 1183 572 
Q 1303 481 1569 481 
L 2150 481 
L 2053 0 
L 1503 0 
Q 991 0 739 200 
Q 488 400 488 806 
Q 488 878 497 964 
Q 506 1050 525 1153 
L 897 3053 
L 409 3053 
L 500 3500 
L 978 3500 
L 1172 4494 
L 1747 4494 
L 1556 3500 
L 2706 3500 
z
" transform="scale(0.015625)"/>
       <path id="DejaVuSans-3d" d="M 678 2906 
L 4684 2906 
L 4684 2381 
L 678 2381 
L 678 2906 
z
M 678 1631 
L 4684 1631 
L 4684 1100 
L 678 1100 
L 678 1631 
z
" transform="scale(0.015625)"/>
       <path id="DejaVuSans-Oblique-66" d="M 3059 4863 
L 2969 4384 
L 2419 4384 
Q 2106 4384 1964 4261 
Q 1822 4138 1753 3809 
L 1691 3500 
L 2638 3500 
L 2553 3053 
L 1606 3053 
L 1013 0 
L 434 0 
L 1031 3053 
L 481 3053 
L 563 3500 
L 1113 3500 
L 1159 3744 
Q 1278 4363 1576 4613 
Q 1875 4863 2516 4863 
L 3059 4863 
z
" transform="scale(0.015625)"/>
      </defs>
      <use xlink:href="#DejaVuSans-Oblique-3c1" transform="translate(0 0.125)"/>
      <use xlink:href="#DejaVuSans-28" transform="translate(63.476562 0.125)"/>
      <use xlink:href="#DejaVuSans-Oblique-78" transform="translate(102.490234 0.125)"/>
      <use xlink:href="#DejaVuSans-2c" transform="translate(161.669922 0.125)"/>
      <use xlink:href="#DejaVuSans-Oblique-74" transform="translate(212.939453 0.125)"/>
      <use xlink:href="#DejaVuSans-3d" transform="translate(271.630859 0.125)"/>
      <use xlink:href="#DejaVuSans-Oblique-74" transform="translate(374.902344 0.125)"/>
      <use xlink:href="#DejaVuSans-Oblique-66" transform="translate(414.111328 -16.28125) scale(0.7)"/>
      <use xlink:href="#DejaVuSans-29" transform="translate(441.489258 0.125)"/>
     </g>
    </g>
   </g>
   <g id="line2d_9">
    <path d="M 80.469033 155.262308 
L 82.645804 155.03932 
L 84.511607 154.64496 
L 86.377411 154.000573 
L 88.243214 153.080603 
L 90.109018 151.903351 
L 92.285789 150.273501 
L 95.706428 147.381002 
L 102.858675 141.232145 
L 106.590283 138.359717 
L 110.32189 135.757519 
L 114.053497 133.416986 
L 118.096071 131.155682 
L 122.449613 128.986199 
L 126.492187 127.205324 
L 130.534762 125.669003 
L 134.266369 124.479478 
L 137.997976 123.522355 
L 141.418616 122.864648 
L 144.839256 122.424085 
L 148.259895 122.193941 
L 151.991503 122.166487 
L 156.034077 122.377492 
L 165.985029 123.093029 
L 167.850833 122.914183 
L 169.716636 122.519216 
L 171.58244 121.897366 
L 173.759211 120.916201 
L 176.557916 119.367722 
L 188.996606 112.092101 
L 192.417246 110.475943 
L 195.837886 109.102991 
L 198.947559 108.081368 
L 202.057231 107.281649 
L 205.166904 106.701819 
L 208.587544 106.306039 
L 212.008184 106.146049 
L 215.739791 106.208877 
L 220.4043 106.538558 
L 225.690743 106.882712 
L 228.489448 106.823811 
L 230.977187 106.539944 
L 233.464925 106.016935 
L 236.574597 105.100125 
L 242.482975 103.061875 
L 245.592648 102.120205 
L 249.324255 101.249921 
L 251.811993 100.857387 
L 254.299731 100.687455 
L 257.098436 100.729764 
L 260.208109 100.996246 
L 262.695847 101.405627 
L 270.159061 102.902213 
L 272.335832 103.088214 
L 273.890668 102.994597 
L 279.488079 102.161665 
L 280.731948 101.754422 
L 282.597752 100.844579 
L 284.152588 100.15146 
L 285.08549 99.921184 
L 286.018392 99.879972 
L 287.262261 100.091729 
L 289.128064 100.511415 
L 290.060966 100.425954 
L 290.993868 100.009252 
L 292.237737 99.090513 
L 293.481606 98.176293 
L 294.414508 97.752094 
L 295.036442 97.66462 
L 295.658377 97.763039 
L 296.280311 98.064675 
L 296.902246 98.579021 
L 297.835147 99.737607 
L 300.011918 102.974792 
L 300.322886 103.168688 
L 300.633853 103.211844 
L 300.94482 103.09708 
L 301.566755 102.447838 
L 302.499656 100.879014 
L 303.743525 98.847928 
L 304.36546 98.1286 
L 304.987394 97.668968 
L 305.609329 97.488258 
L 306.231263 97.599905 
L 306.853198 98.017765 
L 307.475133 98.758928 
L 308.097067 99.843333 
L 308.719002 101.287094 
L 309.651903 104.07771 
L 310.584805 107.003552 
L 310.895772 107.673608 
L 311.20674 108.011339 
L 311.517707 107.953424 
L 311.828674 107.51755 
L 312.450609 105.891595 
L 314.005445 101.36282 
L 314.938347 99.519366 
L 315.560281 98.695264 
L 316.182216 98.165566 
L 316.80415 97.905308 
L 317.426085 97.892341 
L 318.048019 98.105914 
L 318.669954 98.523497 
L 319.602856 99.464675 
L 321.779626 101.987725 
L 322.401561 102.317587 
L 323.023496 102.310527 
L 323.64543 101.992796 
L 324.578332 101.160937 
L 326.133168 99.747841 
L 327.06607 99.247013 
L 327.688004 99.110719 
L 328.309939 99.136309 
L 329.242841 99.461615 
L 330.175743 100.078742 
L 332.663481 102.074823 
L 333.285415 102.265258 
L 333.90735 102.194322 
L 334.529284 101.865682 
L 335.462186 101.039855 
L 337.017022 99.588985 
L 337.949924 99.089662 
L 338.571859 98.995791 
L 339.193793 99.107981 
L 339.815728 99.419593 
L 340.748629 100.192262 
L 342.303466 101.629209 
L 342.9254 101.89386 
L 343.547335 101.82703 
L 344.169269 101.442281 
L 345.413138 100.170777 
L 346.34604 99.286987 
L 346.967975 98.9111 
L 347.589909 98.781859 
L 348.211844 98.955225 
L 348.833778 99.489831 
L 349.455713 100.453545 
L 350.077647 101.922396 
L 350.699582 103.946806 
L 351.632483 107.49798 
L 351.943451 108.252946 
L 352.254418 108.347431 
L 352.565385 107.652912 
L 353.18732 104.646175 
L 354.431189 97.894496 
L 357.229894 84.43319 
L 358.162796 77.882667 
L 359.406665 66.97117 
L 360.961501 52.365886 
L 361.272469 50.323035 
L 361.583436 49.183475 
L 361.894403 49.238345 
L 362.20537 50.450931 
L 362.827305 53.754709 
L 363.138272 54.31525 
L 363.449239 54.042352 
L 364.071174 52.79523 
L 364.382141 52.489545 
L 364.693108 52.697766 
L 365.004076 53.522174 
L 365.62601 56.687473 
L 366.558912 61.900802 
L 366.869879 62.158045 
L 367.180846 60.969365 
L 367.802781 55.818394 
L 368.424715 50.724906 
L 368.735683 49.268223 
L 369.04665 49.00974 
L 369.357617 50.014827 
L 369.979552 53.562327 
L 370.290519 54.372964 
L 370.601486 54.186254 
L 371.534388 52.328847 
L 371.845355 52.389701 
L 372.156323 53.08675 
L 372.46729 54.402135 
L 373.089224 58.368826 
L 374.022126 66.043224 
L 375.576962 80.951905 
L 376.820832 94.950707 
L 377.753733 105.654844 
L 378.064701 107.610923 
L 378.375668 108.160844 
L 378.686635 107.819386 
L 379.619537 106.10582 
L 380.241471 105.595802 
L 380.863406 105.553897 
L 381.48534 105.826929 
L 382.418242 106.573091 
L 384.284046 108.246917 
L 385.216948 108.756407 
L 386.149849 108.924003 
L 387.082751 108.805208 
L 388.32662 108.387949 
L 390.503391 107.379341 
L 393.613064 105.894195 
L 394.856933 105.587498 
L 396.100802 105.550195 
L 397.344671 105.751396 
L 399.521441 106.398913 
L 401.076278 106.786885 
L 402.320147 106.854795 
L 403.253049 106.698285 
L 404.496918 106.210164 
L 406.362721 105.124142 
L 408.228525 104.108619 
L 409.472394 103.661739 
L 410.716263 103.451587 
L 411.960132 103.489258 
L 413.204001 103.774125 
L 414.44787 104.292806 
L 416.002706 105.211254 
L 424.398822 110.73946 
L 425.642691 111.143351 
L 426.575593 111.193181 
L 427.508495 110.977527 
L 428.441397 110.493393 
L 429.685266 109.513211 
L 433.105906 106.462466 
L 434.349775 105.75139 
L 435.282676 105.453032 
L 436.215578 105.370557 
L 437.14848 105.504926 
L 438.081382 105.846832 
L 439.325251 106.586086 
L 441.191054 108.059878 
L 442.434923 108.953529 
L 443.367825 109.347263 
L 443.98976 109.414848 
L 444.611694 109.316541 
L 445.544596 108.904168 
L 447.4104 107.649064 
L 448.654269 106.931139 
L 449.58717 106.599737 
L 450.520072 106.488356 
L 451.452974 106.609266 
L 452.385876 106.955903 
L 453.629745 107.72056 
L 457.050385 110.201985 
L 457.983286 110.467932 
L 458.916188 110.45941 
L 460.160057 110.174239 
L 461.714893 109.807932 
L 462.647795 109.774301 
L 463.580697 109.960023 
L 464.513599 110.390204 
L 465.446501 111.050865 
L 468.245206 113.296851 
L 468.86714 113.441091 
L 469.489075 113.336265 
L 470.11101 113.000375 
L 471.043911 112.208303 
L 472.909715 110.556101 
L 473.842617 110.066155 
L 474.464551 109.93199 
L 475.086486 109.970553 
L 475.70842 110.194123 
L 476.330355 110.613712 
L 476.952289 111.239977 
L 477.885191 112.588459 
L 478.818093 114.441256 
L 480.061962 117.544784 
L 480.994864 119.754326 
L 481.616798 120.57727 
L 481.927765 120.666873 
L 482.238733 120.529487 
L 482.860667 119.696272 
L 485.659373 114.396151 
L 486.592274 113.422368 
L 487.214209 113.051951 
L 487.836143 112.900658 
L 488.458078 112.967311 
L 489.080012 113.254077 
L 489.701947 113.766831 
L 490.323881 114.514935 
L 491.256783 116.103838 
L 492.189685 118.274165 
L 494.366456 124.216863 
L 494.677423 124.651649 
L 494.98839 124.828749 
L 495.299358 124.743113 
L 495.610325 124.428618 
L 496.232259 123.357944 
L 497.476128 120.947928 
L 498.098063 120.052522 
L 498.719997 119.456865 
L 499.341932 119.173311 
L 499.963866 119.203643 
L 500.585801 119.54931 
L 501.207736 120.215132 
L 501.82967 121.209428 
L 502.451605 122.540028 
L 503.384506 125.142478 
L 504.939343 129.842591 
L 505.25031 130.349607 
L 505.561277 130.54951 
L 505.872244 130.435819 
L 506.183212 130.056941 
L 507.116113 128.142075 
L 508.049015 126.316284 
L 508.67095 125.492546 
L 509.292884 125.042912 
L 509.914819 124.981617 
L 510.536753 125.322988 
L 511.158688 126.093727 
L 511.780622 127.34068 
L 512.402557 129.136572 
L 513.024491 131.57407 
L 514.579328 139.056162 
L 514.890295 139.258513 
L 515.201262 138.484856 
L 516.134164 133.731006 
L 517.067066 129.690291 
L 517.689 127.845946 
L 518.310935 126.590992 
L 518.932869 125.856111 
L 519.554804 125.602297 
L 519.865771 125.651582 
L 520.487706 126.109857 
L 521.10964 127.081265 
L 521.731575 128.643861 
L 522.353509 130.941123 
L 522.975444 134.226615 
L 523.597378 138.888902 
L 524.219313 144.542518 
L 524.53028 145.864583 
L 524.841247 144.622699 
L 526.085116 134.733402 
L 526.707051 131.664609 
L 527.328985 129.580317 
L 527.95092 128.225069 
L 528.572854 127.450618 
L 529.194789 127.169151 
L 529.816723 127.325526 
L 530.438658 127.878094 
L 531.060592 128.778007 
L 532.926396 132.156104 
L 533.237363 132.428646 
L 533.548331 132.502035 
L 533.859298 132.367065 
L 534.481232 131.575664 
L 536.658003 127.841876 
L 537.279938 127.312194 
L 537.901872 127.134261 
L 538.523807 127.327072 
L 539.145741 127.910675 
L 539.767676 128.909777 
L 540.38961 130.347356 
L 541.322512 133.267809 
L 542.255414 136.190186 
L 542.566381 136.664207 
L 542.877348 136.669997 
L 543.188316 136.198013 
L 543.81025 134.29333 
L 545.054119 130.016203 
L 545.676054 128.432447 
L 546.297988 127.298724 
L 546.919923 126.599587 
L 547.541857 126.321525 
L 548.163792 126.464838 
L 548.785726 127.049414 
L 549.407661 128.121796 
L 550.029595 129.768408 
L 550.65153 132.142196 
L 551.273464 135.515087 
L 551.895399 140.335179 
L 552.517333 146.41627 
L 552.828301 147.963384 
L 553.139268 146.632023 
L 554.07217 138.336453 
L 554.694104 134.572773 
L 555.316039 132.0373 
L 555.937973 130.37549 
L 556.559908 129.390822 
L 557.181842 128.978628 
L 557.49281 128.970054 
L 557.803777 129.089103 
L 558.425711 129.710179 
L 559.047646 130.860166 
L 559.66958 132.582732 
L 560.291515 134.928038 
L 561.846351 141.82455 
L 562.157318 142.123718 
L 562.468286 141.655399 
L 563.09022 139.336761 
L 564.023122 135.682855 
L 564.645057 133.968257 
L 565.266991 132.864406 
L 565.888926 132.315267 
L 566.199893 132.233744 
L 566.51086 132.275247 
L 567.132795 132.716217 
L 567.754729 133.620367 
L 568.376664 134.960431 
L 570.242467 139.693158 
L 570.553434 139.900086 
L 570.864402 139.752875 
L 571.175369 139.28393 
L 571.797304 137.739939 
L 573.041173 134.409632 
L 573.663107 133.171495 
L 574.285042 132.288041 
L 574.906976 131.744781 
L 575.528911 131.518502 
L 576.150845 131.585962 
L 576.77278 131.92437 
L 577.394714 132.507187 
L 578.327616 133.745637 
L 579.882452 135.914718 
L 580.504387 136.26913 
L 580.815354 136.241235 
L 581.126321 136.070775 
L 581.748256 135.364617 
L 582.992125 133.26208 
L 583.925027 131.818081 
L 584.546961 131.10931 
L 585.168896 130.653929 
L 585.79083 130.474227 
L 586.412765 130.584405 
L 587.034699 130.993311 
L 587.656634 131.701222 
L 588.589536 133.266713 
L 589.833405 135.655954 
L 590.455339 136.326564 
L 590.766306 136.375789 
L 591.077274 136.215662 
L 591.699208 135.377014 
L 593.565012 131.943178 
L 594.186946 131.232146 
L 594.808881 130.86218 
L 595.430815 130.847351 
L 596.05275 131.190578 
L 596.674684 131.884842 
L 597.296619 132.901838 
L 599.162422 136.509252 
L 599.47339 136.786698 
L 599.784357 136.855575 
L 600.095324 136.712468 
L 600.717259 135.920826 
L 602.583062 132.850661 
L 603.204997 132.3091 
L 603.826931 132.113314 
L 604.448866 132.263148 
L 605.0708 132.739635 
L 605.692735 133.499125 
L 607.558538 136.234509 
L 608.180473 136.577491 
L 608.49144 136.544033 
L 609.113375 136.12424 
L 611.290146 133.917043 
L 611.91208 133.69574 
L 612.534015 133.740539 
L 613.155949 134.033388 
L 614.088851 134.824848 
L 615.33272 136.016837 
L 615.954654 136.377335 
L 616.576589 136.458238 
L 617.198523 136.280039 
L 619.686262 135.151345 
L 620.308196 135.17446 
L 621.241098 135.50684 
L 624.039803 136.935972 
L 624.972705 136.90443 
L 627.460443 136.460261 
L 628.393345 136.634654 
L 629.637214 137.16791 
L 631.19205 137.810719 
L 632.124952 137.937041 
L 633.679788 137.823244 
L 634.923657 137.82817 
L 635.856559 138.028491 
L 637.722363 138.751672 
L 638.966232 139.114758 
L 640.210101 139.231598 
L 642.386872 139.378661 
L 643.630741 139.70128 
L 646.740413 140.641725 
L 651.093955 141.467526 
L 654.825562 142.518184 
L 658.557169 143.434831 
L 674.105532 148.190428 
L 684.989386 152.119294 
L 690.586797 154.405241 
L 695.87324 156.719218 
L 702.092585 159.642248 
L 703.025487 160.182244 
L 703.025487 160.182244 
" clip-path="url(#p6d304495f8)" style="fill: none; stroke: #000000; stroke-width: 2.7; stroke-linecap: square"/>
   </g>
   <g id="line2d_10">
    <path d="M 335.08806 367.47976 
L 337.327989 321.860724 
L 339.50476 281.706189 
L 341.992498 238.925423 
L 342.614433 220.508424 
L 344.480236 154.233987 
L 345.413138 129.837136 
L 346.34604 112.355081 
L 346.967975 104.518883 
L 347.589909 99.635042 
L 347.900876 98.215329 
L 348.211844 97.365453 
L 349.144745 96.022317 
L 349.76668 93.924467 
L 350.388614 92.082895 
L 350.699582 91.858632 
L 351.010549 92.228203 
L 351.321516 93.193905 
L 351.943451 96.539483 
L 352.565385 99.879086 
L 352.876352 100.442144 
L 353.18732 100.031006 
L 353.809254 97.470388 
L 355.053123 91.70178 
L 355.986025 88.614692 
L 356.918927 85.810768 
L 357.540861 83.011663 
L 358.162796 78.67442 
L 359.406665 66.973576 
L 360.961501 52.252908 
L 361.272469 50.256297 
L 361.583436 49.162218 
L 361.894403 49.249428 
L 362.20537 50.46775 
L 362.827305 53.638126 
L 363.138272 54.113801 
L 363.449239 53.814095 
L 364.071174 52.638009 
L 364.382141 52.395858 
L 364.693108 52.674738 
L 365.004076 53.586215 
L 365.62601 56.981638 
L 366.247945 61.130089 
L 366.558912 62.528185 
L 366.869879 62.611687 
L 367.180846 61.133549 
L 368.735683 49.233432 
L 369.04665 49.025596 
L 369.357617 50.055435 
L 369.979552 53.49605 
L 370.290519 54.218519 
L 370.601486 53.99967 
L 371.534388 52.290865 
L 371.845355 52.407925 
L 372.156323 53.145821 
L 372.778257 56.335573 
L 373.711159 63.403598 
L 376.198897 84.120765 
L 376.820832 87.176019 
L 378.686635 93.318653 
L 379.619537 97.933643 
L 381.174373 106.229695 
L 381.48534 106.507243 
L 381.796308 105.872158 
L 382.729209 102.756333 
L 383.040177 102.383944 
L 383.351144 102.426642 
L 383.662111 102.675665 
L 383.973078 102.76461 
L 384.284046 102.364578 
L 385.216948 99.855839 
L 385.527915 99.709179 
L 385.838882 100.221094 
L 386.149849 101.451158 
L 386.460817 103.427497 
L 387.082751 109.667195 
L 387.704686 118.988026 
L 388.32662 131.402875 
L 389.259522 155.818876 
L 390.192424 186.927226 
L 391.125325 218.639263 
L 391.74726 230.766669 
L 395.1679 286.23927 
L 397.655638 330.91178 
L 399.548714 367.47976 
L 399.548714 367.47976 
" clip-path="url(#p6d304495f8)" style="fill: none; stroke-dasharray: 4.4,2.2; stroke-dashoffset: 0; stroke: #e6730d; stroke-width: 2.2"/>
   </g>
   <g id="line2d_11">
    <path d="M 191.795085 367.47976 
L 195.215952 336.286433 
L 198.636592 306.972931 
L 202.057231 279.537118 
L 205.477871 253.978995 
L 208.587544 232.373738 
L 211.697216 212.320291 
L 214.495922 195.598985 
L 217.294627 180.134646 
L 220.093332 165.927272 
L 222.581071 154.353726 
L 225.068809 143.773338 
L 227.556547 134.186108 
L 229.733318 126.611982 
L 231.910088 119.798243 
L 234.086859 113.74489 
L 235.952663 109.161508 
L 237.818466 105.136778 
L 239.68427 101.670698 
L 241.239106 99.209047 
L 242.793942 97.135348 
L 244.348779 95.449601 
L 245.592648 94.380329 
L 246.836517 93.559347 
L 248.080386 92.986654 
L 249.324255 92.662251 
L 250.568124 92.586137 
L 251.811993 92.758313 
L 253.055862 93.178779 
L 254.299731 93.847534 
L 255.5436 94.764579 
L 256.787469 95.929913 
L 258.342305 97.735738 
L 259.897142 99.929515 
L 261.451978 102.511244 
L 263.006814 105.480927 
L 264.872618 109.556642 
L 266.738421 114.191009 
L 268.604225 119.384028 
L 270.780996 126.148623 
L 272.957767 133.673605 
L 275.134537 141.958973 
L 277.622276 152.359052 
L 280.110014 163.752289 
L 282.597752 176.138684 
L 285.396457 191.260506 
L 288.195162 207.639469 
L 290.993868 225.270454 
L 293.792573 244.307653 
L 295.036442 252.353812 
L 295.969344 257.010588 
L 297.52418 264.459324 
L 297.835147 264.588322 
L 298.146115 263.115788 
L 301.255787 238.117911 
L 304.676427 215.520099 
L 307.7861 196.541718 
L 310.584805 180.789132 
L 313.38351 166.293483 
L 316.182216 153.0548 
L 318.669954 142.342312 
L 321.157692 132.622983 
L 323.334463 124.93327 
L 325.511234 118.003944 
L 327.688004 111.835004 
L 329.553808 107.152547 
L 331.419612 103.028742 
L 333.285415 99.463588 
L 334.840251 96.919374 
L 336.395088 94.763112 
L 337.949924 92.994803 
L 339.50476 91.614446 
L 340.748629 90.789486 
L 341.992498 90.212807 
L 343.236367 89.884364 
L 344.480236 89.804016 
L 345.724106 89.971535 
L 346.967975 90.386239 
L 348.211844 91.043224 
L 349.76668 92.168625 
L 352.876352 94.687115 
L 353.498287 94.924196 
L 354.120222 94.876485 
L 354.742156 94.43672 
L 355.364091 93.501637 
L 355.986025 91.918256 
L 356.60796 89.459406 
L 357.229894 85.944881 
L 358.162796 78.812259 
L 359.717632 64.107912 
L 360.961501 52.360485 
L 361.272469 50.312795 
L 361.583436 49.174632 
L 361.894403 49.234238 
L 362.20537 50.453637 
L 362.827305 53.760958 
L 363.138272 54.31177 
L 363.449239 54.028602 
L 364.071174 52.771198 
L 364.382141 52.464997 
L 364.693108 52.672798 
L 365.004076 53.498952 
L 365.62601 56.662302 
L 366.558912 61.891697 
L 366.869879 62.165675 
L 367.180846 60.996739 
L 367.802781 55.841087 
L 368.424715 50.732618 
L 368.735683 49.267965 
L 369.04665 49.005161 
L 369.357617 50.009274 
L 369.979552 53.569705 
L 370.290519 54.388007 
L 370.601486 54.198603 
L 371.534388 52.317851 
L 371.845355 52.373244 
L 372.156323 53.062995 
L 372.46729 54.366642 
L 373.089224 58.315897 
L 374.333093 68.703153 
L 376.198897 86.692221 
L 377.131799 94.81307 
L 378.064701 100.417305 
L 379.619537 108.567971 
L 380.863406 116.696239 
L 382.107275 126.462127 
L 383.662111 140.637293 
L 385.527915 160.055941 
L 387.393718 182.015483 
L 389.881456 214.644731 
L 391.74726 241.029032 
L 392.991129 262.591248 
L 393.924031 279.123145 
L 394.545965 284.299517 
L 395.478867 289.652368 
L 395.789834 290.684434 
L 396.100802 290.216191 
L 396.411769 288.258237 
L 398.277572 272.995126 
L 401.698212 249.034888 
L 404.807885 228.785417 
L 407.917558 210.087357 
L 410.716263 194.58592 
L 413.514968 180.34145 
L 416.002706 168.734929 
L 418.490444 158.121567 
L 420.978182 148.501362 
L 423.154953 140.898384 
L 425.331724 134.055792 
L 427.508495 127.973586 
L 429.374298 123.365473 
L 431.240102 119.316012 
L 433.105906 115.825202 
L 434.660742 113.342941 
L 436.215578 111.248632 
L 437.770414 109.542276 
L 439.014284 108.456517 
L 440.258153 107.619048 
L 441.502022 107.029868 
L 442.745891 106.688978 
L 443.98976 106.596377 
L 445.233629 106.752065 
L 446.477498 107.156044 
L 447.721367 107.808311 
L 448.965236 108.708869 
L 450.209105 109.857716 
L 451.763941 111.642931 
L 453.318777 113.816099 
L 454.873614 116.37722 
L 456.42845 119.326293 
L 458.294254 123.377278 
L 460.160057 127.986914 
L 462.025861 133.155202 
L 464.202632 139.890944 
L 466.379402 147.387073 
L 468.556173 155.643589 
L 471.043911 166.010693 
L 473.531649 177.370955 
L 476.019387 189.724375 
L 478.818093 204.809107 
L 481.616798 221.150805 
L 484.415503 238.749469 
L 487.525176 259.777759 
L 490.634849 282.357858 
L 493.744521 306.489767 
L 497.165161 334.827386 
L 500.585801 365.078938 
L 500.845768 367.47976 
M 507.627412 367.47976 
L 511.469655 335.064886 
L 514.890295 308.1615 
L 517.999968 285.333144 
L 521.10964 264.056598 
L 524.219313 244.331861 
L 527.018018 227.906395 
L 529.816723 212.737895 
L 532.615429 198.826361 
L 535.103167 187.515783 
L 537.590905 177.198363 
L 540.078643 167.874102 
L 542.255414 160.530074 
L 544.432185 153.946432 
L 546.608955 148.123177 
L 548.474759 143.737021 
L 550.340563 139.909517 
L 552.206366 136.640664 
L 553.761202 134.343367 
L 555.316039 132.434023 
L 556.870875 130.912632 
L 558.114744 129.974844 
L 559.358613 129.285346 
L 560.602482 128.844138 
L 561.846351 128.651219 
L 563.09022 128.70659 
L 564.334089 129.01025 
L 565.577958 129.5622 
L 566.821827 130.362439 
L 568.065696 131.410968 
L 569.309565 132.707786 
L 570.864402 134.677966 
L 572.419238 137.036099 
L 573.974074 139.782184 
L 575.839878 143.589583 
L 577.705681 147.955634 
L 579.571485 152.880336 
L 581.748256 159.331895 
L 583.925027 166.543841 
L 586.101797 174.516173 
L 588.589536 184.558496 
L 591.077274 195.593978 
L 593.565012 207.622617 
L 596.363717 222.341971 
L 599.162422 238.31829 
L 601.961128 255.551576 
L 605.0708 276.173889 
L 608.180473 298.348013 
L 611.290146 322.073946 
L 614.710785 349.964813 
L 616.749148 367.47976 
L 616.749148 367.47976 
" clip-path="url(#p6d304495f8)" style="fill: none; stroke-dasharray: 4.4,2.2; stroke-dashoffset: 0; stroke: #3693d4; stroke-width: 2.2"/>
   </g>
   <g id="line2d_12">
    <path d="M 182.30553 367.47976 
L 185.886934 335.17527 
L 189.307574 306.244736 
L 192.728214 279.192079 
L 195.837886 256.228315 
L 198.947559 234.816516 
L 202.057231 214.95668 
L 204.855937 198.409756 
L 207.654642 183.119924 
L 210.453347 169.087182 
L 212.941085 157.668969 
L 215.428824 147.244014 
L 217.916562 137.812317 
L 220.093332 130.374364 
L 222.270103 123.69687 
L 224.446874 117.779817 
L 226.312678 113.313277 
L 228.178481 109.405349 
L 230.044285 106.055958 
L 231.599121 103.691411 
L 233.153957 101.714726 
L 234.708794 100.126142 
L 235.952663 99.13516 
L 237.196532 98.39377 
L 238.440401 97.903332 
L 239.68427 97.666049 
L 240.928139 97.685185 
L 242.172008 97.965043 
L 243.415877 98.510323 
L 244.659746 99.324065 
L 245.903615 100.402706 
L 247.458451 102.08933 
L 251.501026 106.869776 
L 252.433928 107.54455 
L 253.366829 107.922031 
L 254.299731 108.033803 
L 255.5436 107.890965 
L 257.098436 107.429924 
L 258.342305 106.868879 
L 259.586174 106.087188 
L 260.830044 105.061859 
L 263.006814 102.89484 
L 265.183585 100.81418 
L 266.738421 99.655248 
L 267.982291 98.985756 
L 269.22616 98.553629 
L 270.470029 98.347305 
L 271.713898 98.339295 
L 273.268734 98.538317 
L 277.311308 99.185829 
L 278.866145 99.124093 
L 280.731948 98.783341 
L 290.993868 96.39144 
L 292.548704 96.330453 
L 293.792573 96.464764 
L 295.036442 96.81479 
L 296.280311 97.437004 
L 297.52418 98.378717 
L 298.768049 99.621829 
L 300.633853 101.537724 
L 301.255787 101.940262 
L 301.877722 102.120105 
L 302.499656 102.071061 
L 303.432558 101.689959 
L 304.676427 101.094842 
L 305.298362 100.959846 
L 305.920296 101.026099 
L 306.542231 101.35123 
L 307.164165 101.992589 
L 307.7861 103.015526 
L 308.408034 104.499928 
L 309.029969 106.535452 
L 309.962871 110.605206 
L 310.584805 113.001083 
L 310.895772 113.312353 
L 311.20674 112.731098 
L 311.828674 109.760163 
L 312.761576 104.801394 
L 313.694478 101.130883 
L 314.316412 99.391707 
L 314.938347 98.131661 
L 315.560281 97.294325 
L 316.182216 96.840703 
L 316.80415 96.744695 
L 317.426085 96.988691 
L 318.048019 97.559153 
L 318.669954 98.440769 
L 319.602856 100.280282 
L 321.468659 104.475799 
L 322.090594 105.175026 
L 322.401561 105.267076 
L 322.712528 105.194439 
L 323.334463 104.671237 
L 325.822201 101.789142 
L 326.755103 101.271564 
L 327.688004 101.103066 
L 328.620906 101.194313 
L 331.108644 101.615537 
L 332.041546 101.469407 
L 333.596382 100.914299 
L 334.840251 100.542665 
L 335.773153 100.4487 
L 337.017022 100.562158 
L 338.882826 100.80877 
L 339.815728 100.745539 
L 341.059597 100.399576 
L 342.9254 99.794104 
L 344.169269 99.684431 
L 345.102171 99.824112 
L 345.724106 100.073419 
L 346.34604 100.489304 
L 347.278942 101.433564 
L 348.522811 103.066553 
L 349.455713 104.573371 
L 350.077647 106.0495 
L 350.699582 108.378316 
L 351.321516 112.191678 
L 351.943451 117.451878 
L 352.254418 118.319777 
L 352.565385 115.958551 
L 353.498287 105.421302 
L 354.120222 100.387064 
L 355.053123 94.728047 
L 357.540861 81.508771 
L 358.473763 74.771999 
L 359.717632 63.789823 
L 360.961501 52.358738 
L 361.272469 50.327599 
L 361.583436 49.192107 
L 361.894403 49.244028 
L 362.20537 50.447003 
L 362.827305 53.727974 
L 363.138272 54.293011 
L 363.449239 54.035553 
L 364.071174 52.819699 
L 364.382141 52.526 
L 364.693108 52.743169 
L 365.004076 53.576122 
L 365.62601 56.754754 
L 366.247945 60.603704 
L 366.558912 61.948384 
L 366.869879 62.171547 
L 367.180846 60.951225 
L 367.802781 55.790875 
L 368.424715 50.714114 
L 368.735683 49.265647 
L 369.04665 49.012494 
L 369.357617 50.018937 
L 369.979552 53.550031 
L 370.290519 54.348884 
L 370.601486 54.158252 
L 371.534388 52.31935 
L 371.845355 52.388749 
L 372.156323 53.094344 
L 372.46729 54.418193 
L 373.089224 58.405715 
L 374.022126 66.130948 
L 375.576962 81.215264 
L 378.064701 107.162867 
L 378.375668 108.034123 
L 378.686635 108.173923 
L 379.30857 107.676417 
L 379.930504 107.242474 
L 380.552439 107.164897 
L 381.174373 107.394336 
L 383.351144 108.63204 
L 383.973078 108.588954 
L 384.595013 108.322044 
L 385.838882 107.455564 
L 387.704686 106.206468 
L 392.058227 103.737957 
L 392.991129 103.542867 
L 393.924031 103.620592 
L 394.856933 103.991291 
L 395.789834 104.654848 
L 396.722736 105.590509 
L 399.521441 108.744947 
L 400.143376 109.030181 
L 400.765311 109.057145 
L 401.387245 108.873945 
L 402.320147 108.364572 
L 404.18595 107.044508 
L 406.673688 105.271545 
L 407.60659 104.85045 
L 408.539492 104.649689 
L 409.472394 104.655414 
L 410.716263 104.884091 
L 417.246575 106.626468 
L 418.801412 107.255278 
L 420.045281 107.964727 
L 421.28915 108.923547 
L 422.533019 110.162198 
L 424.087855 112.062351 
L 426.264626 114.802064 
L 427.197528 115.576345 
L 427.819462 115.818784 
L 428.441397 115.811342 
L 429.063331 115.567629 
L 429.996233 114.858566 
L 431.551069 113.216368 
L 434.660742 109.867556 
L 437.459447 107.221862 
L 439.325251 105.712182 
L 440.880087 104.714204 
L 442.123956 104.138668 
L 443.367825 103.789721 
L 444.611694 103.683259 
L 445.855563 103.827762 
L 447.099432 104.226956 
L 448.343301 104.881952 
L 449.58717 105.792569 
L 450.831039 106.957666 
L 452.385876 108.766843 
L 453.940712 110.950128 
L 455.806516 113.983698 
L 458.916188 119.191942 
L 459.84909 120.401665 
L 460.781992 121.25219 
L 461.403926 121.582968 
L 462.025861 121.716847 
L 462.647795 121.660794 
L 463.26973 121.430779 
L 464.202632 120.806504 
L 465.135533 119.917217 
L 466.69037 118.054562 
L 471.043911 112.514496 
L 472.598748 110.959759 
L 474.153584 109.756461 
L 475.397453 109.064191 
L 476.641322 108.618433 
L 477.885191 108.421389 
L 479.12906 108.473718 
L 480.372929 108.775421 
L 481.616798 109.326269 
L 482.860667 110.126009 
L 484.104536 111.174429 
L 485.348405 112.471379 
L 486.903242 114.441915 
L 488.458078 116.800518 
L 490.012914 119.547138 
L 491.878718 123.355235 
L 493.744521 127.722034 
L 495.610325 132.647536 
L 497.787096 139.100094 
L 499.963866 146.313113 
L 502.140637 154.286593 
L 504.628375 164.33032 
L 507.116113 175.367304 
L 509.603852 187.397545 
L 512.402557 202.11882 
L 515.201262 218.097121 
L 517.999968 235.334676 
L 521.420607 257.970151 
L 522.664476 266.986481 
L 523.597378 275.546868 
L 524.219313 281.776253 
L 524.53028 283.159091 
L 524.841247 282.415113 
L 526.085116 275.36055 
L 527.328985 269.664394 
L 528.261887 264.030567 
L 531.682527 242.019672 
L 534.481232 225.560091 
L 537.279938 210.351772 
L 540.078643 196.400756 
L 542.566381 185.055181 
L 545.054119 174.702864 
L 547.541857 165.343803 
L 549.718628 157.969406 
L 551.895399 151.355471 
L 554.07217 145.501998 
L 555.937973 141.090002 
L 557.803777 137.236712 
L 559.66958 133.94213 
L 561.224417 131.623434 
L 562.779253 129.69273 
L 564.334089 128.150016 
L 565.577958 127.195199 
L 566.821827 126.488696 
L 568.065696 126.030507 
L 569.309565 125.820632 
L 570.553434 125.859072 
L 571.797304 126.145825 
L 573.041173 126.680893 
L 574.285042 127.464275 
L 575.528911 128.495971 
L 576.77278 129.775982 
L 578.327616 131.725187 
L 579.882452 134.062382 
L 581.437289 136.787569 
L 583.303092 140.569941 
L 585.168896 144.91102 
L 587.034699 149.810807 
L 589.21147 156.233367 
L 591.388241 163.41639 
L 593.565012 171.359875 
L 596.05275 181.369322 
L 598.540488 192.372025 
L 601.028226 204.367986 
L 603.826931 219.050694 
L 606.625637 234.990492 
L 609.424342 252.187381 
L 612.534015 272.769401 
L 615.643687 294.903385 
L 618.75336 318.589332 
L 622.174 346.436393 
L 624.617534 367.47976 
L 624.617534 367.47976 
" clip-path="url(#p6d304495f8)" style="fill: none; stroke-dasharray: 4.4,2.2; stroke-dashoffset: 0; stroke: #48bd48; stroke-width: 2.2"/>
   </g>
   <g id="line2d_13">
    <path d="M 80.469033 224.81909 
L 83.267738 210.020224 
L 86.066443 196.478243 
L 88.554181 185.496274 
L 91.04192 175.507698 
L 93.529658 166.511845 
L 95.706428 159.454179 
L 97.883199 153.156717 
L 99.749003 148.365911 
L 101.614806 144.137671 
L 103.48061 140.473199 
L 105.035446 137.849316 
L 106.590283 135.613385 
L 108.145119 133.760304 
L 109.699955 132.282049 
L 111.254791 131.166801 
L 112.498661 130.52474 
L 113.74253 130.092237 
L 114.986399 129.853354 
L 116.541235 129.79439 
L 118.407038 129.998513 
L 123.382515 130.794443 
L 124.626384 130.703079 
L 125.870253 130.38669 
L 127.114122 129.827708 
L 128.357991 129.040003 
L 130.223794 127.556701 
L 132.711532 125.548126 
L 134.266369 124.599408 
L 135.510238 124.101185 
L 136.754107 123.836864 
L 138.308943 123.772956 
L 144.217321 123.928014 
L 146.705059 123.574639 
L 150.747633 122.759179 
L 156.345044 121.587703 
L 158.210848 121.50648 
L 159.765684 121.660031 
L 161.631488 122.087571 
L 165.674062 123.156048 
L 166.917931 123.22762 
L 168.1618 123.090088 
L 169.405669 122.752446 
L 170.960505 122.11253 
L 173.448243 120.814433 
L 189.929508 111.773624 
L 193.661115 110.162677 
L 197.392722 108.785449 
L 200.813362 107.762849 
L 203.923035 107.061934 
L 207.032708 106.58277 
L 210.14238 106.328024 
L 213.56302 106.277061 
L 219.160431 106.450863 
L 224.135907 106.804828 
L 227.245579 106.961615 
L 229.42235 106.848424 
L 231.599121 106.512212 
L 234.708794 105.776767 
L 238.440401 104.664981 
L 246.836517 101.993956 
L 249.946189 101.359628 
L 252.744895 101.017418 
L 255.5436 100.907818 
L 258.653273 101.020276 
L 261.451978 101.326908 
L 264.250683 101.865935 
L 268.604225 102.726807 
L 271.713898 103.097133 
L 273.268734 103.077891 
L 275.756472 102.752638 
L 279.488079 102.127215 
L 281.042915 101.53125 
L 284.463555 99.963709 
L 285.396457 99.788078 
L 286.329359 99.806637 
L 287.573228 100.089045 
L 289.128064 100.46379 
L 289.749999 100.448435 
L 290.371933 100.277137 
L 291.304835 99.742407 
L 294.10354 97.794126 
L 294.725475 97.631791 
L 295.347409 97.642977 
L 295.969344 97.847493 
L 296.591278 98.258959 
L 297.213213 98.88226 
L 298.146115 100.181876 
L 299.700951 102.641561 
L 300.322886 103.17554 
L 300.633853 103.229258 
L 300.94482 103.125383 
L 301.566755 102.495958 
L 302.499656 100.945956 
L 303.743525 98.921187 
L 304.36546 98.200228 
L 304.987394 97.73754 
L 305.609329 97.55349 
L 306.231263 97.662509 
L 306.853198 98.079269 
L 307.475133 98.821443 
L 308.097067 99.90935 
L 308.719002 101.359388 
L 309.651903 104.165432 
L 310.584805 107.112756 
L 310.895772 107.788434 
L 311.20674 108.128483 
L 311.517707 108.068503 
L 311.828674 107.626577 
L 312.450609 105.982958 
L 314.005445 101.420466 
L 314.938347 99.570031 
L 315.560281 98.747021 
L 316.182216 98.222925 
L 316.80415 97.972152 
L 317.426085 97.971271 
L 318.048019 98.19763 
L 318.669954 98.626366 
L 319.602856 99.576082 
L 321.779626 102.071654 
L 322.401561 102.394003 
L 323.023496 102.386304 
L 323.64543 102.073515 
L 324.578332 101.251125 
L 326.133168 99.84023 
L 327.06607 99.330745 
L 327.688004 99.184673 
L 328.309939 99.197263 
L 329.242841 99.497879 
L 330.175743 100.088311 
L 332.974448 102.216011 
L 333.596382 102.303161 
L 334.218317 102.120325 
L 334.840251 101.697892 
L 337.638957 99.275777 
L 338.260891 99.074483 
L 338.882826 99.076876 
L 339.50476 99.286722 
L 340.126695 99.68959 
L 341.370564 100.884529 
L 342.303466 101.734471 
L 342.9254 102.022004 
L 343.547335 101.968509 
L 344.169269 101.584992 
L 345.102171 100.638279 
L 346.34604 99.39376 
L 346.967975 99.004781 
L 347.589909 98.860005 
L 348.211844 99.014335 
L 348.833778 99.525585 
L 349.455713 100.46045 
L 350.077647 101.892506 
L 350.699582 103.868097 
L 351.632483 107.334666 
L 351.943451 108.084647 
L 352.254418 108.20582 
L 352.565385 107.564056 
L 353.18732 104.658695 
L 354.742156 96.493273 
L 356.918927 86.292995 
L 357.851829 80.250841 
L 358.78473 72.689263 
L 361.272469 50.322851 
L 361.583436 49.183526 
L 361.894403 49.238562 
L 362.20537 50.451015 
L 362.827305 53.753808 
L 363.138272 54.314003 
L 363.449239 54.041097 
L 364.071174 52.794921 
L 364.382141 52.489717 
L 364.693108 52.698296 
L 365.004076 53.523046 
L 365.62601 56.689624 
L 366.558912 61.903433 
L 366.869879 62.159434 
L 367.180846 60.969115 
L 367.802781 55.816959 
L 368.424715 50.724266 
L 368.735683 49.267984 
L 369.04665 49.009893 
L 369.357617 50.01512 
L 369.979552 53.561915 
L 370.290519 54.371747 
L 370.601486 54.184474 
L 371.534388 52.327246 
L 371.845355 52.388363 
L 372.156323 53.085548 
L 372.46729 54.401116 
L 373.089224 58.368306 
L 374.022126 66.044457 
L 375.576962 80.955 
L 376.820832 94.91796 
L 377.753733 105.427407 
L 378.064701 107.311001 
L 378.375668 107.852674 
L 378.686635 107.549711 
L 379.619537 105.960605 
L 380.241471 105.503949 
L 380.863406 105.50798 
L 381.48534 105.827528 
L 382.418242 106.64844 
L 384.284046 108.453507 
L 385.216948 108.99732 
L 386.149849 109.183771 
L 387.082751 109.083156 
L 388.32662 108.699752 
L 390.192424 107.885013 
L 394.545965 105.784949 
L 395.789834 105.582109 
L 397.033703 105.633117 
L 398.58854 105.959795 
L 401.698212 106.727118 
L 402.631114 106.732091 
L 403.564016 106.543701 
L 404.807885 106.012941 
L 409.161427 103.758373 
L 410.405296 103.491632 
L 411.649165 103.473447 
L 412.893034 103.706369 
L 414.136903 104.177203 
L 415.691739 105.045499 
L 418.179477 106.775706 
L 420.978182 108.640019 
L 423.154953 109.857574 
L 424.70979 110.518201 
L 425.953659 110.809852 
L 426.88656 110.825259 
L 427.819462 110.624611 
L 428.752364 110.192334 
L 429.996233 109.301425 
L 433.72784 106.289526 
L 434.660742 105.863935 
L 435.593644 105.648869 
L 436.526545 105.649992 
L 437.459447 105.860531 
L 438.392349 106.263642 
L 439.636218 107.049688 
L 442.745891 109.242153 
L 443.678792 109.47749 
L 444.300727 109.42715 
L 445.233629 109.061841 
L 446.477498 108.234693 
L 448.343301 106.985849 
L 449.276203 106.580366 
L 450.209105 106.385225 
L 451.142007 106.414494 
L 452.074908 106.664992 
L 453.00781 107.118575 
L 454.251679 107.973868 
L 457.050385 110.030074 
L 457.983286 110.376811 
L 458.916188 110.452489 
L 460.160057 110.240868 
L 462.025861 109.825544 
L 462.958763 109.797889 
L 463.891664 109.969195 
L 464.824566 110.355027 
L 466.068435 111.156161 
L 467.934239 112.481763 
L 468.86714 112.816301 
L 469.489075 112.805907 
L 470.11101 112.602597 
L 471.043911 112.023334 
L 473.220682 110.484981 
L 474.153584 110.154674 
L 474.775518 110.119455 
L 475.397453 110.252505 
L 476.019387 110.567526 
L 476.641322 111.076596 
L 477.574224 112.227624 
L 478.507126 113.865123 
L 479.440027 115.962995 
L 480.994864 119.693659 
L 481.616798 120.542623 
L 481.927765 120.665245 
L 482.238733 120.568977 
L 482.5497 120.273129 
L 483.171634 119.248592 
L 485.348405 114.994795 
L 486.281307 113.807035 
L 486.903242 113.293925 
L 487.525176 113.003613 
L 488.147111 112.935935 
L 488.769045 113.093337 
L 489.39098 113.481814 
L 490.012914 114.111273 
L 490.634849 114.995324 
L 491.56775 116.833104 
L 492.500652 119.30792 
L 494.366456 124.832976 
L 494.677423 125.291581 
L 494.98839 125.445826 
L 495.299358 125.292034 
L 495.921292 124.279414 
L 497.787096 120.272358 
L 498.40903 119.416559 
L 499.030965 118.883234 
L 499.652899 118.669633 
L 500.274834 118.771555 
L 500.896768 119.188401 
L 501.518703 119.92392 
L 502.140637 120.983601 
L 503.073539 123.171391 
L 504.939343 128.318629 
L 505.25031 128.765828 
L 505.561277 128.935851 
L 505.872244 128.823688 
L 506.183212 128.470566 
L 506.805146 127.327045 
L 508.049015 124.937977 
L 508.67095 124.151584 
L 509.292884 123.730515 
L 509.914819 123.693469 
L 510.536753 124.056812 
L 511.158688 124.84744 
L 511.780622 126.111068 
L 512.402557 127.918731 
L 513.024491 130.363872 
L 513.957393 135.239993 
L 514.579328 138.171915 
L 514.890295 138.598568 
L 515.201262 138.017406 
L 515.823197 135.065437 
L 516.756099 130.533568 
L 517.378033 128.353178 
L 517.999968 126.816315 
L 518.621902 125.838154 
L 519.243837 125.360934 
L 519.554804 125.300359 
L 519.865771 125.356691 
L 520.487706 125.824547 
L 521.10964 126.790028 
L 521.731575 128.306199 
L 522.353509 130.449247 
L 523.286411 134.881732 
L 523.908345 137.866447 
L 524.219313 138.613575 
L 524.53028 138.452463 
L 524.841247 137.461289 
L 526.707051 129.194628 
L 527.328985 127.552923 
L 527.95092 126.465569 
L 528.572854 125.861485 
L 529.194789 125.691123 
L 529.816723 125.920965 
L 530.438658 126.524775 
L 531.060592 127.470047 
L 531.993494 129.369437 
L 532.926396 131.276778 
L 533.548331 131.975059 
L 533.859298 132.029417 
L 534.170265 131.8808 
L 534.7922 131.113275 
L 536.347036 128.605691 
L 536.96897 127.979328 
L 537.590905 127.705458 
L 538.212839 127.817984 
L 538.834774 128.346207 
L 539.456708 129.327007 
L 540.078643 130.80985 
L 540.700578 132.848385 
L 541.633479 136.868123 
L 542.255414 139.393822 
L 542.566381 140.016217 
L 542.877348 139.929464 
L 543.188316 139.176659 
L 545.365086 131.171749 
L 545.987021 129.960255 
L 546.608955 129.273902 
L 547.23089 129.08424 
L 547.541857 129.1737 
L 548.163792 129.733858 
L 548.785726 130.847575 
L 549.407661 132.619729 
L 550.029595 135.255954 
L 550.65153 139.180643 
L 551.273464 145.374676 
L 551.895399 154.913231 
L 552.206366 155.243202 
L 553.139268 142.477298 
L 553.761202 137.726314 
L 554.383137 134.686745 
L 555.005071 132.703581 
L 555.627006 131.478706 
L 556.248941 130.863993 
L 556.559908 130.760929 
L 556.870875 130.787527 
L 557.181842 130.942134 
L 557.803777 131.640719 
L 558.425711 132.893097 
L 559.047646 134.786411 
L 559.66958 137.484836 
L 560.291515 141.267293 
L 561.535384 150.56108 
L 561.846351 149.807251 
L 563.401188 138.436651 
L 564.023122 135.649733 
L 564.645057 133.642262 
L 565.266991 132.221623 
L 565.888926 131.278733 
L 566.51086 130.756148 
L 567.132795 130.630214 
L 567.754729 130.901062 
L 568.376664 131.585591 
L 568.998598 132.707843 
L 569.620533 134.273465 
L 571.175369 138.711001 
L 571.486336 138.978508 
L 571.797304 138.790044 
L 572.108271 138.181414 
L 573.041173 135.140921 
L 573.974074 132.312625 
L 574.596009 130.995041 
L 575.217943 130.162201 
L 575.839878 129.796868 
L 576.461812 129.880605 
L 577.083747 130.398459 
L 577.705681 131.331581 
L 578.638583 133.390794 
L 579.882452 136.257899 
L 580.19342 136.630311 
L 580.504387 136.752525 
L 580.815354 136.62112 
L 581.437289 135.781717 
L 582.992125 133.146502 
L 583.614059 132.574252 
L 584.235994 132.37171 
L 584.857928 132.510946 
L 585.479863 132.928132 
L 587.967601 135.107496 
L 588.900503 135.355547 
L 590.144372 135.388656 
L 591.077274 135.198722 
L 591.699208 134.817603 
L 592.321143 134.162302 
L 593.565012 132.314753 
L 594.497914 131.019199 
L 595.119848 130.418511 
L 595.741783 130.099896 
L 596.363717 130.087078 
L 596.985652 130.374747 
L 597.607586 130.920959 
L 599.162422 132.552507 
L 599.47339 132.695368 
L 599.784357 132.707542 
L 600.095324 132.578739 
L 600.717259 131.944214 
L 602.89403 128.968563 
L 603.515964 128.667877 
L 604.137899 128.766451 
L 604.759833 129.29816 
L 605.381768 130.280757 
L 606.003702 131.697864 
L 607.558538 135.825164 
L 607.869506 136.232059 
L 608.180473 136.329737 
L 608.49144 136.127647 
L 609.113375 135.126228 
L 610.046277 133.423938 
L 610.668211 132.743853 
L 610.979178 132.599138 
L 611.290146 132.593411 
L 611.601113 132.729312 
L 612.223047 133.426901 
L 612.844982 134.669374 
L 613.777884 137.281478 
L 614.399818 138.961519 
L 614.710785 139.523285 
L 615.021753 139.7903 
L 615.33272 139.745245 
L 615.643687 139.438082 
L 617.509491 136.641414 
L 618.131425 136.320808 
L 618.75336 136.34487 
L 620.619163 136.932645 
L 621.241098 136.781389 
L 622.174 136.201281 
L 623.417869 135.414784 
L 624.35077 135.136792 
L 625.283672 135.111373 
L 629.637214 135.547489 
L 631.19205 136.00769 
L 634.301723 137.269994 
L 637.100428 138.629726 
L 639.588166 140.076738 
L 641.764937 141.592215 
L 643.941708 143.374877 
L 654.514595 152.77787 
L 656.069431 154.570276 
L 657.624267 156.725205 
L 659.179104 159.299158 
L 660.73394 162.327269 
L 662.288776 165.829691 
L 664.15458 170.672228 
L 666.020383 176.215877 
L 667.886187 182.45387 
L 670.062958 190.587488 
L 672.239729 199.605286 
L 674.727467 210.929127 
L 677.215205 223.262616 
L 680.01391 238.270862 
L 682.812615 254.45561 
L 685.611321 271.849025 
L 688.720993 292.64987 
L 691.830666 315.03069 
L 694.940338 338.978643 
L 698.404615 367.47976 
L 698.404615 367.47976 
" clip-path="url(#p6d304495f8)" style="fill: none; stroke-dasharray: 4.4,2.2; stroke-dashoffset: 0; stroke: #fc5151; stroke-width: 2.2"/>
   </g>
   <g id="patch_3">
    <path d="M 80.78 151.391635 
L 80.78 47.04024 
" style="fill: none; stroke: #000000; stroke-width: 0.8; stroke-linejoin: miter; stroke-linecap: square"/>
   </g>
   <g id="patch_4">
    <path d="M 702.71452 151.391635 
L 702.71452 47.04024 
" style="fill: none; stroke: #000000; stroke-width: 0.8; stroke-linejoin: miter; stroke-linecap: square"/>
   </g>
   <g id="patch_5">
    <path d="M 80.78 151.391635 
L 702.71452 151.391635 
" style="fill: none; stroke: #000000; stroke-width: 0.8; stroke-linejoin: miter; stroke-linecap: square"/>
   </g>
   <g id="patch_6">
    <path d="M 80.78 47.04024 
L 702.71452 47.04024 
" style="fill: none; stroke: #000000; stroke-width: 0.8; stroke-linejoin: miter; stroke-linecap: square"/>
   </g>
  </g>
  <g id="axes_2">
   <g id="patch_7">
    <path d="M 80.78 313.391635 
L 702.71452 313.391635 
L 702.71452 209.04024 
L 80.78 209.04024 
z
" style="fill: #ffffff"/>
   </g>
   <g id="matplotlib.axis_3">
    <g id="xtick_6">
     <g id="line2d_14">
      <g>
       <use xlink:href="#m1883cea6ec" x="175.651367" y="313.391635" style="stroke: #000000; stroke-width: 0.8"/>
      </g>
     </g>
     <g id="text_11">
      <!-- 10 -->
      <g transform="translate(162.926367 335.58851) scale(0.2 -0.2)">
       <use xlink:href="#DejaVuSans-31"/>
       <use xlink:href="#DejaVuSans-30" x="63.623047"/>
      </g>
     </g>
    </g>
    <g id="xtick_7">
     <g id="line2d_15">
      <g>
       <use xlink:href="#m1883cea6ec" x="281.063998" y="313.391635" style="stroke: #000000; stroke-width: 0.8"/>
      </g>
     </g>
     <g id="text_12">
      <!-- 20 -->
      <g transform="translate(268.338998 335.58851) scale(0.2 -0.2)">
       <use xlink:href="#DejaVuSans-32"/>
       <use xlink:href="#DejaVuSans-30" x="63.623047"/>
      </g>
     </g>
    </g>
    <g id="xtick_8">
     <g id="line2d_16">
      <g>
       <use xlink:href="#m1883cea6ec" x="386.476628" y="313.391635" style="stroke: #000000; stroke-width: 0.8"/>
      </g>
     </g>
     <g id="text_13">
      <!-- 30 -->
      <g transform="translate(373.751628 335.58851) scale(0.2 -0.2)">
       <defs>
        <path id="DejaVuSans-33" d="M 2597 2516 
Q 3050 2419 3304 2112 
Q 3559 1806 3559 1356 
Q 3559 666 3084 287 
Q 2609 -91 1734 -91 
Q 1441 -91 1130 -33 
Q 819 25 488 141 
L 488 750 
Q 750 597 1062 519 
Q 1375 441 1716 441 
Q 2309 441 2620 675 
Q 2931 909 2931 1356 
Q 2931 1769 2642 2001 
Q 2353 2234 1838 2234 
L 1294 2234 
L 1294 2753 
L 1863 2753 
Q 2328 2753 2575 2939 
Q 2822 3125 2822 3475 
Q 2822 3834 2567 4026 
Q 2313 4219 1838 4219 
Q 1578 4219 1281 4162 
Q 984 4106 628 3988 
L 628 4550 
Q 988 4650 1302 4700 
Q 1616 4750 1894 4750 
Q 2613 4750 3031 4423 
Q 3450 4097 3450 3541 
Q 3450 3153 3228 2886 
Q 3006 2619 2597 2516 
z
" transform="scale(0.015625)"/>
       </defs>
       <use xlink:href="#DejaVuSans-33"/>
       <use xlink:href="#DejaVuSans-30" x="63.623047"/>
      </g>
     </g>
    </g>
    <g id="xtick_9">
     <g id="line2d_17">
      <g>
       <use xlink:href="#m1883cea6ec" x="491.889259" y="313.391635" style="stroke: #000000; stroke-width: 0.8"/>
      </g>
     </g>
     <g id="text_14">
      <!-- 40 -->
      <g transform="translate(479.164259 335.58851) scale(0.2 -0.2)">
       <use xlink:href="#DejaVuSans-34"/>
       <use xlink:href="#DejaVuSans-30" x="63.623047"/>
      </g>
     </g>
    </g>
    <g id="xtick_10">
     <g id="line2d_18">
      <g>
       <use xlink:href="#m1883cea6ec" x="597.301889" y="313.391635" style="stroke: #000000; stroke-width: 0.8"/>
      </g>
     </g>
     <g id="text_15">
      <!-- 50 -->
      <g transform="translate(584.576889 335.58851) scale(0.2 -0.2)">
       <defs>
        <path id="DejaVuSans-35" d="M 691 4666 
L 3169 4666 
L 3169 4134 
L 1269 4134 
L 1269 2991 
Q 1406 3038 1543 3061 
Q 1681 3084 1819 3084 
Q 2600 3084 3056 2656 
Q 3513 2228 3513 1497 
Q 3513 744 3044 326 
Q 2575 -91 1722 -91 
Q 1428 -91 1123 -41 
Q 819 9 494 109 
L 494 744 
Q 775 591 1075 516 
Q 1375 441 1709 441 
Q 2250 441 2565 725 
Q 2881 1009 2881 1497 
Q 2881 1984 2565 2268 
Q 2250 2553 1709 2553 
Q 1456 2553 1204 2497 
Q 953 2441 691 2322 
L 691 4666 
z
" transform="scale(0.015625)"/>
       </defs>
       <use xlink:href="#DejaVuSans-35"/>
       <use xlink:href="#DejaVuSans-30" x="63.623047"/>
      </g>
     </g>
    </g>
    <g id="xtick_11">
     <g id="line2d_19">
      <g>
       <use xlink:href="#m1883cea6ec" x="702.71452" y="313.391635" style="stroke: #000000; stroke-width: 0.8"/>
      </g>
     </g>
     <g id="text_16">
      <!-- 60 -->
      <g transform="translate(689.98952 335.58851) scale(0.2 -0.2)">
       <defs>
        <path id="DejaVuSans-36" d="M 2113 2584 
Q 1688 2584 1439 2293 
Q 1191 2003 1191 1497 
Q 1191 994 1439 701 
Q 1688 409 2113 409 
Q 2538 409 2786 701 
Q 3034 994 3034 1497 
Q 3034 2003 2786 2293 
Q 2538 2584 2113 2584 
z
M 3366 4563 
L 3366 3988 
Q 3128 4100 2886 4159 
Q 2644 4219 2406 4219 
Q 1781 4219 1451 3797 
Q 1122 3375 1075 2522 
Q 1259 2794 1537 2939 
Q 1816 3084 2150 3084 
Q 2853 3084 3261 2657 
Q 3669 2231 3669 1497 
Q 3669 778 3244 343 
Q 2819 -91 2113 -91 
Q 1303 -91 875 529 
Q 447 1150 447 2328 
Q 447 3434 972 4092 
Q 1497 4750 2381 4750 
Q 2619 4750 2861 4703 
Q 3103 4656 3366 4563 
z
" transform="scale(0.015625)"/>
       </defs>
       <use xlink:href="#DejaVuSans-36"/>
       <use xlink:href="#DejaVuSans-30" x="63.623047"/>
      </g>
     </g>
    </g>
    <g id="text_17">
     <!-- Harmonic order -->
     <g transform="translate(306.053822 360.464447) scale(0.22 -0.22)">
      <defs>
       <path id="DejaVuSans-48" d="M 628 4666 
L 1259 4666 
L 1259 2753 
L 3553 2753 
L 3553 4666 
L 4184 4666 
L 4184 0 
L 3553 0 
L 3553 2222 
L 1259 2222 
L 1259 0 
L 628 0 
L 628 4666 
z
" transform="scale(0.015625)"/>
       <path id="DejaVuSans-72" d="M 2631 2963 
Q 2534 3019 2420 3045 
Q 2306 3072 2169 3072 
Q 1681 3072 1420 2755 
Q 1159 2438 1159 1844 
L 1159 0 
L 581 0 
L 581 3500 
L 1159 3500 
L 1159 2956 
Q 1341 3275 1631 3429 
Q 1922 3584 2338 3584 
Q 2397 3584 2469 3576 
Q 2541 3569 2628 3553 
L 2631 2963 
z
" transform="scale(0.015625)"/>
       <path id="DejaVuSans-6d" d="M 3328 2828 
Q 3544 3216 3844 3400 
Q 4144 3584 4550 3584 
Q 5097 3584 5394 3201 
Q 5691 2819 5691 2113 
L 5691 0 
L 5113 0 
L 5113 2094 
Q 5113 2597 4934 2840 
Q 4756 3084 4391 3084 
Q 3944 3084 3684 2787 
Q 3425 2491 3425 1978 
L 3425 0 
L 2847 0 
L 2847 2094 
Q 2847 2600 2669 2842 
Q 2491 3084 2119 3084 
Q 1678 3084 1418 2786 
Q 1159 2488 1159 1978 
L 1159 0 
L 581 0 
L 581 3500 
L 1159 3500 
L 1159 2956 
Q 1356 3278 1631 3431 
Q 1906 3584 2284 3584 
Q 2666 3584 2933 3390 
Q 3200 3197 3328 2828 
z
" transform="scale(0.015625)"/>
       <path id="DejaVuSans-6f" d="M 1959 3097 
Q 1497 3097 1228 2736 
Q 959 2375 959 1747 
Q 959 1119 1226 758 
Q 1494 397 1959 397 
Q 2419 397 2687 759 
Q 2956 1122 2956 1747 
Q 2956 2369 2687 2733 
Q 2419 3097 1959 3097 
z
M 1959 3584 
Q 2709 3584 3137 3096 
Q 3566 2609 3566 1747 
Q 3566 888 3137 398 
Q 2709 -91 1959 -91 
Q 1206 -91 779 398 
Q 353 888 353 1747 
Q 353 2609 779 3096 
Q 1206 3584 1959 3584 
z
" transform="scale(0.015625)"/>
       <path id="DejaVuSans-6e" d="M 3513 2113 
L 3513 0 
L 2938 0 
L 2938 2094 
Q 2938 2591 2744 2837 
Q 2550 3084 2163 3084 
Q 1697 3084 1428 2787 
Q 1159 2491 1159 1978 
L 1159 0 
L 581 0 
L 581 3500 
L 1159 3500 
L 1159 2956 
Q 1366 3272 1645 3428 
Q 1925 3584 2291 3584 
Q 2894 3584 3203 3211 
Q 3513 2838 3513 2113 
z
" transform="scale(0.015625)"/>
       <path id="DejaVuSans-69" d="M 603 3500 
L 1178 3500 
L 1178 0 
L 603 0 
L 603 3500 
z
M 603 4863 
L 1178 4863 
L 1178 4134 
L 603 4134 
L 603 4863 
z
" transform="scale(0.015625)"/>
       <path id="DejaVuSans-63" d="M 3122 3366 
L 3122 2828 
Q 2878 2963 2633 3030 
Q 2388 3097 2138 3097 
Q 1578 3097 1268 2742 
Q 959 2388 959 1747 
Q 959 1106 1268 751 
Q 1578 397 2138 397 
Q 2388 397 2633 464 
Q 2878 531 3122 666 
L 3122 134 
Q 2881 22 2623 -34 
Q 2366 -91 2075 -91 
Q 1284 -91 818 406 
Q 353 903 353 1747 
Q 353 2603 823 3093 
Q 1294 3584 2113 3584 
Q 2378 3584 2631 3529 
Q 2884 3475 3122 3366 
z
" transform="scale(0.015625)"/>
       <path id="DejaVuSans-64" d="M 2906 2969 
L 2906 4863 
L 3481 4863 
L 3481 0 
L 2906 0 
L 2906 525 
Q 2725 213 2448 61 
Q 2172 -91 1784 -91 
Q 1150 -91 751 415 
Q 353 922 353 1747 
Q 353 2572 751 3078 
Q 1150 3584 1784 3584 
Q 2172 3584 2448 3432 
Q 2725 3281 2906 2969 
z
M 947 1747 
Q 947 1113 1208 752 
Q 1469 391 1925 391 
Q 2381 391 2643 752 
Q 2906 1113 2906 1747 
Q 2906 2381 2643 2742 
Q 2381 3103 1925 3103 
Q 1469 3103 1208 2742 
Q 947 2381 947 1747 
z
" transform="scale(0.015625)"/>
       <path id="DejaVuSans-65" d="M 3597 1894 
L 3597 1613 
L 953 1613 
Q 991 1019 1311 708 
Q 1631 397 2203 397 
Q 2534 397 2845 478 
Q 3156 559 3463 722 
L 3463 178 
Q 3153 47 2828 -22 
Q 2503 -91 2169 -91 
Q 1331 -91 842 396 
Q 353 884 353 1716 
Q 353 2575 817 3079 
Q 1281 3584 2069 3584 
Q 2775 3584 3186 3129 
Q 3597 2675 3597 1894 
z
M 3022 2063 
Q 3016 2534 2758 2815 
Q 2500 3097 2075 3097 
Q 1594 3097 1305 2825 
Q 1016 2553 972 2059 
L 3022 2063 
z
" transform="scale(0.015625)"/>
      </defs>
      <use xlink:href="#DejaVuSans-48"/>
      <use xlink:href="#DejaVuSans-61" x="75.195312"/>
      <use xlink:href="#DejaVuSans-72" x="136.474609"/>
      <use xlink:href="#DejaVuSans-6d" x="175.837891"/>
      <use xlink:href="#DejaVuSans-6f" x="273.25"/>
      <use xlink:href="#DejaVuSans-6e" x="334.431641"/>
      <use xlink:href="#DejaVuSans-69" x="397.810547"/>
      <use xlink:href="#DejaVuSans-63" x="425.59375"/>
      <use xlink:href="#DejaVuSans-20" x="480.574219"/>
      <use xlink:href="#DejaVuSans-6f" x="512.361328"/>
      <use xlink:href="#DejaVuSans-72" x="573.542969"/>
      <use xlink:href="#DejaVuSans-64" x="612.90625"/>
      <use xlink:href="#DejaVuSans-65" x="676.382812"/>
      <use xlink:href="#DejaVuSans-72" x="737.90625"/>
     </g>
    </g>
   </g>
   <g id="matplotlib.axis_4">
    <g id="ytick_4">
     <g id="line2d_20">
      <g>
       <use xlink:href="#m954b73a182" x="80.78" y="305.976892" style="stroke: #000000; stroke-width: 0.8"/>
      </g>
     </g>
     <g id="text_18">
      <!-- $\mathdefault{10^{-4}}$ -->
      <g transform="translate(26.78 313.57533) scale(0.2 -0.2)">
       <use xlink:href="#DejaVuSans-31" transform="translate(0 0.684375)"/>
       <use xlink:href="#DejaVuSans-30" transform="translate(63.623047 0.684375)"/>
       <use xlink:href="#DejaVuSans-2212" transform="translate(128.203125 38.965625) scale(0.7)"/>
       <use xlink:href="#DejaVuSans-34" transform="translate(186.855469 38.965625) scale(0.7)"/>
      </g>
     </g>
    </g>
    <g id="ytick_5">
     <g id="line2d_21">
      <g>
       <use xlink:href="#m954b73a182" x="80.78" y="269.204312" style="stroke: #000000; stroke-width: 0.8"/>
      </g>
     </g>
     <g id="text_19">
      <!-- $\mathdefault{10^{0}}$ -->
      <g transform="translate(38.58 276.802749) scale(0.2 -0.2)">
       <use xlink:href="#DejaVuSans-31" transform="translate(0 0.765625)"/>
       <use xlink:href="#DejaVuSans-30" transform="translate(63.623047 0.765625)"/>
       <use xlink:href="#DejaVuSans-30" transform="translate(128.203125 39.046875) scale(0.7)"/>
      </g>
     </g>
    </g>
    <g id="ytick_6">
     <g id="line2d_22">
      <g>
       <use xlink:href="#m954b73a182" x="80.78" y="232.431731" style="stroke: #000000; stroke-width: 0.8"/>
      </g>
     </g>
     <g id="text_20">
      <!-- $\mathdefault{10^{4}}$ -->
      <g transform="translate(38.58 240.030169) scale(0.2 -0.2)">
       <use xlink:href="#DejaVuSans-31" transform="translate(0 0.684375)"/>
       <use xlink:href="#DejaVuSans-30" transform="translate(63.623047 0.684375)"/>
       <use xlink:href="#DejaVuSans-34" transform="translate(128.203125 38.965625) scale(0.7)"/>
      </g>
     </g>
    </g>
    <g id="text_21">
     <!-- Intensity -->
     <g transform="translate(18.204687 309.093437) rotate(-90) scale(0.22 -0.22)">
      <defs>
       <path id="DejaVuSans-49" d="M 628 4666 
L 1259 4666 
L 1259 0 
L 628 0 
L 628 4666 
z
" transform="scale(0.015625)"/>
       <path id="DejaVuSans-74" d="M 1172 4494 
L 1172 3500 
L 2356 3500 
L 2356 3053 
L 1172 3053 
L 1172 1153 
Q 1172 725 1289 603 
Q 1406 481 1766 481 
L 2356 481 
L 2356 0 
L 1766 0 
Q 1100 0 847 248 
Q 594 497 594 1153 
L 594 3053 
L 172 3053 
L 172 3500 
L 594 3500 
L 594 4494 
L 1172 4494 
z
" transform="scale(0.015625)"/>
       <path id="DejaVuSans-73" d="M 2834 3397 
L 2834 2853 
Q 2591 2978 2328 3040 
Q 2066 3103 1784 3103 
Q 1356 3103 1142 2972 
Q 928 2841 928 2578 
Q 928 2378 1081 2264 
Q 1234 2150 1697 2047 
L 1894 2003 
Q 2506 1872 2764 1633 
Q 3022 1394 3022 966 
Q 3022 478 2636 193 
Q 2250 -91 1575 -91 
Q 1294 -91 989 -36 
Q 684 19 347 128 
L 347 722 
Q 666 556 975 473 
Q 1284 391 1588 391 
Q 1994 391 2212 530 
Q 2431 669 2431 922 
Q 2431 1156 2273 1281 
Q 2116 1406 1581 1522 
L 1381 1569 
Q 847 1681 609 1914 
Q 372 2147 372 2553 
Q 372 3047 722 3315 
Q 1072 3584 1716 3584 
Q 2034 3584 2315 3537 
Q 2597 3491 2834 3397 
z
" transform="scale(0.015625)"/>
       <path id="DejaVuSans-79" d="M 2059 -325 
Q 1816 -950 1584 -1140 
Q 1353 -1331 966 -1331 
L 506 -1331 
L 506 -850 
L 844 -850 
Q 1081 -850 1212 -737 
Q 1344 -625 1503 -206 
L 1606 56 
L 191 3500 
L 800 3500 
L 1894 763 
L 2988 3500 
L 3597 3500 
L 2059 -325 
z
" transform="scale(0.015625)"/>
      </defs>
      <use xlink:href="#DejaVuSans-49"/>
      <use xlink:href="#DejaVuSans-6e" x="29.492188"/>
      <use xlink:href="#DejaVuSans-74" x="92.871094"/>
      <use xlink:href="#DejaVuSans-65" x="132.080078"/>
      <use xlink:href="#DejaVuSans-6e" x="193.603516"/>
      <use xlink:href="#DejaVuSans-73" x="256.982422"/>
      <use xlink:href="#DejaVuSans-69" x="309.082031"/>
      <use xlink:href="#DejaVuSans-74" x="336.865234"/>
      <use xlink:href="#DejaVuSans-79" x="376.074219"/>
     </g>
    </g>
   </g>
   <g id="line2d_23">
    <path d="M 80.779346 209.04024 
L 84.292883 209.892445 
L 87.806419 219.397003 
L 91.319956 223.065122 
L 94.833492 222.669388 
L 98.347028 223.739621 
L 101.860565 221.940067 
L 105.374101 223.587485 
L 108.887638 227.645999 
L 112.401174 227.351563 
L 115.914711 228.149445 
L 119.428247 227.940424 
L 122.941783 225.65916 
L 126.45532 226.508265 
L 129.968856 229.187731 
L 133.482393 227.269698 
L 136.995929 227.687717 
L 140.509466 226.690321 
L 144.023002 223.094552 
L 147.536539 225.67397 
L 151.050075 229.990808 
L 154.563611 227.238906 
L 158.077148 228.749828 
L 161.590684 231.286089 
L 165.104221 230.369819 
L 168.617757 233.17043 
L 172.131294 237.069264 
L 175.64483 234.781862 
L 179.158366 236.942734 
L 182.671903 237.657509 
L 186.185439 234.630314 
L 189.698976 232.886221 
L 193.212512 234.72144 
L 196.726049 233.630473 
L 200.239585 235.49969 
L 203.753121 235.147431 
L 207.266658 234.645914 
L 210.780194 237.31685 
L 214.293731 238.424954 
L 217.807267 235.388137 
L 221.320804 237.400555 
L 224.83434 235.462507 
L 228.347877 236.836189 
L 231.861413 249.64165 
L 235.374949 240.664795 
L 238.888486 243.161956 
L 242.402022 241.474841 
L 245.915559 242.097203 
L 249.429095 254.757792 
L 252.942632 245.219003 
L 256.456168 245.924779 
L 259.969704 250.218794 
L 263.483241 245.095349 
L 266.996777 243.043375 
L 270.510314 243.075157 
L 274.02385 245.493921 
L 277.537387 249.431191 
L 284.56446 246.073218 
L 288.077996 246.739206 
L 291.591532 250.119577 
L 295.105069 258.546294 
L 298.618605 255.449197 
L 302.132142 249.369146 
L 305.645678 246.935502 
L 309.159215 246.580531 
L 312.672751 248.78593 
L 316.186287 253.243674 
L 319.699824 253.870929 
L 323.21336 249.122181 
L 326.726897 246.428836 
L 330.240433 246.964738 
L 333.75397 249.281979 
L 337.267506 250.736976 
L 340.781042 252.713963 
L 344.294579 257.430184 
L 347.808115 267.614876 
L 351.321652 270.018987 
L 354.835188 271.063761 
L 358.348725 273.479108 
L 361.862261 269.41875 
L 365.375798 269.775301 
L 368.889334 268.699519 
L 372.40287 266.19505 
L 375.916407 267.829839 
L 379.429943 268.44419 
L 382.94348 267.948059 
L 386.457016 269.070079 
L 389.970553 272.247081 
L 393.484089 275.885224 
L 396.997625 276.098904 
L 400.511162 275.504719 
L 404.024698 278.280402 
L 407.538235 286.082335 
L 411.051771 292.042479 
L 414.565308 296.886221 
L 418.078844 292.129644 
L 421.59238 286.754337 
L 425.105917 280.806157 
L 428.619453 281.404736 
L 432.13299 286.198568 
L 435.646526 289.590208 
L 439.160063 304.334806 
L 442.673599 285.846724 
L 446.187136 286.115213 
L 449.700672 296.013214 
L 453.214208 300.269473 
L 456.727745 291.569762 
L 460.241281 286.997122 
L 463.754818 288.29566 
L 467.268354 284.659327 
L 470.781891 283.30209 
L 474.295427 284.924863 
L 477.808963 282.585091 
L 481.3225 282.60692 
L 484.836036 283.984336 
L 488.349573 282.49605 
L 491.863109 284.405694 
L 495.376646 286.070126 
L 498.890182 284.751497 
L 502.403718 287.842334 
L 505.917255 288.493321 
L 509.430791 287.663427 
L 512.944328 293.214368 
L 516.457864 292.058751 
L 519.971401 292.260325 
L 523.484937 306.355907 
L 526.998474 296.822216 
L 530.51201 298.462235 
L 534.025546 302.804302 
L 537.539083 299.016641 
L 541.052619 303.83388 
L 544.566156 299.054358 
L 548.079692 302.848508 
L 551.593229 302.052436 
L 555.106765 298.171231 
L 558.620301 306.337063 
L 562.133838 299.680588 
L 565.647374 299.895806 
L 569.160911 309.13927 
L 572.674447 299.116954 
L 576.187984 299.916118 
L 579.70152 307.011797 
L 583.215057 300.397754 
L 586.728593 302.881546 
L 590.242129 303.899954 
L 593.755666 300.583039 
L 597.269202 304.548028 
L 600.782739 303.15034 
L 604.296275 301.899202 
L 607.809812 304.313511 
L 611.323348 303.117691 
L 614.836884 302.872684 
L 618.350421 304.551309 
L 621.863957 303.161698 
L 625.377494 303.590255 
L 628.89103 304.387227 
L 632.404567 303.658165 
L 639.431639 304.436436 
L 642.945176 304.077151 
L 646.458712 304.401873 
L 649.972249 304.553594 
L 653.485785 304.428027 
L 656.999322 304.748417 
L 664.026395 304.827968 
L 667.539931 304.968706 
L 671.053467 304.988041 
L 678.08054 305.220302 
L 706.188832 305.901119 
L 706.188832 305.901119 
" clip-path="url(#p6968d83877)" style="fill: none; stroke: #000000; stroke-width: 2.7; stroke-linecap: square"/>
   </g>
   <g id="line2d_24">
    <path d="M 80.777648 208.976274 
L 84.290618 209.764062 
L 87.803589 219.30835 
L 91.316559 223.083742 
L 94.82953 222.680406 
L 98.3425 223.654257 
L 101.85547 221.86452 
L 105.368441 223.435812 
L 108.881411 227.6623 
L 112.394381 227.495271 
L 115.907352 228.041173 
L 119.420322 227.500237 
L 122.933293 225.36592 
L 126.446263 226.660353 
L 129.959233 229.985781 
L 133.472204 227.422147 
L 136.985174 226.375984 
L 140.498144 224.284072 
L 144.011115 221.202726 
L 147.524085 223.657479 
L 151.037056 228.269677 
L 154.550026 227.856535 
L 158.062996 232.345409 
L 161.575967 235.66498 
L 165.088937 231.852112 
L 168.601907 232.433962 
L 172.114878 237.594739 
L 175.627848 234.682953 
L 179.140819 235.37912 
L 182.653789 235.406438 
L 186.166759 232.334732 
L 189.67973 232.248304 
L 193.1927 234.746057 
L 196.70567 235.163971 
L 200.218641 236.625903 
L 203.731611 234.528446 
L 207.244582 231.785164 
L 214.270522 237.320886 
L 217.783493 234.919397 
L 221.296463 239.030985 
L 224.809433 244.288789 
L 228.322404 241.19352 
L 231.835374 241.327626 
L 235.348345 248.142475 
L 238.861315 248.428857 
L 242.374285 243.748901 
L 245.887256 248.936886 
L 249.400226 250.810221 
L 252.913196 247.75307 
L 256.426167 260.507489 
L 259.939137 250.6987 
L 263.452108 248.322456 
L 266.965078 248.56336 
L 270.478048 248.952358 
L 273.991019 251.96433 
L 277.503989 258.498047 
L 281.016959 268.956718 
L 284.52993 261.016953 
L 288.0429 254.891842 
L 291.555871 253.080344 
L 295.068841 252.136184 
L 298.581811 250.842571 
L 302.094782 251.948108 
L 305.607752 256.455495 
L 309.120722 256.683057 
L 312.633693 255.239388 
L 316.146663 254.806882 
L 319.659634 255.293301 
L 323.172604 256.278868 
L 326.685574 260.03108 
L 330.198545 262.016717 
L 333.711515 256.768286 
L 337.224485 253.410527 
L 340.737456 253.9882 
L 344.250426 256.943787 
L 347.763397 258.705663 
L 351.276367 258.410285 
L 358.302308 261.270591 
L 361.815278 260.61384 
L 368.841219 259.628909 
L 372.354189 260.799898 
L 375.86716 264.986166 
L 379.38013 278.357016 
L 382.8931 267.53076 
L 386.406071 262.743714 
L 389.919041 261.494407 
L 393.432011 262.924046 
L 396.944982 265.716738 
L 400.457952 267.466769 
L 403.970923 269.819403 
L 407.483893 272.988133 
L 410.996863 274.280117 
L 414.509834 271.995127 
L 418.022804 270.912565 
L 421.535774 270.046704 
L 425.048745 269.479968 
L 432.074686 274.058397 
L 435.587656 277.107504 
L 439.100626 278.646022 
L 442.613597 280.910573 
L 446.126567 284.68374 
L 449.639537 281.260778 
L 453.152508 280.04037 
L 456.665478 277.364888 
L 460.178449 277.114936 
L 463.691419 276.23476 
L 467.204389 274.977318 
L 470.71736 274.630148 
L 474.23033 273.200585 
L 481.256271 273.905964 
L 484.769241 275.35672 
L 488.282212 277.834684 
L 491.795182 279.620812 
L 495.308152 286.361043 
L 498.821123 288.136026 
L 502.334093 283.183156 
L 505.847063 277.421894 
L 509.360034 276.602266 
L 512.873004 277.893963 
L 516.385975 285.319573 
L 519.898945 288.797756 
L 523.411915 283.634429 
L 526.924886 280.87155 
L 530.437856 282.169859 
L 533.950826 283.901404 
L 537.463797 284.045833 
L 540.976767 286.435991 
L 544.489738 285.598252 
L 548.002708 286.042235 
L 551.515678 287.791423 
L 555.028649 283.26823 
L 558.541619 280.135269 
L 562.054589 277.619007 
L 565.56756 279.194362 
L 569.08053 282.280691 
L 572.593501 284.651632 
L 576.106471 286.398377 
L 579.619441 284.33689 
L 583.132412 283.322835 
L 586.645382 282.729753 
L 590.158352 281.954453 
L 593.671323 284.044081 
L 597.184293 283.127346 
L 600.697264 281.122012 
L 604.210234 278.679181 
L 607.723204 275.927855 
L 611.236175 275.114858 
L 614.749145 274.524149 
L 618.262115 275.706527 
L 621.775086 277.477931 
L 625.288056 281.079235 
L 628.801027 283.260896 
L 632.313997 284.933507 
L 635.826967 283.831716 
L 639.339938 284.94325 
L 642.852908 283.320632 
L 646.365878 283.607281 
L 649.878849 282.516191 
L 653.391819 282.737918 
L 656.90479 283.543187 
L 660.41776 284.172137 
L 663.93073 288.608189 
L 667.443701 290.528748 
L 670.956671 286.13088 
L 674.469641 285.012317 
L 677.982612 285.743787 
L 681.495582 287.786399 
L 685.008553 285.198896 
L 688.521523 287.104664 
L 692.034493 289.73864 
L 695.547464 296.424406 
L 699.060434 298.869835 
L 702.573404 294.090391 
L 706.086375 294.458826 
L 706.086375 294.458826 
" clip-path="url(#p6968d83877)" style="fill: none; stroke-dasharray: 4.4,2.2; stroke-dashoffset: 0; stroke: #3693d4; stroke-width: 2.2"/>
   </g>
   <g id="line2d_25">
    <path d="M 80.777648 208.954037 
L 84.290618 209.813683 
L 87.803589 219.226275 
L 91.316559 222.84179 
L 94.82953 222.485047 
L 98.3425 223.535291 
L 101.85547 221.819967 
L 105.368441 223.439893 
L 108.881411 227.477899 
L 112.394381 227.159044 
L 115.907352 227.705637 
L 119.420322 227.280938 
L 122.933293 225.05343 
L 126.446263 225.927698 
L 129.959233 228.578119 
L 133.472204 226.945925 
L 136.985174 227.529931 
L 140.498144 226.3427 
L 144.011115 222.38339 
L 147.524085 223.620399 
L 151.037056 226.088758 
L 154.550026 224.253 
L 158.062996 226.429595 
L 161.575967 229.40411 
L 165.088937 229.311092 
L 168.601907 233.000639 
L 172.114878 235.40132 
L 175.627848 232.74304 
L 182.653789 237.71976 
L 186.166759 234.900005 
L 189.67973 232.491659 
L 193.1927 233.099125 
L 196.70567 233.514763 
L 200.218641 235.878747 
L 203.731611 235.426483 
L 207.244582 234.840655 
L 210.757552 238.01905 
L 214.270522 239.258401 
L 217.783493 234.84458 
L 221.296463 237.589288 
L 224.809433 236.673134 
L 228.322404 238.113062 
L 231.835374 254.1184 
L 235.348345 240.76346 
L 238.861315 244.84266 
L 242.374285 242.747318 
L 245.887256 243.309808 
L 249.400226 255.481461 
L 252.913196 251.126541 
L 256.426167 248.32024 
L 259.939137 249.550391 
L 263.452108 262.18892 
L 266.965078 248.500084 
L 270.478048 245.104181 
L 273.991019 245.366601 
L 277.503989 247.708214 
L 281.016959 248.392773 
L 284.52993 246.408225 
L 288.0429 248.038739 
L 291.555871 256.566918 
L 295.068841 252.380448 
L 298.581811 249.542198 
L 302.094782 250.315501 
L 305.607752 251.80723 
L 309.120722 249.429637 
L 312.633693 250.346459 
L 316.146663 254.635432 
L 319.659634 253.757407 
L 323.172604 249.281401 
L 326.685574 247.256046 
L 330.198545 247.707871 
L 333.711515 248.513564 
L 337.224485 249.920556 
L 340.737456 253.931561 
L 344.250426 258.271595 
L 347.763397 258.221793 
L 351.276367 258.908994 
L 354.789337 257.697872 
L 358.302308 259.862465 
L 361.815278 265.582314 
L 365.328248 264.649015 
L 368.841219 265.755495 
L 372.354189 268.972497 
L 375.86716 266.622832 
L 379.38013 264.087923 
L 386.406071 268.141387 
L 389.919041 264.226046 
L 393.432011 262.053922 
L 396.944982 262.576619 
L 400.457952 265.686478 
L 403.970923 266.783271 
L 407.483893 264.796606 
L 410.996863 264.976607 
L 414.509834 269.237155 
L 418.022804 277.980072 
L 421.535774 272.059583 
L 425.048745 273.143008 
L 428.561715 276.249113 
L 435.587656 274.038693 
L 439.100626 272.814563 
L 442.613597 276.479052 
L 446.126567 280.577978 
L 449.639537 280.309255 
L 453.152508 283.894603 
L 456.665478 285.063051 
L 460.178449 281.288788 
L 463.691419 279.375833 
L 467.204389 280.89012 
L 470.71736 278.836792 
L 474.23033 278.052712 
L 477.7433 277.672617 
L 481.256271 279.566123 
L 484.769241 283.896537 
L 488.282212 283.731432 
L 491.795182 284.563572 
L 495.308152 282.075773 
L 498.821123 277.31773 
L 502.334093 276.350148 
L 505.847063 277.230128 
L 509.360034 282.909658 
L 512.873004 296.250467 
L 516.385975 285.820823 
L 519.898945 280.173474 
L 523.411915 277.764759 
L 526.924886 276.08901 
L 530.437856 277.003954 
L 537.463797 276.945535 
L 540.976767 277.372883 
L 544.489738 277.410623 
L 548.002708 280.439075 
L 551.515678 281.428591 
L 555.028649 283.537505 
L 558.541619 281.595375 
L 562.054589 279.18611 
L 565.56756 278.931037 
L 569.08053 279.279736 
L 572.593501 280.460561 
L 576.106471 279.660504 
L 579.619441 277.557949 
L 583.132412 278.624879 
L 586.645382 283.812022 
L 590.158352 281.600571 
L 593.671323 277.144861 
L 597.184293 277.612559 
L 600.697264 282.043948 
L 604.210234 289.766864 
L 607.723204 278.524534 
L 611.236175 276.881181 
L 614.749145 278.470576 
L 618.262115 288.059725 
L 621.775086 279.622626 
L 625.288056 277.075205 
L 628.801027 281.680186 
L 632.313997 286.687247 
L 635.826967 282.702653 
L 639.339938 282.585526 
L 642.852908 289.484297 
L 646.365878 297.658641 
L 649.878849 288.604373 
L 653.391819 289.571968 
L 656.90479 293.632502 
L 660.41776 289.127774 
L 663.93073 287.821595 
L 667.443701 293.046587 
L 670.956671 293.744286 
L 674.469641 294.975204 
L 677.982612 294.099572 
L 681.495582 291.782905 
L 685.008553 298.403238 
L 688.521523 295.808062 
L 692.034493 285.639184 
L 695.547464 282.579934 
L 699.060434 282.876286 
L 702.573404 285.10741 
L 706.086375 286.188634 
L 706.086375 286.188634 
" clip-path="url(#p6968d83877)" style="fill: none; stroke-dasharray: 4.4,2.2; stroke-dashoffset: 0; stroke: #48bd48; stroke-width: 2.2"/>
   </g>
   <g id="line2d_26">
    <path d="M 80.777648 209.028932 
L 84.290618 209.877397 
L 87.803589 219.344796 
L 91.316559 223.064302 
L 94.82953 222.67888 
L 98.3425 223.794091 
L 101.85547 222.003048 
L 105.368441 223.667365 
L 108.881411 227.846314 
L 112.394381 227.550637 
L 115.907352 228.275752 
L 119.420322 227.891509 
L 122.933293 225.597718 
L 126.446263 226.482653 
L 129.959233 229.246233 
L 133.472204 227.373264 
L 136.985174 227.834241 
L 140.498144 226.726949 
L 144.011115 223.101391 
L 147.524085 225.6529 
L 151.037056 229.839149 
L 154.550026 227.023478 
L 158.062996 228.479325 
L 161.575967 231.350195 
L 165.088937 230.710824 
L 168.601907 233.469848 
L 172.114878 236.830682 
L 175.627848 234.323706 
L 179.140819 236.341049 
L 182.653789 237.257089 
L 186.166759 234.48086 
L 189.67973 232.87031 
L 193.1927 234.867528 
L 196.70567 233.606307 
L 200.218641 235.068408 
L 207.244582 234.69463 
L 210.757552 237.748276 
L 214.270522 238.754753 
L 217.783493 235.156831 
L 221.296463 237.222364 
L 224.809433 235.83008 
L 228.322404 237.250006 
L 231.835374 249.077051 
L 235.348345 240.495013 
L 238.861315 243.686195 
L 242.374285 241.835535 
L 245.887256 242.155666 
L 249.400226 251.537446 
L 252.913196 244.960912 
L 256.426167 246.257814 
L 259.939137 251.817902 
L 263.452108 245.277942 
L 266.965078 242.994642 
L 270.478048 242.910556 
L 273.991019 245.164978 
L 277.503989 248.938103 
L 281.016959 247.559633 
L 284.52993 245.906469 
L 288.0429 246.441602 
L 291.555871 249.893068 
L 295.068841 259.437436 
L 298.581811 253.801909 
L 302.094782 248.607235 
L 305.607752 246.722311 
L 309.120722 246.65552 
L 312.633693 248.955895 
L 316.146663 253.371422 
L 319.659634 253.851355 
L 323.172604 249.135511 
L 326.685574 246.422222 
L 330.198545 246.809761 
L 333.711515 248.900935 
L 337.224485 250.322526 
L 340.737456 252.364483 
L 344.250426 257.112766 
L 347.763397 267.539963 
L 351.276367 270.450864 
L 354.789337 269.993837 
L 358.302308 268.757557 
L 361.815278 266.999069 
L 365.328248 268.298502 
L 368.841219 269.227848 
L 372.354189 266.786388 
L 379.38013 269.670466 
L 382.8931 267.65614 
L 386.406071 266.963434 
L 389.919041 268.692129 
L 393.432011 272.796061 
L 396.944982 279.348785 
L 400.457952 276.973127 
L 403.970923 279.162039 
L 407.483893 284.327697 
L 410.996863 278.517428 
L 414.509834 277.232628 
L 418.022804 280.48674 
L 421.535774 280.604996 
L 428.561715 279.475615 
L 432.074686 284.324274 
L 435.587656 291.408772 
L 439.100626 294.69438 
L 442.613597 289.146665 
L 446.126567 289.017636 
L 449.639537 287.520953 
L 453.152508 286.924132 
L 456.665478 289.116203 
L 460.178449 287.820084 
L 463.691419 282.500115 
L 467.204389 282.439288 
L 470.71736 280.919155 
L 474.23033 281.989357 
L 477.7433 279.76925 
L 481.256271 278.931268 
L 484.769241 279.794268 
L 488.282212 279.592484 
L 491.795182 281.196133 
L 495.308152 281.430839 
L 498.821123 284.15689 
L 502.334093 293.101828 
L 505.847063 289.817546 
L 509.360034 283.757889 
L 512.873004 282.765989 
L 516.385975 284.441651 
L 519.898945 283.454269 
L 523.411915 286.356126 
L 526.924886 286.361783 
L 530.437856 285.920907 
L 533.950826 289.7623 
L 537.463797 296.332156 
L 540.976767 294.165539 
L 544.489738 283.797954 
L 548.002708 283.129394 
L 551.515678 289.18073 
L 555.028649 298.951267 
L 558.541619 303.522138 
L 562.054589 289.091095 
L 565.56756 284.034661 
L 569.08053 284.268902 
L 572.593501 285.125189 
L 576.106471 290.844569 
L 579.619441 291.961172 
L 583.132412 290.592037 
L 586.645382 286.549319 
L 590.158352 286.9872 
L 593.671323 286.024155 
L 597.184293 284.883706 
L 600.697264 286.268181 
L 604.210234 285.77882 
L 607.723204 285.116988 
L 611.236175 287.513098 
L 614.749145 294.440748 
L 618.262115 288.214483 
L 621.775086 286.326472 
L 625.288056 292.498283 
L 628.801027 289.151496 
L 632.313997 297.759984 
L 635.826967 303.598302 
L 639.339938 294.640202 
L 642.852908 302.213679 
L 646.365878 287.418325 
L 649.878849 290.780424 
L 653.391819 292.129649 
L 656.90479 286.597451 
L 660.41776 285.413745 
L 663.93073 287.949816 
L 667.443701 285.483185 
L 670.956671 287.735854 
L 674.469641 289.513652 
L 677.982612 288.498359 
L 681.495582 291.321466 
L 685.008553 288.188109 
L 688.521523 287.791933 
L 692.034493 291.37475 
L 695.547464 294.741387 
L 699.060434 291.341138 
L 702.573404 302.181803 
L 706.086375 299.459532 
L 706.086375 299.459532 
" clip-path="url(#p6968d83877)" style="fill: none; stroke-dasharray: 4.4,2.2; stroke-dashoffset: 0; stroke: #fc5151; stroke-width: 2.2"/>
   </g>
   <g id="patch_8">
    <path d="M 80.78 313.391635 
L 80.78 209.04024 
" style="fill: none; stroke: #000000; stroke-width: 0.8; stroke-linejoin: miter; stroke-linecap: square"/>
   </g>
   <g id="patch_9">
    <path d="M 702.71452 313.391635 
L 702.71452 209.04024 
" style="fill: none; stroke: #000000; stroke-width: 0.8; stroke-linejoin: miter; stroke-linecap: square"/>
   </g>
   <g id="patch_10">
    <path d="M 80.78 313.391635 
L 702.71452 313.391635 
" style="fill: none; stroke: #000000; stroke-width: 0.8; stroke-linejoin: miter; stroke-linecap: square"/>
   </g>
   <g id="patch_11">
    <path d="M 80.78 209.04024 
L 702.71452 209.04024 
" style="fill: none; stroke: #000000; stroke-width: 0.8; stroke-linejoin: miter; stroke-linecap: square"/>
   </g>
  </g>
  <g id="legend_1">
   <g id="patch_12">
    <path d="M 104.28976 36.79625 
L 684.58976 36.79625 
Q 688.58976 36.79625 688.58976 32.79625 
L 688.58976 5.44 
Q 688.58976 1.44 684.58976 1.44 
L 104.28976 1.44 
Q 100.28976 1.44 100.28976 5.44 
L 100.28976 32.79625 
Q 100.28976 36.79625 104.28976 36.79625 
z
" style="fill: #ffffff; opacity: 0.6; stroke: #cccccc; stroke-linejoin: miter"/>
   </g>
   <g id="line2d_27">
    <path d="M 108.28976 17.636875 
L 118.28976 17.636875 
L 128.28976 17.636875 
" style="fill: none; stroke: #000000; stroke-width: 2.7; stroke-linecap: square"/>
   </g>
   <g id="text_22">
    <!-- Grid -->
    <g transform="translate(133.28976 24.636875) scale(0.2 -0.2)">
     <defs>
      <path id="DejaVuSans-47" d="M 3809 666 
L 3809 1919 
L 2778 1919 
L 2778 2438 
L 4434 2438 
L 4434 434 
Q 4069 175 3628 42 
Q 3188 -91 2688 -91 
Q 1594 -91 976 548 
Q 359 1188 359 2328 
Q 359 3472 976 4111 
Q 1594 4750 2688 4750 
Q 3144 4750 3555 4637 
Q 3966 4525 4313 4306 
L 4313 3634 
Q 3963 3931 3569 4081 
Q 3175 4231 2741 4231 
Q 1884 4231 1454 3753 
Q 1025 3275 1025 2328 
Q 1025 1384 1454 906 
Q 1884 428 2741 428 
Q 3075 428 3337 486 
Q 3600 544 3809 666 
z
" transform="scale(0.015625)"/>
     </defs>
     <use xlink:href="#DejaVuSans-47"/>
     <use xlink:href="#DejaVuSans-72" x="77.490234"/>
     <use xlink:href="#DejaVuSans-69" x="118.603516"/>
     <use xlink:href="#DejaVuSans-64" x="146.386719"/>
    </g>
   </g>
   <g id="line2d_28">
    <path d="M 187.261635 17.636875 
L 197.261635 17.636875 
L 207.261635 17.636875 
" style="fill: none; stroke-dasharray: 4.4,2.2; stroke-dashoffset: 0; stroke: #e6730d; stroke-width: 2.2"/>
   </g>
   <g id="text_23">
    <!-- frozen -->
    <g transform="translate(212.261635 24.636875) scale(0.2 -0.2)">
     <defs>
      <path id="DejaVuSans-66" d="M 2375 4863 
L 2375 4384 
L 1825 4384 
Q 1516 4384 1395 4259 
Q 1275 4134 1275 3809 
L 1275 3500 
L 2222 3500 
L 2222 3053 
L 1275 3053 
L 1275 0 
L 697 0 
L 697 3053 
L 147 3053 
L 147 3500 
L 697 3500 
L 697 3744 
Q 697 4328 969 4595 
Q 1241 4863 1831 4863 
L 2375 4863 
z
" transform="scale(0.015625)"/>
      <path id="DejaVuSans-7a" d="M 353 3500 
L 3084 3500 
L 3084 2975 
L 922 459 
L 3084 459 
L 3084 0 
L 275 0 
L 275 525 
L 2438 3041 
L 353 3041 
L 353 3500 
z
" transform="scale(0.015625)"/>
     </defs>
     <use xlink:href="#DejaVuSans-66"/>
     <use xlink:href="#DejaVuSans-72" x="35.205078"/>
     <use xlink:href="#DejaVuSans-6f" x="74.068359"/>
     <use xlink:href="#DejaVuSans-7a" x="135.25"/>
     <use xlink:href="#DejaVuSans-65" x="187.740234"/>
     <use xlink:href="#DejaVuSans-6e" x="249.263672"/>
    </g>
   </g>
   <g id="line2d_29">
    <path d="M 286.78976 17.636875 
L 296.78976 17.636875 
L 306.78976 17.636875 
" style="fill: none; stroke-dasharray: 4.4,2.2; stroke-dashoffset: 0; stroke: #3693d4; stroke-width: 2.2"/>
   </g>
   <g id="text_24">
    <!-- $M_{max}=38$ -->
    <g transform="translate(311.78976 24.636875) scale(0.2 -0.2)">
     <defs>
      <path id="DejaVuSans-Oblique-4d" d="M 1081 4666 
L 2028 4666 
L 2572 1522 
L 4378 4666 
L 5350 4666 
L 4441 0 
L 3828 0 
L 4622 4091 
L 2791 897 
L 2175 897 
L 1581 4103 
L 788 0 
L 172 0 
L 1081 4666 
z
" transform="scale(0.015625)"/>
      <path id="DejaVuSans-Oblique-6d" d="M 5747 2113 
L 5338 0 
L 4763 0 
L 5166 2094 
Q 5191 2228 5203 2325 
Q 5216 2422 5216 2491 
Q 5216 2772 5059 2928 
Q 4903 3084 4622 3084 
Q 4203 3084 3875 2770 
Q 3547 2456 3450 1953 
L 3066 0 
L 2491 0 
L 2900 2094 
Q 2925 2209 2937 2307 
Q 2950 2406 2950 2484 
Q 2950 2769 2794 2926 
Q 2638 3084 2363 3084 
Q 1938 3084 1609 2770 
Q 1281 2456 1184 1953 
L 800 0 
L 225 0 
L 909 3500 
L 1484 3500 
L 1375 2956 
Q 1609 3263 1923 3423 
Q 2238 3584 2597 3584 
Q 2978 3584 3223 3384 
Q 3469 3184 3519 2828 
Q 3781 3197 4126 3390 
Q 4472 3584 4856 3584 
Q 5306 3584 5551 3325 
Q 5797 3066 5797 2591 
Q 5797 2488 5784 2364 
Q 5772 2241 5747 2113 
z
" transform="scale(0.015625)"/>
      <path id="DejaVuSans-Oblique-61" d="M 3438 1997 
L 3047 0 
L 2472 0 
L 2578 531 
Q 2325 219 2001 64 
Q 1678 -91 1281 -91 
Q 834 -91 548 182 
Q 263 456 263 884 
Q 263 1497 752 1853 
Q 1241 2209 2100 2209 
L 2900 2209 
L 2931 2363 
Q 2938 2388 2941 2417 
Q 2944 2447 2944 2509 
Q 2944 2788 2717 2942 
Q 2491 3097 2081 3097 
Q 1800 3097 1504 3025 
Q 1209 2953 897 2809 
L 997 3341 
Q 1322 3463 1633 3523 
Q 1944 3584 2234 3584 
Q 2853 3584 3176 3315 
Q 3500 3047 3500 2534 
Q 3500 2431 3484 2292 
Q 3469 2153 3438 1997 
z
M 2816 1759 
L 2241 1759 
Q 1534 1759 1195 1570 
Q 856 1381 856 984 
Q 856 709 1029 553 
Q 1203 397 1509 397 
Q 1978 397 2328 733 
Q 2678 1069 2791 1631 
L 2816 1759 
z
" transform="scale(0.015625)"/>
      <path id="DejaVuSans-38" d="M 2034 2216 
Q 1584 2216 1326 1975 
Q 1069 1734 1069 1313 
Q 1069 891 1326 650 
Q 1584 409 2034 409 
Q 2484 409 2743 651 
Q 3003 894 3003 1313 
Q 3003 1734 2745 1975 
Q 2488 2216 2034 2216 
z
M 1403 2484 
Q 997 2584 770 2862 
Q 544 3141 544 3541 
Q 544 4100 942 4425 
Q 1341 4750 2034 4750 
Q 2731 4750 3128 4425 
Q 3525 4100 3525 3541 
Q 3525 3141 3298 2862 
Q 3072 2584 2669 2484 
Q 3125 2378 3379 2068 
Q 3634 1759 3634 1313 
Q 3634 634 3220 271 
Q 2806 -91 2034 -91 
Q 1263 -91 848 271 
Q 434 634 434 1313 
Q 434 1759 690 2068 
Q 947 2378 1403 2484 
z
M 1172 3481 
Q 1172 3119 1398 2916 
Q 1625 2713 2034 2713 
Q 2441 2713 2670 2916 
Q 2900 3119 2900 3481 
Q 2900 3844 2670 4047 
Q 2441 4250 2034 4250 
Q 1625 4250 1398 4047 
Q 1172 3844 1172 3481 
z
" transform="scale(0.015625)"/>
     </defs>
     <use xlink:href="#DejaVuSans-Oblique-4d" transform="translate(0 0.78125)"/>
     <use xlink:href="#DejaVuSans-Oblique-6d" transform="translate(86.279297 -15.625) scale(0.7)"/>
     <use xlink:href="#DejaVuSans-Oblique-61" transform="translate(154.467773 -15.625) scale(0.7)"/>
     <use xlink:href="#DejaVuSans-Oblique-78" transform="translate(197.363281 -15.625) scale(0.7)"/>
     <use xlink:href="#DejaVuSans-3d" transform="translate(261.005859 0.78125)"/>
     <use xlink:href="#DejaVuSans-33" transform="translate(364.277344 0.78125)"/>
     <use xlink:href="#DejaVuSans-38" transform="translate(427.900391 0.78125)"/>
    </g>
   </g>
   <g id="line2d_30">
    <path d="M 422.18976 17.636875 
L 432.18976 17.636875 
L 442.18976 17.636875 
" style="fill: none; stroke-dasharray: 4.4,2.2; stroke-dashoffset: 0; stroke: #48bd48; stroke-width: 2.2"/>
   </g>
   <g id="text_25">
    <!-- $M_{max}=48$ -->
    <g transform="translate(447.18976 24.636875) scale(0.2 -0.2)">
     <use xlink:href="#DejaVuSans-Oblique-4d" transform="translate(0 0.78125)"/>
     <use xlink:href="#DejaVuSans-Oblique-6d" transform="translate(86.279297 -15.625) scale(0.7)"/>
     <use xlink:href="#DejaVuSans-Oblique-61" transform="translate(154.467773 -15.625) scale(0.7)"/>
     <use xlink:href="#DejaVuSans-Oblique-78" transform="translate(197.363281 -15.625) scale(0.7)"/>
     <use xlink:href="#DejaVuSans-3d" transform="translate(261.005859 0.78125)"/>
     <use xlink:href="#DejaVuSans-34" transform="translate(364.277344 0.78125)"/>
     <use xlink:href="#DejaVuSans-38" transform="translate(427.900391 0.78125)"/>
    </g>
   </g>
   <g id="line2d_31">
    <path d="M 557.58976 17.636875 
L 567.58976 17.636875 
L 577.58976 17.636875 
" style="fill: none; stroke-dasharray: 4.4,2.2; stroke-dashoffset: 0; stroke: #fc5151; stroke-width: 2.2"/>
   </g>
   <g id="text_26">
    <!-- $M_{max}=92$ -->
    <g transform="translate(582.58976 24.636875) scale(0.2 -0.2)">
     <defs>
      <path id="DejaVuSans-39" d="M 703 97 
L 703 672 
Q 941 559 1184 500 
Q 1428 441 1663 441 
Q 2288 441 2617 861 
Q 2947 1281 2994 2138 
Q 2813 1869 2534 1725 
Q 2256 1581 1919 1581 
Q 1219 1581 811 2004 
Q 403 2428 403 3163 
Q 403 3881 828 4315 
Q 1253 4750 1959 4750 
Q 2769 4750 3195 4129 
Q 3622 3509 3622 2328 
Q 3622 1225 3098 567 
Q 2575 -91 1691 -91 
Q 1453 -91 1209 -44 
Q 966 3 703 97 
z
M 1959 2075 
Q 2384 2075 2632 2365 
Q 2881 2656 2881 3163 
Q 2881 3666 2632 3958 
Q 2384 4250 1959 4250 
Q 1534 4250 1286 3958 
Q 1038 3666 1038 3163 
Q 1038 2656 1286 2365 
Q 1534 2075 1959 2075 
z
" transform="scale(0.015625)"/>
     </defs>
     <use xlink:href="#DejaVuSans-Oblique-4d" transform="translate(0 0.78125)"/>
     <use xlink:href="#DejaVuSans-Oblique-6d" transform="translate(86.279297 -15.625) scale(0.7)"/>
     <use xlink:href="#DejaVuSans-Oblique-61" transform="translate(154.467773 -15.625) scale(0.7)"/>
     <use xlink:href="#DejaVuSans-Oblique-78" transform="translate(197.363281 -15.625) scale(0.7)"/>
     <use xlink:href="#DejaVuSans-3d" transform="translate(261.005859 0.78125)"/>
     <use xlink:href="#DejaVuSans-39" transform="translate(364.277344 0.78125)"/>
     <use xlink:href="#DejaVuSans-32" transform="translate(426.150391 0.78125)"/>
    </g>
   </g>
  </g>
 </g>
 <defs>
  <clipPath id="p6d304495f8">
   <rect x="80.78" y="47.04024" width="621.93452" height="104.351395"/>
  </clipPath>
  <clipPath id="p6968d83877">
   <rect x="80.78" y="209.04024" width="621.93452" height="104.351395"/>
  </clipPath>
 </defs>
</svg>
