<?xml version="1.0" encoding="utf-8" standalone="no"?>
<!DOCTYPE svg PUBLIC "-//W3C//DTD SVG 1.1//EN"
  "http://www.w3.org/Graphics/SVG/1.1/DTD/svg11.dtd">
<svg xmlns:xlink="http://www.w3.org/1999/xlink" width="518.4pt" height="259.2pt" viewBox="0 0 518.4 259.2" xmlns="http://www.w3.org/2000/svg" version="1.1">
 <metadata>
  <rdf:RDF xmlns:dc="http://purl.org/dc/elements/1.1/" xmlns:cc="http://creativecommons.org/ns#" xmlns:rdf="http://www.w3.org/1999/02/22-rdf-syntax-ns#">
   <cc:Work>
    <dc:type rdf:resource="http://purl.org/dc/dcmitype/StillImage"/>
    <dc:date>2025-06-10T15:36:19.028625</dc:date>
    <dc:format>image/svg+xml</dc:format>
    <dc:creator>
     <cc:Agent>
      <dc:title>Matplotlib v3.9.2, https://matplotlib.org/</dc:title>
     </cc:Agent>
    </dc:creator>
   </cc:Work>
  </rdf:RDF>
 </metadata>
 <defs>
  <style type="text/css">*{stroke-linejoin: round; stroke-linecap: butt}</style>
 </defs>
 <g id="figure_1">
  <g id="patch_1">
   <path d="M 0 259.2 
L 518.4 259.2 
L 518.4 0 
L 0 0 
z
" style="fill: #ffffff"/>
  </g>
  <g id="axes_1">
   <g id="patch_2">
    <path d="M 67.392 101.52 
L 508.032 101.52 
L 508.032 12.96 
L 67.392 12.96 
z
" style="fill: #ffffff"/>
   </g>
   <g id="matplotlib.axis_1">
    <g id="xtick_1">
     <g id="line2d_1">
      <defs>
       <path id="mbb54ca195e" d="M 0 0 
L 0 3.5 
" style="stroke: #000000; stroke-width: 0.8"/>
      </defs>
      <g>
       <use xlink:href="#mbb54ca195e" x="70.198624" y="101.52" style="stroke: #000000; stroke-width: 0.8"/>
      </g>
     </g>
     <g id="text_1">
      <!-- 0 -->
      <g transform="translate(67.017374 116.118437) scale(0.1 -0.1)">
       <defs>
        <path id="DejaVuSans-30" d="M 2034 4250 
Q 1547 4250 1301 3770 
Q 1056 3291 1056 2328 
Q 1056 1369 1301 889 
Q 1547 409 2034 409 
Q 2525 409 2770 889 
Q 3016 1369 3016 2328 
Q 3016 3291 2770 3770 
Q 2525 4250 2034 4250 
z
M 2034 4750 
Q 2819 4750 3233 4129 
Q 3647 3509 3647 2328 
Q 3647 1150 3233 529 
Q 2819 -91 2034 -91 
Q 1250 -91 836 529 
Q 422 1150 422 2328 
Q 422 3509 836 4129 
Q 1250 4750 2034 4750 
z
" transform="scale(0.015625)"/>
       </defs>
       <use xlink:href="#DejaVuSans-30"/>
      </g>
     </g>
    </g>
    <g id="xtick_2">
     <g id="line2d_2">
      <g>
       <use xlink:href="#mbb54ca195e" x="140.364229" y="101.52" style="stroke: #000000; stroke-width: 0.8"/>
      </g>
     </g>
     <g id="text_2">
      <!-- 50 -->
      <g transform="translate(134.001729 116.118437) scale(0.1 -0.1)">
       <defs>
        <path id="DejaVuSans-35" d="M 691 4666 
L 3169 4666 
L 3169 4134 
L 1269 4134 
L 1269 2991 
Q 1406 3038 1543 3061 
Q 1681 3084 1819 3084 
Q 2600 3084 3056 2656 
Q 3513 2228 3513 1497 
Q 3513 744 3044 326 
Q 2575 -91 1722 -91 
Q 1428 -91 1123 -41 
Q 819 9 494 109 
L 494 744 
Q 775 591 1075 516 
Q 1375 441 1709 441 
Q 2250 441 2565 725 
Q 2881 1009 2881 1497 
Q 2881 1984 2565 2268 
Q 2250 2553 1709 2553 
Q 1456 2553 1204 2497 
Q 953 2441 691 2322 
L 691 4666 
z
" transform="scale(0.015625)"/>
       </defs>
       <use xlink:href="#DejaVuSans-35"/>
       <use xlink:href="#DejaVuSans-30" x="63.623047"/>
      </g>
     </g>
    </g>
    <g id="xtick_3">
     <g id="line2d_3">
      <g>
       <use xlink:href="#mbb54ca195e" x="210.529834" y="101.52" style="stroke: #000000; stroke-width: 0.8"/>
      </g>
     </g>
     <g id="text_3">
      <!-- 100 -->
      <g transform="translate(200.986084 116.118437) scale(0.1 -0.1)">
       <defs>
        <path id="DejaVuSans-31" d="M 794 531 
L 1825 531 
L 1825 4091 
L 703 3866 
L 703 4441 
L 1819 4666 
L 2450 4666 
L 2450 531 
L 3481 531 
L 3481 0 
L 794 0 
L 794 531 
z
" transform="scale(0.015625)"/>
       </defs>
       <use xlink:href="#DejaVuSans-31"/>
       <use xlink:href="#DejaVuSans-30" x="63.623047"/>
       <use xlink:href="#DejaVuSans-30" x="127.246094"/>
      </g>
     </g>
    </g>
    <g id="xtick_4">
     <g id="line2d_4">
      <g>
       <use xlink:href="#mbb54ca195e" x="280.695439" y="101.52" style="stroke: #000000; stroke-width: 0.8"/>
      </g>
     </g>
     <g id="text_4">
      <!-- 150 -->
      <g transform="translate(271.151689 116.118437) scale(0.1 -0.1)">
       <use xlink:href="#DejaVuSans-31"/>
       <use xlink:href="#DejaVuSans-35" x="63.623047"/>
       <use xlink:href="#DejaVuSans-30" x="127.246094"/>
      </g>
     </g>
    </g>
    <g id="xtick_5">
     <g id="line2d_5">
      <g>
       <use xlink:href="#mbb54ca195e" x="350.861045" y="101.52" style="stroke: #000000; stroke-width: 0.8"/>
      </g>
     </g>
     <g id="text_5">
      <!-- 200 -->
      <g transform="translate(341.317295 116.118437) scale(0.1 -0.1)">
       <defs>
        <path id="DejaVuSans-32" d="M 1228 531 
L 3431 531 
L 3431 0 
L 469 0 
L 469 531 
Q 828 903 1448 1529 
Q 2069 2156 2228 2338 
Q 2531 2678 2651 2914 
Q 2772 3150 2772 3378 
Q 2772 3750 2511 3984 
Q 2250 4219 1831 4219 
Q 1534 4219 1204 4116 
Q 875 4013 500 3803 
L 500 4441 
Q 881 4594 1212 4672 
Q 1544 4750 1819 4750 
Q 2544 4750 2975 4387 
Q 3406 4025 3406 3419 
Q 3406 3131 3298 2873 
Q 3191 2616 2906 2266 
Q 2828 2175 2409 1742 
Q 1991 1309 1228 531 
z
" transform="scale(0.015625)"/>
       </defs>
       <use xlink:href="#DejaVuSans-32"/>
       <use xlink:href="#DejaVuSans-30" x="63.623047"/>
       <use xlink:href="#DejaVuSans-30" x="127.246094"/>
      </g>
     </g>
    </g>
    <g id="xtick_6">
     <g id="line2d_6">
      <g>
       <use xlink:href="#mbb54ca195e" x="421.02665" y="101.52" style="stroke: #000000; stroke-width: 0.8"/>
      </g>
     </g>
     <g id="text_6">
      <!-- 250 -->
      <g transform="translate(411.4829 116.118437) scale(0.1 -0.1)">
       <use xlink:href="#DejaVuSans-32"/>
       <use xlink:href="#DejaVuSans-35" x="63.623047"/>
       <use xlink:href="#DejaVuSans-30" x="127.246094"/>
      </g>
     </g>
    </g>
    <g id="xtick_7">
     <g id="line2d_7">
      <g>
       <use xlink:href="#mbb54ca195e" x="491.192255" y="101.52" style="stroke: #000000; stroke-width: 0.8"/>
      </g>
     </g>
     <g id="text_7">
      <!-- 300 -->
      <g transform="translate(481.648505 116.118437) scale(0.1 -0.1)">
       <defs>
        <path id="DejaVuSans-33" d="M 2597 2516 
Q 3050 2419 3304 2112 
Q 3559 1806 3559 1356 
Q 3559 666 3084 287 
Q 2609 -91 1734 -91 
Q 1441 -91 1130 -33 
Q 819 25 488 141 
L 488 750 
Q 750 597 1062 519 
Q 1375 441 1716 441 
Q 2309 441 2620 675 
Q 2931 909 2931 1356 
Q 2931 1769 2642 2001 
Q 2353 2234 1838 2234 
L 1294 2234 
L 1294 2753 
L 1863 2753 
Q 2328 2753 2575 2939 
Q 2822 3125 2822 3475 
Q 2822 3834 2567 4026 
Q 2313 4219 1838 4219 
Q 1578 4219 1281 4162 
Q 984 4106 628 3988 
L 628 4550 
Q 988 4650 1302 4700 
Q 1616 4750 1894 4750 
Q 2613 4750 3031 4423 
Q 3450 4097 3450 3541 
Q 3450 3153 3228 2886 
Q 3006 2619 2597 2516 
z
" transform="scale(0.015625)"/>
       </defs>
       <use xlink:href="#DejaVuSans-33"/>
       <use xlink:href="#DejaVuSans-30" x="63.623047"/>
       <use xlink:href="#DejaVuSans-30" x="127.246094"/>
      </g>
     </g>
    </g>
    <g id="text_8">
     <!-- Time (a.u.) -->
     <g transform="translate(249.722781 132.835938) scale(0.14 -0.14)">
      <defs>
       <path id="DejaVuSans-54" d="M -19 4666 
L 3928 4666 
L 3928 4134 
L 2272 4134 
L 2272 0 
L 1638 0 
L 1638 4134 
L -19 4134 
L -19 4666 
z
" transform="scale(0.015625)"/>
       <path id="DejaVuSans-69" d="M 603 3500 
L 1178 3500 
L 1178 0 
L 603 0 
L 603 3500 
z
M 603 4863 
L 1178 4863 
L 1178 4134 
L 603 4134 
L 603 4863 
z
" transform="scale(0.015625)"/>
       <path id="DejaVuSans-6d" d="M 3328 2828 
Q 3544 3216 3844 3400 
Q 4144 3584 4550 3584 
Q 5097 3584 5394 3201 
Q 5691 2819 5691 2113 
L 5691 0 
L 5113 0 
L 5113 2094 
Q 5113 2597 4934 2840 
Q 4756 3084 4391 3084 
Q 3944 3084 3684 2787 
Q 3425 2491 3425 1978 
L 3425 0 
L 2847 0 
L 2847 2094 
Q 2847 2600 2669 2842 
Q 2491 3084 2119 3084 
Q 1678 3084 1418 2786 
Q 1159 2488 1159 1978 
L 1159 0 
L 581 0 
L 581 3500 
L 1159 3500 
L 1159 2956 
Q 1356 3278 1631 3431 
Q 1906 3584 2284 3584 
Q 2666 3584 2933 3390 
Q 3200 3197 3328 2828 
z
" transform="scale(0.015625)"/>
       <path id="DejaVuSans-65" d="M 3597 1894 
L 3597 1613 
L 953 1613 
Q 991 1019 1311 708 
Q 1631 397 2203 397 
Q 2534 397 2845 478 
Q 3156 559 3463 722 
L 3463 178 
Q 3153 47 2828 -22 
Q 2503 -91 2169 -91 
Q 1331 -91 842 396 
Q 353 884 353 1716 
Q 353 2575 817 3079 
Q 1281 3584 2069 3584 
Q 2775 3584 3186 3129 
Q 3597 2675 3597 1894 
z
M 3022 2063 
Q 3016 2534 2758 2815 
Q 2500 3097 2075 3097 
Q 1594 3097 1305 2825 
Q 1016 2553 972 2059 
L 3022 2063 
z
" transform="scale(0.015625)"/>
       <path id="DejaVuSans-20" transform="scale(0.015625)"/>
       <path id="DejaVuSans-28" d="M 1984 4856 
Q 1566 4138 1362 3434 
Q 1159 2731 1159 2009 
Q 1159 1288 1364 580 
Q 1569 -128 1984 -844 
L 1484 -844 
Q 1016 -109 783 600 
Q 550 1309 550 2009 
Q 550 2706 781 3412 
Q 1013 4119 1484 4856 
L 1984 4856 
z
" transform="scale(0.015625)"/>
       <path id="DejaVuSans-61" d="M 2194 1759 
Q 1497 1759 1228 1600 
Q 959 1441 959 1056 
Q 959 750 1161 570 
Q 1363 391 1709 391 
Q 2188 391 2477 730 
Q 2766 1069 2766 1631 
L 2766 1759 
L 2194 1759 
z
M 3341 1997 
L 3341 0 
L 2766 0 
L 2766 531 
Q 2569 213 2275 61 
Q 1981 -91 1556 -91 
Q 1019 -91 701 211 
Q 384 513 384 1019 
Q 384 1609 779 1909 
Q 1175 2209 1959 2209 
L 2766 2209 
L 2766 2266 
Q 2766 2663 2505 2880 
Q 2244 3097 1772 3097 
Q 1472 3097 1187 3025 
Q 903 2953 641 2809 
L 641 3341 
Q 956 3463 1253 3523 
Q 1550 3584 1831 3584 
Q 2591 3584 2966 3190 
Q 3341 2797 3341 1997 
z
" transform="scale(0.015625)"/>
       <path id="DejaVuSans-2e" d="M 684 794 
L 1344 794 
L 1344 0 
L 684 0 
L 684 794 
z
" transform="scale(0.015625)"/>
       <path id="DejaVuSans-75" d="M 544 1381 
L 544 3500 
L 1119 3500 
L 1119 1403 
Q 1119 906 1312 657 
Q 1506 409 1894 409 
Q 2359 409 2629 706 
Q 2900 1003 2900 1516 
L 2900 3500 
L 3475 3500 
L 3475 0 
L 2900 0 
L 2900 538 
Q 2691 219 2414 64 
Q 2138 -91 1772 -91 
Q 1169 -91 856 284 
Q 544 659 544 1381 
z
M 1991 3584 
L 1991 3584 
z
" transform="scale(0.015625)"/>
       <path id="DejaVuSans-29" d="M 513 4856 
L 1013 4856 
Q 1481 4119 1714 3412 
Q 1947 2706 1947 2009 
Q 1947 1309 1714 600 
Q 1481 -109 1013 -844 
L 513 -844 
Q 928 -128 1133 580 
Q 1338 1288 1338 2009 
Q 1338 2731 1133 3434 
Q 928 4138 513 4856 
z
" transform="scale(0.015625)"/>
      </defs>
      <use xlink:href="#DejaVuSans-54"/>
      <use xlink:href="#DejaVuSans-69" x="57.958984"/>
      <use xlink:href="#DejaVuSans-6d" x="85.742188"/>
      <use xlink:href="#DejaVuSans-65" x="183.154297"/>
      <use xlink:href="#DejaVuSans-20" x="244.677734"/>
      <use xlink:href="#DejaVuSans-28" x="276.464844"/>
      <use xlink:href="#DejaVuSans-61" x="315.478516"/>
      <use xlink:href="#DejaVuSans-2e" x="376.757812"/>
      <use xlink:href="#DejaVuSans-75" x="408.544922"/>
      <use xlink:href="#DejaVuSans-2e" x="471.923828"/>
      <use xlink:href="#DejaVuSans-29" x="503.710938"/>
     </g>
    </g>
   </g>
   <g id="matplotlib.axis_2">
    <g id="ytick_1">
     <g id="line2d_8">
      <defs>
       <path id="m45feece2e8" d="M 0 0 
L -3.5 0 
" style="stroke: #000000; stroke-width: 0.8"/>
      </defs>
      <g>
       <use xlink:href="#m45feece2e8" x="67.392" y="82.560126" style="stroke: #000000; stroke-width: 0.8"/>
      </g>
     </g>
     <g id="text_9">
      <!-- −50 -->
      <g transform="translate(39.287312 86.359345) scale(0.1 -0.1)">
       <defs>
        <path id="DejaVuSans-2212" d="M 678 2272 
L 4684 2272 
L 4684 1741 
L 678 1741 
L 678 2272 
z
" transform="scale(0.015625)"/>
       </defs>
       <use xlink:href="#DejaVuSans-2212"/>
       <use xlink:href="#DejaVuSans-35" x="83.789062"/>
       <use xlink:href="#DejaVuSans-30" x="147.412109"/>
      </g>
     </g>
    </g>
    <g id="ytick_2">
     <g id="line2d_9">
      <g>
       <use xlink:href="#m45feece2e8" x="67.392" y="57.346968" style="stroke: #000000; stroke-width: 0.8"/>
      </g>
     </g>
     <g id="text_10">
      <!-- −25 -->
      <g transform="translate(39.287312 61.146186) scale(0.1 -0.1)">
       <use xlink:href="#DejaVuSans-2212"/>
       <use xlink:href="#DejaVuSans-32" x="83.789062"/>
       <use xlink:href="#DejaVuSans-35" x="147.412109"/>
      </g>
     </g>
    </g>
    <g id="ytick_3">
     <g id="line2d_10">
      <g>
       <use xlink:href="#m45feece2e8" x="67.392" y="32.133809" style="stroke: #000000; stroke-width: 0.8"/>
      </g>
     </g>
     <g id="text_11">
      <!-- 0 -->
      <g transform="translate(54.0295 35.933028) scale(0.1 -0.1)">
       <use xlink:href="#DejaVuSans-30"/>
      </g>
     </g>
    </g>
    <g id="text_12">
     <!-- $\langle\mu(t)\rangle$ (a.u.) -->
     <g transform="translate(32.347312 96.23) rotate(-90) scale(0.14 -0.14)">
      <defs>
       <path id="DejaVuSans-27e8" d="M 572 2006 
L 1453 4856 
L 1984 4856 
L 1103 2006 
L 1984 -844 
L 1453 -844 
L 572 2006 
z
" transform="scale(0.015625)"/>
       <path id="DejaVuSans-Oblique-3bc" d="M -84 -1331 
L 856 3500 
L 1434 3500 
L 1009 1322 
Q 997 1256 987 1175 
Q 978 1094 978 1013 
Q 978 722 1161 565 
Q 1344 409 1684 409 
Q 2147 409 2431 671 
Q 2716 934 2816 1459 
L 3213 3500 
L 3788 3500 
L 3266 809 
Q 3253 750 3248 706 
Q 3244 663 3244 628 
Q 3244 531 3283 486 
Q 3322 441 3406 441 
Q 3438 441 3492 456 
Q 3547 472 3647 513 
L 3559 50 
Q 3422 -19 3297 -55 
Q 3172 -91 3053 -91 
Q 2847 -91 2730 40 
Q 2613 172 2613 403 
Q 2438 153 2195 31 
Q 1953 -91 1625 -91 
Q 1334 -91 1117 43 
Q 900 178 831 397 
L 494 -1331 
L -84 -1331 
z
" transform="scale(0.015625)"/>
       <path id="DejaVuSans-Oblique-74" d="M 2706 3500 
L 2619 3053 
L 1472 3053 
L 1100 1153 
Q 1081 1047 1072 975 
Q 1063 903 1063 863 
Q 1063 663 1183 572 
Q 1303 481 1569 481 
L 2150 481 
L 2053 0 
L 1503 0 
Q 991 0 739 200 
Q 488 400 488 806 
Q 488 878 497 964 
Q 506 1050 525 1153 
L 897 3053 
L 409 3053 
L 500 3500 
L 978 3500 
L 1172 4494 
L 1747 4494 
L 1556 3500 
L 2706 3500 
z
" transform="scale(0.015625)"/>
       <path id="DejaVuSans-27e9" d="M 1925 2006 
L 1044 -844 
L 513 -844 
L 1394 2006 
L 513 4856 
L 1044 4856 
L 1925 2006 
z
" transform="scale(0.015625)"/>
      </defs>
      <use xlink:href="#DejaVuSans-27e8" transform="translate(0 0.125)"/>
      <use xlink:href="#DejaVuSans-Oblique-3bc" transform="translate(39.013672 0.125)"/>
      <use xlink:href="#DejaVuSans-28" transform="translate(102.636719 0.125)"/>
      <use xlink:href="#DejaVuSans-Oblique-74" transform="translate(141.650391 0.125)"/>
      <use xlink:href="#DejaVuSans-29" transform="translate(180.859375 0.125)"/>
      <use xlink:href="#DejaVuSans-27e9" transform="translate(219.873047 0.125)"/>
      <use xlink:href="#DejaVuSans-20" transform="translate(258.886719 0.125)"/>
      <use xlink:href="#DejaVuSans-28" transform="translate(290.673828 0.125)"/>
      <use xlink:href="#DejaVuSans-61" transform="translate(329.6875 0.125)"/>
      <use xlink:href="#DejaVuSans-2e" transform="translate(390.966797 0.125)"/>
      <use xlink:href="#DejaVuSans-75" transform="translate(422.753906 0.125)"/>
      <use xlink:href="#DejaVuSans-2e" transform="translate(486.132812 0.125)"/>
      <use xlink:href="#DejaVuSans-29" transform="translate(517.919922 0.125)"/>
     </g>
    </g>
   </g>
   <g id="line2d_11">
    <path d="M 70.198624 34.458581 
L 97.142217 34.347859 
L 128.365911 34.126581 
L 139.24158 34.322401 
L 149.836586 34.742437 
L 160.642089 35.391452 
L 172.640408 36.343076 
L 193.19893 38.038336 
L 198.110522 38.147234 
L 202.530955 38.02155 
L 207.232051 37.658306 
L 217.546395 36.769589 
L 221.405503 36.759156 
L 226.176764 36.739122 
L 228.632561 36.47541 
L 237.052433 35.302028 
L 240.701045 34.798905 
L 249.612076 33.473822 
L 252.418701 32.760316 
L 257.260127 31.273817 
L 264.627516 28.861733 
L 296.272204 18.476246 
L 299.008662 17.909132 
L 302.516943 17.424668 
L 306.797045 17.073418 
L 309.252841 17.063334 
L 311.357809 17.279017 
L 313.813605 17.765652 
L 316.199236 18.457524 
L 318.374369 19.333957 
L 321.110828 20.700516 
L 323.63679 22.20067 
L 327.14507 24.601616 
L 330.162191 26.87491 
L 333.109146 29.35818 
L 336.266599 32.350857 
L 339.073223 35.265896 
L 342.651669 39.298396 
L 351.282038 49.323813 
L 356.754955 55.929672 
L 362.789197 63.728645 
L 365.736153 67.354653 
L 367.70079 69.461266 
L 370.016255 71.585832 
L 373.384204 74.327573 
L 377.59414 77.855398 
L 380.330599 80.030807 
L 386.715669 84.531867 
L 388.680306 85.547795 
L 392.890242 87.40403 
L 403.13442 91.403364 
L 405.730548 92.032702 
L 409.589656 92.71946 
L 413.799592 93.435215 
L 416.536051 93.862991 
L 418.851516 94.002947 
L 420.605656 93.876196 
L 427.271389 93.132174 
L 435.129936 92.535437 
L 437.726064 92.117355 
L 442.356994 91.321627 
L 445.795108 91.025275 
L 448.812229 90.956817 
L 451.408357 91.145949 
L 459.898395 91.874841 
L 463.968 92.254699 
L 467.616611 92.839913 
L 479.193936 94.975872 
L 481.790064 95.107743 
L 485.508841 95.307136 
L 487.824306 95.673829 
L 491.051924 96.206039 
L 498.489478 96.877557 
L 504.383389 97.293584 
L 505.576204 97.494545 
L 505.576204 97.494545 
" clip-path="url(#p1857a9d0de)" style="fill: none; stroke: #000000; stroke-width: 1.1; stroke-linecap: square"/>
   </g>
   <g id="line2d_12">
    <path d="M 70.198624 34.45856 
L 97.212382 34.347056 
L 128.365911 34.126633 
L 139.24158 34.322374 
L 149.836586 34.742545 
L 160.642089 35.391443 
L 172.640408 36.343238 
L 192.146446 37.945458 
L 196.777376 38.039707 
L 200.917146 37.900914 
L 204.916586 37.543752 
L 208.916025 36.964778 
L 212.775134 36.183163 
L 216.914904 35.10201 
L 220.072357 34.345422 
L 221.826497 34.154058 
L 223.650803 34.187336 
L 226.457427 34.260457 
L 227.790573 34.029198 
L 229.474548 33.47388 
L 231.790013 32.729645 
L 233.684484 32.390854 
L 237.473427 31.762525 
L 239.859057 31.425248 
L 246.454624 31.002371 
L 248.138599 31.104622 
L 252.208204 31.454442 
L 253.54135 31.297043 
L 254.944662 30.895496 
L 257.891618 29.746389 
L 260.207083 28.917693 
L 261.470064 28.722806 
L 263.013707 28.735999 
L 267.784968 29.159475 
L 272.626395 29.452868 
L 278.660637 29.511519 
L 280.414777 29.795544 
L 281.747924 30.228342 
L 283.08107 30.891151 
L 284.83521 32.038622 
L 287.431338 33.728972 
L 288.694318 34.280024 
L 289.887134 34.557096 
L 291.22028 34.624593 
L 295.430217 34.651544 
L 297.745682 35.019438 
L 299.640153 35.524998 
L 308.270522 38.267016 
L 312.199796 39.259515 
L 314.234599 39.97518 
L 316.269401 40.93848 
L 320.970497 43.35345 
L 324.619108 45.118242 
L 327.004739 46.252911 
L 328.89921 46.973115 
L 330.162191 47.196901 
L 332.056662 47.282509 
L 333.53014 47.123439 
L 335.494777 46.667509 
L 337.459414 45.962309 
L 341.178191 44.419494 
L 344.405809 42.700011 
L 345.949452 42.008263 
L 347.282599 41.662851 
L 348.685911 41.524559 
L 350.089223 41.605893 
L 351.843363 41.949542 
L 354.509656 42.474197 
L 355.632306 42.453014 
L 356.614624 42.207183 
L 357.596943 41.721759 
L 358.649427 40.940675 
L 360.052739 39.590515 
L 363.210191 36.466816 
L 364.332841 35.69561 
L 365.315159 35.282909 
L 366.367643 35.098835 
L 367.911287 35.104671 
L 370.226752 35.08795 
L 372.191389 34.829408 
L 374.08586 34.361369 
L 378.365962 32.98279 
L 379.909605 32.246709 
L 382.926726 30.712393 
L 384.470369 30.271293 
L 386.996331 29.798708 
L 388.259312 29.78892 
L 389.452127 30.00315 
L 397.310675 31.948629 
L 398.854318 32.053733 
L 400.187465 31.919234 
L 401.590777 31.532062 
L 404.25707 30.714383 
L 405.239389 30.703267 
L 406.291873 30.929079 
L 408.326675 31.680866 
L 410.221146 32.246505 
L 411.905121 32.522863 
L 413.378599 32.539428 
L 418.290191 32.31677 
L 421.447643 32.676438 
L 426.359236 33.400769 
L 430.849834 33.493847 
L 433.305631 33.488534 
L 436.954242 33.662949 
L 439.760866 33.586628 
L 441.725503 33.838969 
L 443.69014 34.297607 
L 445.303949 34.89414 
L 448.952561 36.383643 
L 450.07521 36.486458 
L 451.338191 36.362516 
L 453.372994 35.898275 
L 455.548127 35.181415 
L 458.916076 34.05701 
L 460.389554 33.82129 
L 462.143694 33.789407 
L 463.968 33.961086 
L 466.213299 34.429071 
L 469.861911 35.175274 
L 471.195057 35.205752 
L 472.528204 35.006316 
L 473.931516 34.5589 
L 475.545325 33.799743 
L 478.141452 32.539348 
L 479.193936 32.301648 
L 480.24642 32.292448 
L 481.439236 32.510773 
L 483.12321 33.066223 
L 487.333146 34.542365 
L 488.87679 34.756689 
L 490.701096 34.77689 
L 492.314904 34.582233 
L 497.717656 33.666887 
L 503.260739 33.560734 
L 505.014879 33.888887 
L 505.646369 34.045592 
L 505.646369 34.045592 
" clip-path="url(#p1857a9d0de)" style="fill: none; stroke: #e6720d; stroke-opacity: 0.8; stroke-linecap: square"/>
   </g>
   <g id="line2d_13">
    <path d="M 70.198624 34.45856 
L 97.212382 34.347072 
L 128.365911 34.126614 
L 139.24158 34.322398 
L 149.836586 34.742417 
L 160.642089 35.391505 
L 172.570242 36.337066 
L 193.269096 38.041826 
L 198.110522 38.147337 
L 202.530955 38.022162 
L 207.302217 37.656591 
L 217.616561 36.76625 
L 221.616 36.750145 
L 226.387261 36.72502 
L 228.772892 36.455186 
L 236.350777 35.361224 
L 239.648561 34.945004 
L 243.297172 34.519313 
L 246.52479 34.091614 
L 251.15572 33.275677 
L 254.383338 32.327372 
L 257.330293 31.520155 
L 266.80265 29.243862 
L 271.784408 27.883384 
L 277.537987 26.75631 
L 286.799847 25.054175 
L 292.97442 24.258396 
L 296.552866 23.682283 
L 298.728 23.574579 
L 306.446217 23.641251 
L 310.445656 23.9114 
L 312.971618 24.449338 
L 317.25172 25.534406 
L 321.461656 27.132011 
L 323.145631 27.981239 
L 325.952255 29.734216 
L 339.424051 38.432748 
L 342.511338 40.36924 
L 344.54614 41.310847 
L 351.773197 44.419917 
L 353.036178 45.349212 
L 354.369325 46.618049 
L 356.614624 49.145021 
L 358.509096 51.125349 
L 359.772076 52.127099 
L 360.894726 52.731658 
L 362.087541 53.11087 
L 364.262675 53.499319 
L 366.648306 54.005973 
L 368.191949 54.565273 
L 369.875924 55.437344 
L 371.840561 56.710705 
L 374.08586 58.439284 
L 376.331159 60.436747 
L 378.997452 62.824061 
L 380.260433 63.62332 
L 381.523414 64.155088 
L 383.137223 64.579612 
L 387.627822 65.628686 
L 389.381962 66.341993 
L 395.486369 69.128838 
L 398.573656 70.344226 
L 401.941605 71.59659 
L 404.818395 72.703696 
L 408.396841 74.157837 
L 410.361478 74.653345 
L 412.466446 74.963959 
L 419.483006 75.727178 
L 421.166981 76.292868 
L 425.306752 77.813763 
L 427.271389 78.204261 
L 429.306191 78.387564 
L 431.130497 78.331892 
L 433.656459 77.990478 
L 436.252586 77.702445 
L 438.006726 77.73394 
L 440.041529 78.007347 
L 443.05865 78.660227 
L 446.777427 79.450739 
L 449.44372 79.72422 
L 452.039847 79.802929 
L 459.056408 79.754325 
L 460.740382 80.076511 
L 462.494522 80.654728 
L 465.301146 81.874005 
L 467.335949 82.645572 
L 468.949758 83.021412 
L 470.703898 83.198438 
L 472.879032 83.187264 
L 477.790624 83.032838 
L 479.334268 83.340037 
L 481.018242 83.912939 
L 483.544204 85.052972 
L 485.719338 85.947018 
L 487.262981 86.341663 
L 488.87679 86.520739 
L 490.981758 86.518888 
L 497.436994 86.361866 
L 499.050803 86.596061 
L 500.664611 87.064163 
L 503.190573 88.070636 
L 505.646369 89.012195 
L 505.646369 89.012195 
" clip-path="url(#p1857a9d0de)" style="fill: none; stroke: #0000ff; stroke-opacity: 0.8; stroke-linecap: square"/>
   </g>
   <g id="line2d_14">
    <path d="M 70.198624 34.45856 
L 97.212382 34.347072 
L 128.365911 34.12661 
L 139.24158 34.322407 
L 149.836586 34.74243 
L 160.642089 35.391489 
L 172.570242 36.337068 
L 193.269096 38.041882 
L 198.180688 38.147145 
L 202.601121 38.01789 
L 207.372382 37.645476 
L 217.476229 36.769374 
L 221.265172 36.753795 
L 226.24693 36.734702 
L 228.632561 36.475952 
L 237.122599 35.290767 
L 246.52479 34.147806 
L 250.313732 33.401929 
L 256.558471 31.762161 
L 268.135796 28.577878 
L 274.520866 26.628614 
L 279.081631 25.338252 
L 283.712561 24.279057 
L 287.501503 23.307424 
L 292.272764 21.786562 
L 295.21972 20.927782 
L 297.535185 20.468638 
L 300.131312 20.239709 
L 307.568866 19.906528 
L 309.884331 20.027259 
L 312.340127 20.370253 
L 314.585427 20.928772 
L 316.971057 21.76109 
L 319.356688 22.836399 
L 322.233478 24.383354 
L 324.759439 25.984832 
L 328.26772 28.524543 
L 331.846166 31.36326 
L 334.582624 33.834262 
L 339.003057 38.195586 
L 342.932331 42.406403 
L 353.457172 54.105472 
L 357.31628 59.03391 
L 360.684229 63.125973 
L 366.157146 69.305178 
L 368.121783 71.262699 
L 370.437248 73.238348 
L 376.260994 77.994557 
L 379.207949 80.515452 
L 381.10242 81.820151 
L 386.785834 85.297252 
L 389.311796 86.402358 
L 397.030013 89.940846 
L 400.047134 91.234764 
L 403.555414 92.417169 
L 406.01121 93.003282 
L 409.51949 93.611514 
L 420.324994 94.879245 
L 422.429962 94.799153 
L 425.376917 94.443392 
L 433.79679 93.239478 
L 437.866395 92.920605 
L 438.989045 92.813095 
L 447.619414 91.964693 
L 450.07521 91.932744 
L 453.443159 92.187089 
L 456.670777 92.562077 
L 463.827669 93.701869 
L 473.510522 94.917281 
L 480.877911 95.994335 
L 483.263541 96.089326 
L 491.543083 96.170174 
L 494.911032 96.325642 
L 500.454115 96.686018 
L 503.681732 96.648135 
L 505.646369 96.642074 
L 505.646369 96.642074 
" clip-path="url(#p1857a9d0de)" style="fill: none; stroke: #2ca02c; stroke-opacity: 0.8; stroke-linecap: square"/>
   </g>
   <g id="line2d_15">
    <path d="M 70.198624 34.45856 
L 97.212382 34.347072 
L 128.365911 34.12661 
L 139.24158 34.322407 
L 149.836586 34.74243 
L 160.642089 35.391489 
L 172.570242 36.337068 
L 193.269096 38.041882 
L 198.180688 38.147145 
L 202.601121 38.01789 
L 207.372382 37.645476 
L 217.476229 36.769374 
L 221.265172 36.753795 
L 226.24693 36.734702 
L 228.632561 36.475952 
L 237.122599 35.290767 
L 241.402701 34.709399 
L 247.436943 33.898826 
L 251.436382 33.020153 
L 255.997146 31.683765 
L 263.013707 29.374859 
L 292.904255 19.348047 
L 296.061707 18.447572 
L 298.587669 17.909867 
L 301.674955 17.470096 
L 306.305885 17.063852 
L 309.11251 16.995661 
L 311.287643 17.174037 
L 313.532943 17.582899 
L 315.778242 18.214239 
L 317.953376 19.055319 
L 320.479338 20.280781 
L 323.215796 21.85746 
L 326.02242 23.753087 
L 329.881529 26.601095 
L 332.89865 29.103545 
L 335.915771 31.934966 
L 339.073223 35.145027 
L 342.371006 38.793781 
L 348.405248 45.736739 
L 356.333962 55.18138 
L 361.31572 61.594036 
L 365.45549 66.781685 
L 367.490293 68.993944 
L 369.875924 71.225033 
L 372.822879 73.651869 
L 377.59414 77.637039 
L 380.260433 79.745835 
L 386.785834 84.331457 
L 388.750471 85.335293 
L 393.521732 87.44033 
L 398.643822 89.574611 
L 401.310115 90.611862 
L 403.976408 91.417439 
L 407.063694 92.094463 
L 410.852637 92.724278 
L 414.15042 93.36581 
L 416.606217 93.735142 
L 418.921682 93.873745 
L 420.675822 93.75196 
L 426.850395 93.118965 
L 430.639338 92.975884 
L 434.779108 92.603013 
L 437.234904 92.236757 
L 442.427159 91.357632 
L 446.005605 91.061715 
L 448.812229 91.019098 
L 451.478522 91.226467 
L 458.775745 91.843172 
L 464.178497 92.324855 
L 467.967439 92.931344 
L 473.300025 94.058714 
L 476.387312 94.591436 
L 479.61493 94.958093 
L 482.561885 95.014128 
L 485.508841 95.144297 
L 487.894471 95.485367 
L 490.841427 95.89493 
L 497.857987 96.319101 
L 505.646369 96.457932 
L 505.646369 96.457932 
" clip-path="url(#p1857a9d0de)" style="fill: none; stroke: #ff0000; stroke-opacity: 0.8; stroke-linecap: square"/>
   </g>
   <g id="patch_3">
    <path d="M 67.392 101.52 
L 67.392 12.96 
" style="fill: none; stroke: #000000; stroke-width: 0.8; stroke-linejoin: miter; stroke-linecap: square"/>
   </g>
   <g id="patch_4">
    <path d="M 508.032 101.52 
L 508.032 12.96 
" style="fill: none; stroke: #000000; stroke-width: 0.8; stroke-linejoin: miter; stroke-linecap: square"/>
   </g>
   <g id="patch_5">
    <path d="M 67.392 101.52 
L 508.032 101.52 
" style="fill: none; stroke: #000000; stroke-width: 0.8; stroke-linejoin: miter; stroke-linecap: square"/>
   </g>
   <g id="patch_6">
    <path d="M 67.392 12.96 
L 508.032 12.96 
" style="fill: none; stroke: #000000; stroke-width: 0.8; stroke-linejoin: miter; stroke-linecap: square"/>
   </g>
   <g id="legend_1">
    <g id="patch_7">
     <path d="M 75.792 95.52 
L 344.188875 95.52 
Q 346.588875 95.52 346.588875 93.12 
L 346.588875 63.8925 
Q 346.588875 61.4925 344.188875 61.4925 
L 75.792 61.4925 
Q 73.392 61.4925 73.392 63.8925 
L 73.392 93.12 
Q 73.392 95.52 75.792 95.52 
z
" style="fill: #ffffff; opacity: 0.6; stroke: #cccccc; stroke-linejoin: miter"/>
    </g>
    <g id="line2d_16">
     <path d="M 75.792 68.810625 
L 87.792 68.810625 
L 99.792 68.810625 
" style="fill: none; stroke: #000000; stroke-width: 1.1; stroke-linecap: square"/>
    </g>
    <g id="text_13">
     <!-- Grid -->
     <g transform="translate(109.392 73.010625) scale(0.12 -0.12)">
      <defs>
       <path id="DejaVuSans-47" d="M 3809 666 
L 3809 1919 
L 2778 1919 
L 2778 2438 
L 4434 2438 
L 4434 434 
Q 4069 175 3628 42 
Q 3188 -91 2688 -91 
Q 1594 -91 976 548 
Q 359 1188 359 2328 
Q 359 3472 976 4111 
Q 1594 4750 2688 4750 
Q 3144 4750 3555 4637 
Q 3966 4525 4313 4306 
L 4313 3634 
Q 3963 3931 3569 4081 
Q 3175 4231 2741 4231 
Q 1884 4231 1454 3753 
Q 1025 3275 1025 2328 
Q 1025 1384 1454 906 
Q 1884 428 2741 428 
Q 3075 428 3337 486 
Q 3600 544 3809 666 
z
" transform="scale(0.015625)"/>
       <path id="DejaVuSans-72" d="M 2631 2963 
Q 2534 3019 2420 3045 
Q 2306 3072 2169 3072 
Q 1681 3072 1420 2755 
Q 1159 2438 1159 1844 
L 1159 0 
L 581 0 
L 581 3500 
L 1159 3500 
L 1159 2956 
Q 1341 3275 1631 3429 
Q 1922 3584 2338 3584 
Q 2397 3584 2469 3576 
Q 2541 3569 2628 3553 
L 2631 2963 
z
" transform="scale(0.015625)"/>
       <path id="DejaVuSans-64" d="M 2906 2969 
L 2906 4863 
L 3481 4863 
L 3481 0 
L 2906 0 
L 2906 525 
Q 2725 213 2448 61 
Q 2172 -91 1784 -91 
Q 1150 -91 751 415 
Q 353 922 353 1747 
Q 353 2572 751 3078 
Q 1150 3584 1784 3584 
Q 2172 3584 2448 3432 
Q 2725 3281 2906 2969 
z
M 947 1747 
Q 947 1113 1208 752 
Q 1469 391 1925 391 
Q 2381 391 2643 752 
Q 2906 1113 2906 1747 
Q 2906 2381 2643 2742 
Q 2381 3103 1925 3103 
Q 1469 3103 1208 2742 
Q 947 2381 947 1747 
z
" transform="scale(0.015625)"/>
      </defs>
      <use xlink:href="#DejaVuSans-47"/>
      <use xlink:href="#DejaVuSans-72" x="77.490234"/>
      <use xlink:href="#DejaVuSans-69" x="118.603516"/>
      <use xlink:href="#DejaVuSans-64" x="146.386719"/>
     </g>
    </g>
    <g id="line2d_17">
     <path d="M 75.792 86.424375 
L 87.792 86.424375 
L 99.792 86.424375 
" style="fill: none; stroke: #e6720d; stroke-opacity: 0.8; stroke-linecap: square"/>
    </g>
    <g id="text_14">
     <!-- frozen -->
     <g transform="translate(109.392 90.624375) scale(0.12 -0.12)">
      <defs>
       <path id="DejaVuSans-66" d="M 2375 4863 
L 2375 4384 
L 1825 4384 
Q 1516 4384 1395 4259 
Q 1275 4134 1275 3809 
L 1275 3500 
L 2222 3500 
L 2222 3053 
L 1275 3053 
L 1275 0 
L 697 0 
L 697 3053 
L 147 3053 
L 147 3500 
L 697 3500 
L 697 3744 
Q 697 4328 969 4595 
Q 1241 4863 1831 4863 
L 2375 4863 
z
" transform="scale(0.015625)"/>
       <path id="DejaVuSans-6f" d="M 1959 3097 
Q 1497 3097 1228 2736 
Q 959 2375 959 1747 
Q 959 1119 1226 758 
Q 1494 397 1959 397 
Q 2419 397 2687 759 
Q 2956 1122 2956 1747 
Q 2956 2369 2687 2733 
Q 2419 3097 1959 3097 
z
M 1959 3584 
Q 2709 3584 3137 3096 
Q 3566 2609 3566 1747 
Q 3566 888 3137 398 
Q 2709 -91 1959 -91 
Q 1206 -91 779 398 
Q 353 888 353 1747 
Q 353 2609 779 3096 
Q 1206 3584 1959 3584 
z
" transform="scale(0.015625)"/>
       <path id="DejaVuSans-7a" d="M 353 3500 
L 3084 3500 
L 3084 2975 
L 922 459 
L 3084 459 
L 3084 0 
L 275 0 
L 275 525 
L 2438 3041 
L 353 3041 
L 353 3500 
z
" transform="scale(0.015625)"/>
       <path id="DejaVuSans-6e" d="M 3513 2113 
L 3513 0 
L 2938 0 
L 2938 2094 
Q 2938 2591 2744 2837 
Q 2550 3084 2163 3084 
Q 1697 3084 1428 2787 
Q 1159 2491 1159 1978 
L 1159 0 
L 581 0 
L 581 3500 
L 1159 3500 
L 1159 2956 
Q 1366 3272 1645 3428 
Q 1925 3584 2291 3584 
Q 2894 3584 3203 3211 
Q 3513 2838 3513 2113 
z
" transform="scale(0.015625)"/>
      </defs>
      <use xlink:href="#DejaVuSans-66"/>
      <use xlink:href="#DejaVuSans-72" x="35.205078"/>
      <use xlink:href="#DejaVuSans-6f" x="74.068359"/>
      <use xlink:href="#DejaVuSans-7a" x="135.25"/>
      <use xlink:href="#DejaVuSans-65" x="187.740234"/>
      <use xlink:href="#DejaVuSans-6e" x="249.263672"/>
     </g>
    </g>
    <g id="line2d_18">
     <path d="M 152.908875 68.810625 
L 164.908875 68.810625 
L 176.908875 68.810625 
" style="fill: none; stroke: #0000ff; stroke-opacity: 0.8; stroke-linecap: square"/>
    </g>
    <g id="text_15">
     <!-- $M_{max}=38$ -->
     <g transform="translate(186.508875 73.010625) scale(0.12 -0.12)">
      <defs>
       <path id="DejaVuSans-Oblique-4d" d="M 1081 4666 
L 2028 4666 
L 2572 1522 
L 4378 4666 
L 5350 4666 
L 4441 0 
L 3828 0 
L 4622 4091 
L 2791 897 
L 2175 897 
L 1581 4103 
L 788 0 
L 172 0 
L 1081 4666 
z
" transform="scale(0.015625)"/>
       <path id="DejaVuSans-Oblique-6d" d="M 5747 2113 
L 5338 0 
L 4763 0 
L 5166 2094 
Q 5191 2228 5203 2325 
Q 5216 2422 5216 2491 
Q 5216 2772 5059 2928 
Q 4903 3084 4622 3084 
Q 4203 3084 3875 2770 
Q 3547 2456 3450 1953 
L 3066 0 
L 2491 0 
L 2900 2094 
Q 2925 2209 2937 2307 
Q 2950 2406 2950 2484 
Q 2950 2769 2794 2926 
Q 2638 3084 2363 3084 
Q 1938 3084 1609 2770 
Q 1281 2456 1184 1953 
L 800 0 
L 225 0 
L 909 3500 
L 1484 3500 
L 1375 2956 
Q 1609 3263 1923 3423 
Q 2238 3584 2597 3584 
Q 2978 3584 3223 3384 
Q 3469 3184 3519 2828 
Q 3781 3197 4126 3390 
Q 4472 3584 4856 3584 
Q 5306 3584 5551 3325 
Q 5797 3066 5797 2591 
Q 5797 2488 5784 2364 
Q 5772 2241 5747 2113 
z
" transform="scale(0.015625)"/>
       <path id="DejaVuSans-Oblique-61" d="M 3438 1997 
L 3047 0 
L 2472 0 
L 2578 531 
Q 2325 219 2001 64 
Q 1678 -91 1281 -91 
Q 834 -91 548 182 
Q 263 456 263 884 
Q 263 1497 752 1853 
Q 1241 2209 2100 2209 
L 2900 2209 
L 2931 2363 
Q 2938 2388 2941 2417 
Q 2944 2447 2944 2509 
Q 2944 2788 2717 2942 
Q 2491 3097 2081 3097 
Q 1800 3097 1504 3025 
Q 1209 2953 897 2809 
L 997 3341 
Q 1322 3463 1633 3523 
Q 1944 3584 2234 3584 
Q 2853 3584 3176 3315 
Q 3500 3047 3500 2534 
Q 3500 2431 3484 2292 
Q 3469 2153 3438 1997 
z
M 2816 1759 
L 2241 1759 
Q 1534 1759 1195 1570 
Q 856 1381 856 984 
Q 856 709 1029 553 
Q 1203 397 1509 397 
Q 1978 397 2328 733 
Q 2678 1069 2791 1631 
L 2816 1759 
z
" transform="scale(0.015625)"/>
       <path id="DejaVuSans-Oblique-78" d="M 3841 3500 
L 2234 1784 
L 3219 0 
L 2559 0 
L 1819 1388 
L 531 0 
L -166 0 
L 1556 1844 
L 641 3500 
L 1300 3500 
L 1972 2234 
L 3144 3500 
L 3841 3500 
z
" transform="scale(0.015625)"/>
       <path id="DejaVuSans-3d" d="M 678 2906 
L 4684 2906 
L 4684 2381 
L 678 2381 
L 678 2906 
z
M 678 1631 
L 4684 1631 
L 4684 1100 
L 678 1100 
L 678 1631 
z
" transform="scale(0.015625)"/>
       <path id="DejaVuSans-38" d="M 2034 2216 
Q 1584 2216 1326 1975 
Q 1069 1734 1069 1313 
Q 1069 891 1326 650 
Q 1584 409 2034 409 
Q 2484 409 2743 651 
Q 3003 894 3003 1313 
Q 3003 1734 2745 1975 
Q 2488 2216 2034 2216 
z
M 1403 2484 
Q 997 2584 770 2862 
Q 544 3141 544 3541 
Q 544 4100 942 4425 
Q 1341 4750 2034 4750 
Q 2731 4750 3128 4425 
Q 3525 4100 3525 3541 
Q 3525 3141 3298 2862 
Q 3072 2584 2669 2484 
Q 3125 2378 3379 2068 
Q 3634 1759 3634 1313 
Q 3634 634 3220 271 
Q 2806 -91 2034 -91 
Q 1263 -91 848 271 
Q 434 634 434 1313 
Q 434 1759 690 2068 
Q 947 2378 1403 2484 
z
M 1172 3481 
Q 1172 3119 1398 2916 
Q 1625 2713 2034 2713 
Q 2441 2713 2670 2916 
Q 2900 3119 2900 3481 
Q 2900 3844 2670 4047 
Q 2441 4250 2034 4250 
Q 1625 4250 1398 4047 
Q 1172 3844 1172 3481 
z
" transform="scale(0.015625)"/>
      </defs>
      <use xlink:href="#DejaVuSans-Oblique-4d" transform="translate(0 0.78125)"/>
      <use xlink:href="#DejaVuSans-Oblique-6d" transform="translate(86.279297 -15.625) scale(0.7)"/>
      <use xlink:href="#DejaVuSans-Oblique-61" transform="translate(154.467773 -15.625) scale(0.7)"/>
      <use xlink:href="#DejaVuSans-Oblique-78" transform="translate(197.363281 -15.625) scale(0.7)"/>
      <use xlink:href="#DejaVuSans-3d" transform="translate(261.005859 0.78125)"/>
      <use xlink:href="#DejaVuSans-33" transform="translate(364.277344 0.78125)"/>
      <use xlink:href="#DejaVuSans-38" transform="translate(427.900391 0.78125)"/>
     </g>
    </g>
    <g id="line2d_19">
     <path d="M 152.908875 86.424375 
L 164.908875 86.424375 
L 176.908875 86.424375 
" style="fill: none; stroke: #2ca02c; stroke-opacity: 0.8; stroke-linecap: square"/>
    </g>
    <g id="text_16">
     <!-- $M_{max}=72$ -->
     <g transform="translate(186.508875 90.624375) scale(0.12 -0.12)">
      <defs>
       <path id="DejaVuSans-37" d="M 525 4666 
L 3525 4666 
L 3525 4397 
L 1831 0 
L 1172 0 
L 2766 4134 
L 525 4134 
L 525 4666 
z
" transform="scale(0.015625)"/>
      </defs>
      <use xlink:href="#DejaVuSans-Oblique-4d" transform="translate(0 0.78125)"/>
      <use xlink:href="#DejaVuSans-Oblique-6d" transform="translate(86.279297 -15.625) scale(0.7)"/>
      <use xlink:href="#DejaVuSans-Oblique-61" transform="translate(154.467773 -15.625) scale(0.7)"/>
      <use xlink:href="#DejaVuSans-Oblique-78" transform="translate(197.363281 -15.625) scale(0.7)"/>
      <use xlink:href="#DejaVuSans-3d" transform="translate(261.005859 0.78125)"/>
      <use xlink:href="#DejaVuSans-37" transform="translate(364.277344 0.78125)"/>
      <use xlink:href="#DejaVuSans-32" transform="translate(427.900391 0.78125)"/>
     </g>
    </g>
    <g id="line2d_20">
     <path d="M 251.548875 68.810625 
L 263.548875 68.810625 
L 275.548875 68.810625 
" style="fill: none; stroke: #ff0000; stroke-opacity: 0.8; stroke-linecap: square"/>
    </g>
    <g id="text_17">
     <!-- $M_{max}=95$ -->
     <g transform="translate(285.148875 73.010625) scale(0.12 -0.12)">
      <defs>
       <path id="DejaVuSans-39" d="M 703 97 
L 703 672 
Q 941 559 1184 500 
Q 1428 441 1663 441 
Q 2288 441 2617 861 
Q 2947 1281 2994 2138 
Q 2813 1869 2534 1725 
Q 2256 1581 1919 1581 
Q 1219 1581 811 2004 
Q 403 2428 403 3163 
Q 403 3881 828 4315 
Q 1253 4750 1959 4750 
Q 2769 4750 3195 4129 
Q 3622 3509 3622 2328 
Q 3622 1225 3098 567 
Q 2575 -91 1691 -91 
Q 1453 -91 1209 -44 
Q 966 3 703 97 
z
M 1959 2075 
Q 2384 2075 2632 2365 
Q 2881 2656 2881 3163 
Q 2881 3666 2632 3958 
Q 2384 4250 1959 4250 
Q 1534 4250 1286 3958 
Q 1038 3666 1038 3163 
Q 1038 2656 1286 2365 
Q 1534 2075 1959 2075 
z
" transform="scale(0.015625)"/>
      </defs>
      <use xlink:href="#DejaVuSans-Oblique-4d" transform="translate(0 0.78125)"/>
      <use xlink:href="#DejaVuSans-Oblique-6d" transform="translate(86.279297 -15.625) scale(0.7)"/>
      <use xlink:href="#DejaVuSans-Oblique-61" transform="translate(154.467773 -15.625) scale(0.7)"/>
      <use xlink:href="#DejaVuSans-Oblique-78" transform="translate(197.363281 -15.625) scale(0.7)"/>
      <use xlink:href="#DejaVuSans-3d" transform="translate(261.005859 0.78125)"/>
      <use xlink:href="#DejaVuSans-39" transform="translate(364.277344 0.78125)"/>
      <use xlink:href="#DejaVuSans-35" transform="translate(427.900391 0.78125)"/>
     </g>
    </g>
   </g>
  </g>
  <g id="axes_2">
   <g id="patch_8">
    <path d="M 67.392 225.504 
L 508.032 225.504 
L 508.032 136.944 
L 67.392 136.944 
z
" style="fill: #ffffff"/>
   </g>
   <g id="matplotlib.axis_3">
    <g id="xtick_8">
     <g id="line2d_21">
      <g>
       <use xlink:href="#mbb54ca195e" x="111.951101" y="225.504" style="stroke: #000000; stroke-width: 0.8"/>
      </g>
     </g>
     <g id="text_18">
      <!-- 10 -->
      <g transform="translate(105.588601 240.102438) scale(0.1 -0.1)">
       <use xlink:href="#DejaVuSans-31"/>
       <use xlink:href="#DejaVuSans-30" x="63.623047"/>
      </g>
     </g>
    </g>
    <g id="xtick_9">
     <g id="line2d_22">
      <g>
       <use xlink:href="#mbb54ca195e" x="161.461213" y="225.504" style="stroke: #000000; stroke-width: 0.8"/>
      </g>
     </g>
     <g id="text_19">
      <!-- 20 -->
      <g transform="translate(155.098713 240.102438) scale(0.1 -0.1)">
       <use xlink:href="#DejaVuSans-32"/>
       <use xlink:href="#DejaVuSans-30" x="63.623047"/>
      </g>
     </g>
    </g>
    <g id="xtick_10">
     <g id="line2d_23">
      <g>
       <use xlink:href="#mbb54ca195e" x="210.971326" y="225.504" style="stroke: #000000; stroke-width: 0.8"/>
      </g>
     </g>
     <g id="text_20">
      <!-- 30 -->
      <g transform="translate(204.608826 240.102438) scale(0.1 -0.1)">
       <use xlink:href="#DejaVuSans-33"/>
       <use xlink:href="#DejaVuSans-30" x="63.623047"/>
      </g>
     </g>
    </g>
    <g id="xtick_11">
     <g id="line2d_24">
      <g>
       <use xlink:href="#mbb54ca195e" x="260.481438" y="225.504" style="stroke: #000000; stroke-width: 0.8"/>
      </g>
     </g>
     <g id="text_21">
      <!-- 40 -->
      <g transform="translate(254.118938 240.102438) scale(0.1 -0.1)">
       <defs>
        <path id="DejaVuSans-34" d="M 2419 4116 
L 825 1625 
L 2419 1625 
L 2419 4116 
z
M 2253 4666 
L 3047 4666 
L 3047 1625 
L 3713 1625 
L 3713 1100 
L 3047 1100 
L 3047 0 
L 2419 0 
L 2419 1100 
L 313 1100 
L 313 1709 
L 2253 4666 
z
" transform="scale(0.015625)"/>
       </defs>
       <use xlink:href="#DejaVuSans-34"/>
       <use xlink:href="#DejaVuSans-30" x="63.623047"/>
      </g>
     </g>
    </g>
    <g id="xtick_12">
     <g id="line2d_25">
      <g>
       <use xlink:href="#mbb54ca195e" x="309.991551" y="225.504" style="stroke: #000000; stroke-width: 0.8"/>
      </g>
     </g>
     <g id="text_22">
      <!-- 50 -->
      <g transform="translate(303.629051 240.102438) scale(0.1 -0.1)">
       <use xlink:href="#DejaVuSans-35"/>
       <use xlink:href="#DejaVuSans-30" x="63.623047"/>
      </g>
     </g>
    </g>
    <g id="xtick_13">
     <g id="line2d_26">
      <g>
       <use xlink:href="#mbb54ca195e" x="359.501663" y="225.504" style="stroke: #000000; stroke-width: 0.8"/>
      </g>
     </g>
     <g id="text_23">
      <!-- 60 -->
      <g transform="translate(353.139163 240.102438) scale(0.1 -0.1)">
       <defs>
        <path id="DejaVuSans-36" d="M 2113 2584 
Q 1688 2584 1439 2293 
Q 1191 2003 1191 1497 
Q 1191 994 1439 701 
Q 1688 409 2113 409 
Q 2538 409 2786 701 
Q 3034 994 3034 1497 
Q 3034 2003 2786 2293 
Q 2538 2584 2113 2584 
z
M 3366 4563 
L 3366 3988 
Q 3128 4100 2886 4159 
Q 2644 4219 2406 4219 
Q 1781 4219 1451 3797 
Q 1122 3375 1075 2522 
Q 1259 2794 1537 2939 
Q 1816 3084 2150 3084 
Q 2853 3084 3261 2657 
Q 3669 2231 3669 1497 
Q 3669 778 3244 343 
Q 2819 -91 2113 -91 
Q 1303 -91 875 529 
Q 447 1150 447 2328 
Q 447 3434 972 4092 
Q 1497 4750 2381 4750 
Q 2619 4750 2861 4703 
Q 3103 4656 3366 4563 
z
" transform="scale(0.015625)"/>
       </defs>
       <use xlink:href="#DejaVuSans-36"/>
       <use xlink:href="#DejaVuSans-30" x="63.623047"/>
      </g>
     </g>
    </g>
    <g id="xtick_14">
     <g id="line2d_27">
      <g>
       <use xlink:href="#mbb54ca195e" x="409.011775" y="225.504" style="stroke: #000000; stroke-width: 0.8"/>
      </g>
     </g>
     <g id="text_24">
      <!-- 70 -->
      <g transform="translate(402.649275 240.102438) scale(0.1 -0.1)">
       <use xlink:href="#DejaVuSans-37"/>
       <use xlink:href="#DejaVuSans-30" x="63.623047"/>
      </g>
     </g>
    </g>
    <g id="xtick_15">
     <g id="line2d_28">
      <g>
       <use xlink:href="#mbb54ca195e" x="458.521888" y="225.504" style="stroke: #000000; stroke-width: 0.8"/>
      </g>
     </g>
     <g id="text_25">
      <!-- 80 -->
      <g transform="translate(452.159388 240.102438) scale(0.1 -0.1)">
       <use xlink:href="#DejaVuSans-38"/>
       <use xlink:href="#DejaVuSans-30" x="63.623047"/>
      </g>
     </g>
    </g>
    <g id="xtick_16">
     <g id="line2d_29">
      <g>
       <use xlink:href="#mbb54ca195e" x="508.032" y="225.504" style="stroke: #000000; stroke-width: 0.8"/>
      </g>
     </g>
     <g id="text_26">
      <!-- 90 -->
      <g transform="translate(501.6695 240.102438) scale(0.1 -0.1)">
       <use xlink:href="#DejaVuSans-39"/>
       <use xlink:href="#DejaVuSans-30" x="63.623047"/>
      </g>
     </g>
    </g>
    <g id="text_27">
     <!-- Harmonic order -->
     <g transform="translate(233.179812 256.819938) scale(0.14 -0.14)">
      <defs>
       <path id="DejaVuSans-48" d="M 628 4666 
L 1259 4666 
L 1259 2753 
L 3553 2753 
L 3553 4666 
L 4184 4666 
L 4184 0 
L 3553 0 
L 3553 2222 
L 1259 2222 
L 1259 0 
L 628 0 
L 628 4666 
z
" transform="scale(0.015625)"/>
       <path id="DejaVuSans-63" d="M 3122 3366 
L 3122 2828 
Q 2878 2963 2633 3030 
Q 2388 3097 2138 3097 
Q 1578 3097 1268 2742 
Q 959 2388 959 1747 
Q 959 1106 1268 751 
Q 1578 397 2138 397 
Q 2388 397 2633 464 
Q 2878 531 3122 666 
L 3122 134 
Q 2881 22 2623 -34 
Q 2366 -91 2075 -91 
Q 1284 -91 818 406 
Q 353 903 353 1747 
Q 353 2603 823 3093 
Q 1294 3584 2113 3584 
Q 2378 3584 2631 3529 
Q 2884 3475 3122 3366 
z
" transform="scale(0.015625)"/>
      </defs>
      <use xlink:href="#DejaVuSans-48"/>
      <use xlink:href="#DejaVuSans-61" x="75.195312"/>
      <use xlink:href="#DejaVuSans-72" x="136.474609"/>
      <use xlink:href="#DejaVuSans-6d" x="175.837891"/>
      <use xlink:href="#DejaVuSans-6f" x="273.25"/>
      <use xlink:href="#DejaVuSans-6e" x="334.431641"/>
      <use xlink:href="#DejaVuSans-69" x="397.810547"/>
      <use xlink:href="#DejaVuSans-63" x="425.59375"/>
      <use xlink:href="#DejaVuSans-20" x="480.574219"/>
      <use xlink:href="#DejaVuSans-6f" x="512.361328"/>
      <use xlink:href="#DejaVuSans-72" x="573.542969"/>
      <use xlink:href="#DejaVuSans-64" x="612.90625"/>
      <use xlink:href="#DejaVuSans-65" x="676.382812"/>
      <use xlink:href="#DejaVuSans-72" x="737.90625"/>
     </g>
    </g>
   </g>
   <g id="matplotlib.axis_4">
    <g id="ytick_4">
     <g id="line2d_30">
      <g>
       <use xlink:href="#m45feece2e8" x="67.392" y="208.921791" style="stroke: #000000; stroke-width: 0.8"/>
      </g>
     </g>
     <g id="text_28">
      <!-- $\mathdefault{10^{0}}$ -->
      <g transform="translate(42.792 212.72101) scale(0.1 -0.1)">
       <use xlink:href="#DejaVuSans-31" transform="translate(0 0.765625)"/>
       <use xlink:href="#DejaVuSans-30" transform="translate(63.623047 0.765625)"/>
       <use xlink:href="#DejaVuSans-30" transform="translate(128.203125 39.046875) scale(0.7)"/>
      </g>
     </g>
    </g>
    <g id="ytick_5">
     <g id="line2d_31">
      <g>
       <use xlink:href="#m45feece2e8" x="67.392" y="184.108153" style="stroke: #000000; stroke-width: 0.8"/>
      </g>
     </g>
     <g id="text_29">
      <!-- $\mathdefault{10^{3}}$ -->
      <g transform="translate(42.792 187.907372) scale(0.1 -0.1)">
       <use xlink:href="#DejaVuSans-31" transform="translate(0 0.765625)"/>
       <use xlink:href="#DejaVuSans-30" transform="translate(63.623047 0.765625)"/>
       <use xlink:href="#DejaVuSans-33" transform="translate(128.203125 39.046875) scale(0.7)"/>
      </g>
     </g>
    </g>
    <g id="ytick_6">
     <g id="line2d_32">
      <g>
       <use xlink:href="#m45feece2e8" x="67.392" y="159.294515" style="stroke: #000000; stroke-width: 0.8"/>
      </g>
     </g>
     <g id="text_30">
      <!-- $\mathdefault{10^{6}}$ -->
      <g transform="translate(42.792 163.093733) scale(0.1 -0.1)">
       <use xlink:href="#DejaVuSans-31" transform="translate(0 0.765625)"/>
       <use xlink:href="#DejaVuSans-30" transform="translate(63.623047 0.765625)"/>
       <use xlink:href="#DejaVuSans-36" transform="translate(128.203125 39.046875) scale(0.7)"/>
      </g>
     </g>
    </g>
    <g id="text_31">
     <!-- Intensity -->
     <g transform="translate(35.880437 211.6915) rotate(-90) scale(0.14 -0.14)">
      <defs>
       <path id="DejaVuSans-49" d="M 628 4666 
L 1259 4666 
L 1259 0 
L 628 0 
L 628 4666 
z
" transform="scale(0.015625)"/>
       <path id="DejaVuSans-74" d="M 1172 4494 
L 1172 3500 
L 2356 3500 
L 2356 3053 
L 1172 3053 
L 1172 1153 
Q 1172 725 1289 603 
Q 1406 481 1766 481 
L 2356 481 
L 2356 0 
L 1766 0 
Q 1100 0 847 248 
Q 594 497 594 1153 
L 594 3053 
L 172 3053 
L 172 3500 
L 594 3500 
L 594 4494 
L 1172 4494 
z
" transform="scale(0.015625)"/>
       <path id="DejaVuSans-73" d="M 2834 3397 
L 2834 2853 
Q 2591 2978 2328 3040 
Q 2066 3103 1784 3103 
Q 1356 3103 1142 2972 
Q 928 2841 928 2578 
Q 928 2378 1081 2264 
Q 1234 2150 1697 2047 
L 1894 2003 
Q 2506 1872 2764 1633 
Q 3022 1394 3022 966 
Q 3022 478 2636 193 
Q 2250 -91 1575 -91 
Q 1294 -91 989 -36 
Q 684 19 347 128 
L 347 722 
Q 666 556 975 473 
Q 1284 391 1588 391 
Q 1994 391 2212 530 
Q 2431 669 2431 922 
Q 2431 1156 2273 1281 
Q 2116 1406 1581 1522 
L 1381 1569 
Q 847 1681 609 1914 
Q 372 2147 372 2553 
Q 372 3047 722 3315 
Q 1072 3584 1716 3584 
Q 2034 3584 2315 3537 
Q 2597 3491 2834 3397 
z
" transform="scale(0.015625)"/>
       <path id="DejaVuSans-79" d="M 2059 -325 
Q 1816 -950 1584 -1140 
Q 1353 -1331 966 -1331 
L 506 -1331 
L 506 -850 
L 844 -850 
Q 1081 -850 1212 -737 
Q 1344 -625 1503 -206 
L 1606 56 
L 191 3500 
L 800 3500 
L 1894 763 
L 2988 3500 
L 3597 3500 
L 2059 -325 
z
" transform="scale(0.015625)"/>
      </defs>
      <use xlink:href="#DejaVuSans-49"/>
      <use xlink:href="#DejaVuSans-6e" x="29.492188"/>
      <use xlink:href="#DejaVuSans-74" x="92.871094"/>
      <use xlink:href="#DejaVuSans-65" x="132.080078"/>
      <use xlink:href="#DejaVuSans-6e" x="193.603516"/>
      <use xlink:href="#DejaVuSans-73" x="256.982422"/>
      <use xlink:href="#DejaVuSans-69" x="309.082031"/>
      <use xlink:href="#DejaVuSans-74" x="336.865234"/>
      <use xlink:href="#DejaVuSans-79" x="376.074219"/>
     </g>
    </g>
   </g>
   <g id="line2d_33">
    <path d="M 67.391693 137.932343 
L 69.041928 143.098376 
L 70.692162 147.531686 
L 72.342397 155.671453 
L 73.992632 161.615772 
L 75.642867 159.404188 
L 77.293101 163.856216 
L 78.943336 159.401266 
L 80.593571 163.768129 
L 82.243806 164.555412 
L 83.89404 166.389683 
L 85.544275 176.968852 
L 87.19451 162.918049 
L 88.844744 162.975901 
L 90.494979 169.484616 
L 92.145214 161.802927 
L 93.795449 160.535815 
L 95.445683 166.889811 
L 97.095918 161.219756 
L 98.746153 159.788595 
L 100.396388 161.951832 
L 102.046622 165.359809 
L 103.696857 163.520962 
L 105.347092 168.456086 
L 106.997326 165.08287 
L 108.647561 168.355912 
L 110.297796 173.536745 
L 111.948031 175.014858 
L 113.598265 173.37705 
L 115.2485 172.906183 
L 116.898735 171.325411 
L 118.54897 165.565828 
L 120.199204 169.374849 
L 121.849439 179.731562 
L 123.499674 171.13534 
L 125.149908 174.266273 
L 126.800143 176.828802 
L 128.450378 168.515614 
L 130.100613 169.551292 
L 131.750847 177.920412 
L 133.401082 171.004051 
L 135.051317 173.515678 
L 136.701552 178.19135 
L 138.351786 171.625568 
L 140.002021 175.429381 
L 141.652256 184.28731 
L 143.30249 177.085038 
L 144.952725 175.363482 
L 146.60296 186.957747 
L 148.253195 172.692398 
L 149.903429 173.112599 
L 151.553664 191.884288 
L 153.203899 175.312692 
L 154.854134 177.405668 
L 156.504368 178.330389 
L 158.154603 170.440539 
L 159.804838 170.781486 
L 161.455072 177.513306 
L 163.105307 173.978101 
L 164.755542 176.628201 
L 166.405777 183.38864 
L 168.056011 175.020771 
L 169.706246 174.402426 
L 171.356481 179.985869 
L 173.006716 176.45743 
L 174.65695 176.96973 
L 176.307185 182.33807 
L 177.95742 176.191744 
L 179.607654 177.029413 
L 181.257889 182.999762 
L 182.908124 182.539145 
L 184.558359 180.1173 
L 186.208593 186.696485 
L 187.858828 180.435042 
L 189.509063 178.208283 
L 191.159298 182.91558 
L 192.809532 178.427184 
L 194.459767 181.284211 
L 196.110002 182.41937 
L 197.760237 178.603028 
L 199.410471 184.583965 
L 201.060706 180.234516 
L 202.710941 180.647287 
L 204.361175 181.691007 
L 206.01141 179.607967 
L 207.661645 185.241232 
L 209.31188 184.316725 
L 210.962114 182.971898 
L 212.612349 199.68422 
L 214.262584 184.653601 
L 215.912819 182.725162 
L 217.563053 186.402534 
L 219.213288 198.007085 
L 220.863523 188.481373 
L 222.513757 184.288078 
L 224.163992 186.075359 
L 225.814227 192.745575 
L 227.464462 195.301156 
L 229.114696 195.65237 
L 232.415166 189.010278 
L 234.065401 188.96532 
L 235.715635 189.884368 
L 237.36587 190.106258 
L 239.016105 195.681038 
L 240.666339 192.566806 
L 242.316574 189.07613 
L 243.966809 189.867842 
L 245.617044 189.892055 
L 247.267278 191.538352 
L 248.917513 194.344341 
L 250.567748 194.254531 
L 252.217983 192.149268 
L 253.868217 190.357453 
L 255.518452 191.274938 
L 257.168687 191.834617 
L 258.818921 195.587067 
L 260.469156 202.763995 
L 262.119391 190.594374 
L 263.769626 187.204618 
L 265.41986 187.665527 
L 267.070095 188.894933 
L 268.72033 194.853833 
L 270.370565 198.835621 
L 272.020799 193.67612 
L 273.671034 194.241169 
L 275.321269 196.483046 
L 276.971503 194.854671 
L 278.621738 195.675752 
L 280.271973 203.31104 
L 281.922208 191.72874 
L 283.572442 186.542266 
L 285.222677 185.486215 
L 286.872912 187.769877 
L 288.523147 196.168257 
L 290.173381 191.841653 
L 291.823616 187.159039 
L 293.473851 185.362292 
L 295.124085 186.360822 
L 296.77432 189.381644 
L 298.424555 196.811572 
L 300.07479 202.182041 
L 301.725024 209.014826 
L 303.375259 201.167795 
L 305.025494 192.469011 
L 306.675729 190.182608 
L 308.325963 190.056601 
L 309.976198 189.453132 
L 311.626433 186.872779 
L 313.276668 184.042088 
L 314.926902 182.552445 
L 316.577137 182.891945 
L 318.227372 184.592444 
L 319.877606 186.753319 
L 321.527841 184.800178 
L 323.178076 182.113725 
L 324.828311 181.22648 
L 326.478545 181.959996 
L 328.12878 184.104415 
L 329.779015 187.045499 
L 331.42925 185.996087 
L 333.079484 183.840701 
L 334.729719 183.50263 
L 336.379954 184.511721 
L 338.030188 187.071806 
L 339.680423 190.95707 
L 341.330658 190.660848 
L 342.980893 188.582431 
L 344.631127 188.36801 
L 346.281362 189.210686 
L 347.931597 192.353494 
L 349.581832 198.174254 
L 351.232066 200.764254 
L 352.882301 196.61712 
L 354.532536 195.596387 
L 356.18277 195.731656 
L 359.48324 202.802961 
L 361.133475 222.608514 
L 362.783709 208.190788 
L 364.433944 205.414627 
L 366.084179 205.641636 
L 367.734414 210.843105 
L 369.384648 211.216014 
L 371.034883 215.906318 
L 372.685118 219.57735 
L 374.335352 217.358059 
L 375.985587 213.618094 
L 377.635822 219.226124 
L 379.286057 211.098055 
L 380.936291 217.340199 
L 382.586526 211.163021 
L 384.236761 216.659218 
L 385.886996 214.325945 
L 387.53723 213.859741 
L 389.187465 223.667899 
L 390.8377 214.559279 
L 392.487934 214.920766 
L 394.138169 215.739942 
L 395.788404 210.523185 
L 397.438639 207.526244 
L 399.088873 210.537629 
L 400.739108 209.527581 
L 402.389343 223.030924 
L 404.039578 214.278646 
L 405.689812 208.496544 
L 407.340047 207.542632 
L 410.640516 209.834396 
L 412.290751 216.844214 
L 413.940986 218.381486 
L 415.591221 209.045997 
L 417.241455 210.386731 
L 418.89169 209.372353 
L 420.541925 213.299035 
L 422.19216 217.570305 
L 423.842394 223.020664 
L 425.492629 210.877222 
L 427.142864 215.45495 
L 428.793099 211.781733 
L 430.443333 220.42483 
L 432.093568 219.49527 
L 433.743803 219.449151 
L 435.394037 214.253963 
L 437.044272 222.966496 
L 438.694507 215.163069 
L 440.344742 224.470605 
L 441.994976 220.720273 
L 443.645211 219.58275 
L 445.295446 218.059397 
L 446.945681 223.03209 
L 448.595915 217.769037 
L 450.24615 223.433475 
L 453.546619 219.356269 
L 455.196854 222.68456 
L 456.847089 220.574871 
L 458.497324 219.96059 
L 460.147558 223.052998 
L 461.797793 220.866376 
L 463.448028 220.349956 
L 465.098263 222.896912 
L 466.748497 221.40836 
L 468.398732 220.733987 
L 470.048967 222.670603 
L 473.349436 220.948448 
L 474.999671 222.484637 
L 476.649906 222.201433 
L 478.30014 221.064674 
L 479.950375 222.378005 
L 481.60061 223.03766 
L 483.250845 220.426059 
L 484.901079 224.242341 
L 486.551314 221.451595 
L 488.201549 222.422916 
L 489.851783 222.393486 
L 491.502018 222.654288 
L 493.152253 222.135603 
L 494.802488 222.697662 
L 496.452722 222.721331 
L 499.753192 222.533972 
L 501.403427 223.135953 
L 503.053661 222.459807 
L 504.703896 223.033784 
L 506.354131 222.638132 
L 508.004365 223.44574 
L 509.6546 222.447083 
L 509.6546 222.447083 
" clip-path="url(#p9b9fa89409)" style="fill: none; stroke: #000000; stroke-width: 1.1; stroke-linecap: square"/>
   </g>
   <g id="line2d_34">
    <path d="M 67.390895 138.39649 
L 69.040864 143.778097 
L 70.690833 147.927221 
L 72.340802 155.401251 
L 73.990771 160.368934 
L 75.64074 159.296937 
L 77.290709 163.387443 
L 78.940677 158.894691 
L 80.590646 163.370356 
L 82.240615 163.738136 
L 83.890584 165.436449 
L 85.540553 175.12664 
L 87.190522 163.139628 
L 88.840491 162.224968 
L 90.490459 165.763406 
L 92.140428 170.273873 
L 93.790397 165.585095 
L 95.440366 167.961492 
L 97.090335 163.293916 
L 98.740304 157.278774 
L 100.390273 158.302117 
L 103.69021 176.143104 
L 105.340179 172.417833 
L 106.990148 166.706119 
L 108.640117 166.341458 
L 110.290086 166.922853 
L 111.940055 170.369399 
L 113.590023 172.429576 
L 115.239992 169.017344 
L 116.889961 166.089529 
L 118.53993 167.630045 
L 120.189899 192.087643 
L 121.839868 169.982436 
L 123.489837 169.041135 
L 125.139806 177.20244 
L 126.789774 167.695327 
L 128.439743 164.850696 
L 130.089712 167.721143 
L 131.739681 171.549197 
L 133.38965 166.289086 
L 135.039619 168.02319 
L 136.689588 172.64915 
L 138.339556 168.2754 
L 139.989525 169.01502 
L 141.639494 181.258036 
L 143.289463 173.685358 
L 144.939432 172.579438 
L 146.589401 174.270111 
L 148.23937 169.867132 
L 149.889338 170.618456 
L 151.539307 181.185676 
L 153.189276 176.920257 
L 154.839245 174.692721 
L 156.489214 188.608198 
L 158.139183 173.146893 
L 159.789152 172.720162 
L 161.43912 175.983646 
L 163.089089 171.941383 
L 164.739058 173.038698 
L 166.389027 179.414639 
L 168.038996 178.533613 
L 169.688965 175.620872 
L 171.338934 182.731085 
L 172.988903 176.177587 
L 174.638871 176.012741 
L 176.28884 181.535563 
L 177.938809 178.179344 
L 179.588778 177.271961 
L 181.238747 179.424537 
L 182.888716 177.214604 
L 184.538685 178.362897 
L 186.188653 190.041671 
L 187.838622 177.721026 
L 189.488591 180.110814 
L 191.13856 183.77215 
L 192.788529 176.570738 
L 194.438498 180.794462 
L 196.088467 181.777727 
L 197.738435 179.311992 
L 199.388404 190.42939 
L 201.038373 180.497452 
L 202.688342 177.208421 
L 204.338311 177.279489 
L 205.98828 179.917125 
L 207.638249 193.503341 
L 209.288217 183.383438 
L 210.938186 182.676407 
L 212.588155 200.555772 
L 214.238124 182.642896 
L 215.888093 178.947489 
L 217.538062 180.526654 
L 219.188031 187.951117 
L 220.838 189.948294 
L 222.487968 185.022276 
L 225.787906 193.15428 
L 227.437875 193.26109 
L 229.087844 191.130405 
L 230.737813 191.445248 
L 232.387782 199.527308 
L 234.03775 194.09399 
L 235.687719 189.220456 
L 237.337688 186.87144 
L 240.637626 186.351369 
L 242.287595 185.424873 
L 243.937564 186.426602 
L 245.587532 188.927755 
L 247.237501 188.989079 
L 248.88747 184.956637 
L 250.537439 183.296702 
L 252.187408 183.930824 
L 253.837377 187.376485 
L 255.487346 189.710442 
L 257.137314 191.14622 
L 258.787283 190.389335 
L 260.437252 189.372657 
L 262.087221 187.940225 
L 263.73719 187.039787 
L 265.387159 187.284986 
L 267.037128 187.999011 
L 268.687096 190.624009 
L 270.337065 188.886228 
L 271.987034 189.268035 
L 273.637003 191.231055 
L 275.286972 189.780024 
L 276.936941 188.814437 
L 278.58691 191.786843 
L 280.236879 197.742754 
L 281.886847 189.075599 
L 283.536816 185.767224 
L 285.186785 184.999288 
L 286.836754 186.366121 
L 288.486723 193.715754 
L 290.136692 190.605713 
L 291.786661 184.984669 
L 293.436629 182.866219 
L 295.086598 182.753668 
L 296.736567 183.497323 
L 298.386536 186.167182 
L 300.036505 191.051707 
L 301.686474 196.318384 
L 303.336443 196.124825 
L 304.986411 194.232034 
L 306.63638 190.336054 
L 309.936318 186.814148 
L 313.236256 184.282039 
L 314.886225 183.155603 
L 316.536193 183.357947 
L 318.186162 185.080124 
L 319.836131 188.269911 
L 321.4861 186.152435 
L 323.136069 183.757168 
L 324.786038 183.466286 
L 326.436007 184.249105 
L 328.085976 185.84911 
L 329.735944 188.356632 
L 331.385913 187.830369 
L 333.035882 186.374747 
L 334.685851 185.993066 
L 336.33582 186.225848 
L 337.985789 188.115695 
L 339.635758 193.464598 
L 341.285726 197.081563 
L 342.935695 192.828734 
L 344.585664 190.617133 
L 346.235633 190.297516 
L 347.885602 190.359791 
L 349.535571 189.570232 
L 351.18554 191.130982 
L 352.835508 193.064048 
L 354.485477 198.731424 
L 356.135446 207.55774 
L 357.785415 198.561909 
L 359.435384 195.296466 
L 361.085353 191.444178 
L 362.735322 191.457342 
L 364.38529 191.940524 
L 366.035259 193.231291 
L 367.685228 199.465101 
L 369.335197 193.434273 
L 370.985166 190.343632 
L 372.635135 193.557052 
L 374.285104 201.806559 
L 375.935073 196.781594 
L 377.585041 192.494031 
L 379.23501 191.033713 
L 380.884979 192.936785 
L 382.534948 196.902624 
L 384.184917 199.950493 
L 385.834886 194.840808 
L 387.484855 191.21874 
L 389.134823 190.626241 
L 390.784792 192.659341 
L 392.434761 192.580503 
L 394.08473 194.207387 
L 395.734699 199.668985 
L 397.384668 195.948636 
L 399.034637 194.086495 
L 400.684605 193.06633 
L 402.334574 192.74566 
L 403.984543 193.999581 
L 405.634512 196.730519 
L 407.284481 205.948593 
L 408.93445 199.695768 
L 410.584419 197.390922 
L 412.234387 196.412971 
L 413.884356 197.035132 
L 417.184294 194.162752 
L 418.834263 192.86994 
L 420.484232 193.858479 
L 422.134201 201.80392 
L 423.78417 200.798618 
L 425.434138 197.41803 
L 427.084107 198.046051 
L 428.734076 202.219393 
L 430.384045 205.299785 
L 432.034014 204.878659 
L 433.683983 201.870554 
L 435.333952 200.797724 
L 436.98392 200.531082 
L 438.633889 203.052775 
L 440.283858 207.509582 
L 441.933827 196.403209 
L 443.583796 195.228842 
L 445.233765 197.916365 
L 446.883734 196.748793 
L 448.533702 196.154772 
L 450.183671 197.376497 
L 451.83364 198.37212 
L 453.483609 202.912153 
L 455.133578 202.517537 
L 456.783547 203.399629 
L 458.433516 206.133728 
L 460.083484 205.789489 
L 461.733453 203.616783 
L 463.383422 209.195425 
L 465.033391 200.625647 
L 466.68336 197.642975 
L 468.333329 202.861392 
L 469.983298 196.988436 
L 471.633266 195.835862 
L 473.283235 202.185877 
L 474.933204 200.36666 
L 476.583173 201.671872 
L 478.233142 206.011994 
L 479.883111 204.640516 
L 481.53308 203.590851 
L 483.183049 206.504944 
L 484.833017 207.566271 
L 486.482986 205.795383 
L 488.132955 196.095708 
L 489.782924 195.762378 
L 491.432893 203.548218 
L 493.082862 201.313765 
L 494.732831 199.781075 
L 496.382799 203.21018 
L 498.032768 202.310197 
L 499.682737 201.587063 
L 501.332706 200.356396 
L 502.982675 197.468757 
L 504.632644 199.889126 
L 506.282613 214.481667 
L 507.932581 200.972814 
L 509.58255 201.038384 
L 509.58255 201.038384 
" clip-path="url(#p9b9fa89409)" style="fill: none; stroke-dasharray: 2,1; stroke-dashoffset: 0; stroke: #2ca02c; stroke-opacity: 0.98"/>
   </g>
   <g id="line2d_35">
    <path d="M 67.390895 137.947339 
L 69.040864 143.128447 
L 70.690833 147.555565 
L 72.340802 155.767442 
L 73.990771 162.054567 
L 75.64074 159.750216 
L 77.290709 163.234183 
L 78.940677 159.050179 
L 80.590646 163.173674 
L 82.240615 163.941578 
L 83.890584 165.741217 
L 85.540553 180.414201 
L 87.190522 162.553631 
L 88.840491 162.188419 
L 90.490459 167.21684 
L 92.140428 162.667968 
L 93.790397 161.156116 
L 95.440366 167.084212 
L 97.090335 161.184948 
L 98.740304 159.973947 
L 100.390273 162.099102 
L 102.040241 166.208724 
L 103.69021 164.05177 
L 105.340179 169.456174 
L 106.990148 164.317233 
L 108.640117 166.473104 
L 110.290086 173.595653 
L 111.940055 173.498443 
L 113.590023 174.24226 
L 115.239992 173.571283 
L 116.889961 171.751952 
L 118.53993 166.140972 
L 120.189899 169.907905 
L 121.839868 178.959994 
L 123.489837 171.107267 
L 125.139806 172.958239 
L 126.789774 177.161785 
L 128.439743 169.47243 
L 130.089712 171.003937 
L 131.739681 178.802318 
L 133.38965 170.003417 
L 135.039619 172.161766 
L 136.689588 180.175745 
L 138.339556 171.547253 
L 139.989525 175.04756 
L 141.639494 181.603393 
L 143.289463 176.329629 
L 144.939432 176.309709 
L 146.589401 181.042384 
L 148.23937 171.50122 
L 149.889338 172.03302 
L 151.539307 195.178721 
L 153.189276 174.551584 
L 154.839245 175.544943 
L 156.489214 178.722148 
L 158.139183 170.833489 
L 159.789152 170.81232 
L 161.43912 178.164077 
L 163.089089 173.129963 
L 164.739058 174.563131 
L 166.389027 200.776222 
L 168.038996 176.009386 
L 169.688965 174.948804 
L 171.338934 181.015344 
L 172.988903 176.177417 
L 174.638871 176.245489 
L 176.28884 182.809935 
L 177.938809 176.975517 
L 179.588778 177.77476 
L 181.238747 185.859737 
L 182.888716 183.599387 
L 184.538685 180.372688 
L 186.188653 185.937759 
L 187.838622 180.758609 
L 189.488591 177.775269 
L 191.13856 183.664949 
L 192.788529 178.385971 
L 194.438498 178.991368 
L 196.088467 187.953688 
L 197.738435 179.257511 
L 199.388404 183.967509 
L 201.038373 181.769853 
L 202.688342 180.991901 
L 204.338311 181.535779 
L 205.98828 179.255051 
L 207.638249 183.199067 
L 209.288217 183.678844 
L 210.938186 181.695317 
L 212.588155 189.455019 
L 214.238124 190.239539 
L 215.888093 185.51669 
L 217.538062 188.515377 
L 219.188031 199.782355 
L 220.838 187.161411 
L 222.487968 182.962986 
L 224.137937 183.823574 
L 225.787906 188.030019 
L 227.437875 190.001874 
L 229.087844 195.082503 
L 230.737813 196.32065 
L 232.387782 190.363113 
L 234.03775 189.676896 
L 235.687719 192.432097 
L 237.337688 191.377417 
L 238.987657 190.067166 
L 240.637626 187.652487 
L 242.287595 186.470163 
L 243.937564 187.258088 
L 245.587532 187.268272 
L 247.237501 189.073278 
L 248.88747 191.25323 
L 250.537439 192.161783 
L 252.187408 192.086258 
L 253.837377 193.177121 
L 255.487346 196.44214 
L 257.137314 196.641968 
L 258.787283 203.271005 
L 260.437252 197.100537 
L 262.087221 189.023366 
L 263.73719 186.367585 
L 265.387159 187.730456 
L 267.037128 190.154779 
L 268.687096 196.658146 
L 270.337065 191.268369 
L 271.987034 187.941438 
L 273.637003 188.359126 
L 275.286972 194.2041 
L 276.936941 205.447485 
L 278.58691 195.483088 
L 280.236879 191.460481 
L 283.536816 185.323544 
L 285.186785 184.930125 
L 286.836754 187.235448 
L 288.486723 195.726519 
L 290.136692 191.085419 
L 291.786661 185.756364 
L 293.436629 183.565657 
L 295.086598 184.036902 
L 296.736567 186.132255 
L 301.686474 200.057613 
L 303.336443 206.906141 
L 304.986411 195.113848 
L 306.63638 192.24897 
L 308.286349 190.875759 
L 311.586287 185.394199 
L 313.236256 183.128633 
L 314.886225 182.065437 
L 316.536193 182.584253 
L 318.186162 184.548023 
L 319.836131 188.863098 
L 321.4861 187.455264 
L 323.136069 183.367801 
L 324.786038 181.734266 
L 326.436007 181.767683 
L 328.085976 183.070278 
L 329.735944 185.893409 
L 331.385913 187.064056 
L 333.035882 185.090012 
L 334.685851 184.145034 
L 336.33582 184.666961 
L 337.985789 186.867909 
L 339.635758 189.505856 
L 341.285726 188.258549 
L 342.935695 186.81304 
L 344.585664 187.314379 
L 346.235633 189.256372 
L 347.885602 195.163308 
L 349.535571 199.449009 
L 351.18554 192.489672 
L 352.835508 190.539192 
L 354.485477 190.686935 
L 356.135446 192.533788 
L 357.785415 197.850952 
L 359.435384 212.177935 
L 361.085353 198.69249 
L 362.735322 196.102656 
L 364.38529 195.664227 
L 366.035259 197.636185 
L 367.685228 200.356362 
L 369.335197 204.591076 
L 370.985166 204.039892 
L 372.635135 202.327445 
L 374.285104 199.108691 
L 375.935073 199.85222 
L 377.585041 200.04406 
L 380.884979 207.648319 
L 382.534948 205.543144 
L 384.184917 200.567197 
L 385.834886 198.751779 
L 387.484855 197.476885 
L 389.134823 198.284878 
L 390.784792 198.092174 
L 392.434761 199.241802 
L 394.08473 197.267832 
L 395.734699 196.969327 
L 400.684605 198.473025 
L 402.334574 199.666554 
L 403.984543 200.59876 
L 405.634512 200.223655 
L 407.284481 200.712957 
L 408.93445 202.398074 
L 410.584419 205.661147 
L 412.234387 216.63581 
L 413.884356 205.471201 
L 415.534325 202.175924 
L 417.184294 203.230797 
L 418.834263 203.630574 
L 420.484232 209.928751 
L 422.134201 205.877438 
L 423.78417 204.854706 
L 425.434138 201.71822 
L 427.084107 202.512394 
L 428.734076 202.509785 
L 430.384045 202.312624 
L 432.034014 200.087743 
L 433.683983 200.554688 
L 435.333952 200.010077 
L 436.98392 202.001393 
L 438.633889 201.742261 
L 440.283858 202.60924 
L 441.933827 201.71407 
L 443.583796 201.903009 
L 445.233765 202.800213 
L 446.883734 206.388226 
L 448.533702 205.96665 
L 450.183671 206.892149 
L 451.83364 203.665589 
L 453.483609 204.779963 
L 455.133578 203.407862 
L 456.783547 204.599177 
L 458.433516 203.060778 
L 461.733453 206.166656 
L 463.383422 206.229212 
L 465.033391 205.684858 
L 466.68336 207.593281 
L 468.333329 211.115527 
L 469.983298 210.671855 
L 471.633266 207.141479 
L 473.283235 204.12074 
L 474.933204 204.517539 
L 476.583173 203.967352 
L 478.233142 204.536535 
L 479.883111 205.457395 
L 481.53308 207.756533 
L 483.183049 210.52047 
L 484.833017 221.466188 
L 486.482986 215.991753 
L 488.132955 214.35037 
L 489.782924 213.170835 
L 491.432893 214.474852 
L 493.082862 217.633861 
L 494.732831 218.235381 
L 496.382799 211.337185 
L 498.032768 213.308524 
L 499.682737 208.737977 
L 501.332706 207.538734 
L 502.982675 209.789558 
L 504.632644 209.732868 
L 506.282613 208.080632 
L 507.932581 206.210968 
L 509.58255 205.583273 
L 509.58255 205.583273 
" clip-path="url(#p9b9fa89409)" style="fill: none; stroke-dasharray: 2,1; stroke-dashoffset: 0; stroke: #ff0000; stroke-opacity: 0.98"/>
   </g>
   <g id="patch_9">
    <path d="M 67.392 225.504 
L 67.392 136.944 
" style="fill: none; stroke: #000000; stroke-width: 0.8; stroke-linejoin: miter; stroke-linecap: square"/>
   </g>
   <g id="patch_10">
    <path d="M 508.032 225.504 
L 508.032 136.944 
" style="fill: none; stroke: #000000; stroke-width: 0.8; stroke-linejoin: miter; stroke-linecap: square"/>
   </g>
   <g id="patch_11">
    <path d="M 67.392 225.504 
L 508.032 225.504 
" style="fill: none; stroke: #000000; stroke-width: 0.8; stroke-linejoin: miter; stroke-linecap: square"/>
   </g>
   <g id="patch_12">
    <path d="M 67.392 136.944 
L 508.032 136.944 
" style="fill: none; stroke: #000000; stroke-width: 0.8; stroke-linejoin: miter; stroke-linecap: square"/>
   </g>
  </g>
 </g>
 <defs>
  <clipPath id="p1857a9d0de">
   <rect x="67.392" y="12.96" width="440.64" height="88.56"/>
  </clipPath>
  <clipPath id="p9b9fa89409">
   <rect x="67.392" y="136.944" width="440.64" height="88.56"/>
  </clipPath>
 </defs>
</svg>
